<?xml version="1.0" encoding="utf-8"?>
<!-- Generator: Adobe Illustrator 27.1.1, SVG Export Plug-In . SVG Version: 6.00 Build 0)  -->
<svg version="1.1" id="Layer_1" xmlns="http://www.w3.org/2000/svg" xmlns:xlink="http://www.w3.org/1999/xlink" x="0px" y="0px"
	 viewBox="0 0 1490.2 350.2" style="enable-background:new 0 0 1490.2 350.2;" xml:space="preserve">
<style type="text/css">
	.st0{fill:#1E1E1E;}
	.st1{fill:#FFFFFF;}
	.st2{fill:#E6E6EE;}
	.st3{fill:#2400FF;}
	.st4{fill:#EEFF41;}
</style>
<g>
	<rect x="959.5" class="st0" width="247.8" height="350.2"/>
	<g>
		<path class="st1" d="M1015.4,243.6v25.7h-6.3v-15.4l-5.8,15.4h-5.1l-5.8-15.5v15.5h-6.3v-25.7h7.4l7.2,17.8l7.2-17.8H1015.4z"/>
		<path class="st1" d="M1020.3,245.8c-0.7-0.6-1-1.4-1-2.4s0.4-1.8,1-2.4s1.6-1,2.7-1s2,0.3,2.7,1s1,1.5,1,2.4s-0.3,1.8-1,2.4
			c-0.7,0.6-1.6,1-2.7,1S1021,246.4,1020.3,245.8z M1026.1,248.9v20.4h-6.3v-20.4H1026.1z"/>
		<path class="st1" d="M1030.6,253.6c0.8-1.6,1.9-2.8,3.2-3.7c1.4-0.9,2.9-1.3,4.6-1.3c1.3,0,2.6,0.3,3.7,0.8c1.1,0.6,2,1.3,2.6,2.3
			v-9.5h6.3v27.1h-6.3v-2.9c-0.6,1-1.4,1.8-2.5,2.4c-1.1,0.6-2.4,0.9-3.8,0.9c-1.7,0-3.2-0.4-4.6-1.3c-1.4-0.9-2.5-2.1-3.2-3.7
			c-0.8-1.6-1.2-3.5-1.2-5.5S1029.8,255.2,1030.6,253.6L1030.6,253.6z M1043.4,255.4c-0.9-0.9-1.9-1.4-3.2-1.4s-2.3,0.4-3.2,1.3
			c-0.9,0.9-1.3,2.1-1.3,3.7s0.4,2.8,1.3,3.7s1.9,1.4,3.2,1.4s2.3-0.5,3.2-1.4c0.9-0.9,1.3-2.1,1.3-3.7S1044.3,256.3,1043.4,255.4
			L1043.4,255.4z"/>
		<path class="st1" d="M1073.8,251c1.4,1.6,2.1,3.7,2.1,6.4v12h-6.2v-11.1c0-1.4-0.3-2.4-1.1-3.2c-0.7-0.8-1.7-1.1-2.9-1.1
			c-1.2,0-2.1,0.4-2.9,1.1c-0.7,0.8-1.1,1.8-1.1,3.2v11.1h-6.3v-20.4h6.3v2.7c0.6-0.9,1.5-1.6,2.6-2.1c1.1-0.5,2.3-0.8,3.6-0.8
			C1070.4,248.7,1072.3,249.5,1073.8,251L1073.8,251z"/>
		<path class="st1" d="M1080.7,245.8c-0.7-0.6-1-1.4-1-2.4s0.3-1.8,1-2.4c0.7-0.7,1.6-1,2.7-1s2,0.3,2.7,1c0.7,0.6,1,1.5,1,2.4
			s-0.4,1.8-1,2.4c-0.7,0.6-1.6,1-2.7,1S1081.4,246.4,1080.7,245.8z M1086.5,248.9v20.4h-6.3v-20.4H1086.5z"/>
		<path class="st1" d="M1102.6,249.5c1.1,0.6,1.9,1.4,2.5,2.3v-2.9h6.3v20.4c0,1.9-0.4,3.6-1.1,5.1c-0.8,1.5-1.9,2.7-3.4,3.6
			c-1.5,0.9-3.4,1.4-5.7,1.4c-3,0-5.5-0.7-7.4-2.1c-1.9-1.4-3-3.4-3.2-5.8h6.2c0.2,0.8,0.7,1.4,1.4,1.9s1.6,0.7,2.7,0.7
			c1.3,0,2.3-0.4,3.1-1.1s1.2-1.9,1.2-3.6v-2.9c-0.6,1-1.5,1.7-2.5,2.3c-1.1,0.6-2.3,0.9-3.8,0.9c-1.7,0-3.2-0.4-4.6-1.3
			s-2.5-2.1-3.2-3.7c-0.8-1.6-1.2-3.5-1.2-5.5s0.4-3.9,1.2-5.5c0.8-1.6,1.9-2.8,3.2-3.7c1.4-0.9,2.9-1.3,4.6-1.3
			C1100.3,248.6,1101.5,248.9,1102.6,249.5L1102.6,249.5z M1103.9,255.4c-0.9-0.9-1.9-1.4-3.2-1.4s-2.3,0.4-3.2,1.3
			c-0.9,0.9-1.3,2.1-1.3,3.7s0.4,2.8,1.3,3.7s1.9,1.4,3.2,1.4s2.3-0.5,3.2-1.4c0.9-0.9,1.3-2.1,1.3-3.7S1104.7,256.3,1103.9,255.4
			L1103.9,255.4z"/>
		<path class="st1" d="M1134.2,251c1.4,1.6,2.1,3.7,2.1,6.4v12h-6.2v-11.1c0-1.4-0.3-2.4-1.1-3.2c-0.7-0.8-1.7-1.1-2.9-1.1
			c-1.2,0-2.2,0.4-2.9,1.1s-1.1,1.8-1.1,3.2v11.1h-6.3v-27.1h6.3v9.4c0.6-0.9,1.5-1.6,2.6-2.2c1.1-0.5,2.3-0.8,3.7-0.8
			C1130.9,248.7,1132.8,249.5,1134.2,251L1134.2,251z"/>
		<path class="st1" d="M1152.1,264v5.3h-3.2c-2.3,0-4-0.6-5.3-1.7c-1.3-1.1-1.9-2.9-1.9-5.4v-8.1h-2.5v-5.2h2.5v-5h6.3v5h4.1v5.2
			h-4.1v8.2c0,0.6,0.2,1,0.4,1.3c0.3,0.3,0.8,0.4,1.5,0.4H1152.1z"/>
	</g>
	<g>
		<path class="st1" d="M1006,304.2l-1.4,6.8h5.2v2.3h-5.7l-1.7,7.8h-2.5l1.7-7.8h-8.1l-1.7,7.8h-2.5l1.7-7.8h-5.8v-2.3h6.3l1.4-6.8
			h-5.7v-2.3h6.2l1.7-8h2.5l-1.7,8h8.1l1.7-8h2.5l-1.7,8h5.3v2.3H1006L1006,304.2z M1003.5,304.2h-8.1l-1.4,6.8h8.1L1003.5,304.2z"
			/>
		<path class="st1" d="M1014.8,297.1v-2.3h6.2V321h-2.6v-24H1014.8z"/>
		<path class="st1" d="M1029.9,297.5v9.6h9.7v2.1h-9.7v9.7h10.8v2.1h-13.4v-25.7h13.4v2.1L1029.9,297.5L1029.9,297.5z"/>
		<path class="st1" d="M1044,297.1v-2.3h6.2V321h-2.6v-24C1047.6,297.1,1044,297.1,1044,297.1z"/>
		<path class="st1" d="M1059,297.5v9.6h9.7v2.1h-9.7v9.7h10.8v2.1h-13.4v-25.7h13.4v2.1L1059,297.5L1059,297.5z"/>
		<path class="st1" d="M1073.1,297.1v-2.3h6.2V321h-2.6v-24C1076.8,297.1,1073.1,297.1,1073.1,297.1z"/>
		<path class="st1" d="M1088.2,297.5v9.6h9.7v2.1h-9.7v9.7h10.8v2.1h-13.4v-25.7h13.4v2.1L1088.2,297.5L1088.2,297.5z"/>
	</g>
</g>
<g>
	<rect x="0" class="st2" width="571.8" height="350.2"/>
	<g>
		<path d="M27.3,249.6c1.1-2,2.6-3.5,4.6-4.7c2-1.1,4.2-1.7,6.7-1.7c3,0,5.7,0.8,7.8,2.4c2.2,1.6,3.6,3.8,4.4,6.6h-6.9
			c-0.5-1.1-1.2-1.9-2.2-2.5c-0.9-0.6-2-0.8-3.2-0.8c-1.9,0-3.5,0.7-4.7,2c-1.2,1.3-1.8,3.1-1.8,5.4c0,2.2,0.6,4,1.8,5.4
			c1.2,1.3,2.8,2,4.7,2c1.2,0,2.3-0.3,3.2-0.8s1.7-1.4,2.2-2.5h6.9c-0.7,2.8-2.2,5-4.4,6.6c-2.2,1.6-4.8,2.4-7.8,2.4
			c-2.5,0-4.7-0.6-6.7-1.7s-3.5-2.7-4.6-4.6s-1.7-4.2-1.7-6.8S26.2,251.6,27.3,249.6L27.3,249.6z"/>
		<path d="M58.6,268.4c-1.6-0.9-2.9-2.1-3.8-3.7s-1.4-3.5-1.4-5.6s0.5-3.9,1.4-5.6s2.2-2.8,3.8-3.7c1.6-0.9,3.4-1.3,5.4-1.3
			s3.8,0.4,5.4,1.3s2.9,2.1,3.8,3.7c0.9,1.6,1.4,3.4,1.4,5.6s-0.5,4-1.4,5.5c-0.9,1.6-2.2,2.8-3.8,3.7c-1.6,0.9-3.4,1.3-5.4,1.3
			S60.2,269.2,58.6,268.4L58.6,268.4z M67,262.9c0.8-0.9,1.3-2.1,1.3-3.8s-0.4-2.9-1.2-3.8s-1.8-1.3-3-1.3s-2.2,0.4-3,1.3
			c-0.8,0.9-1.2,2.1-1.2,3.8s0.4,2.9,1.2,3.8s1.8,1.3,3,1.3S66.2,263.8,67,262.9L67,262.9z"/>
		<path d="M81.9,268.4c-1.6-0.9-2.9-2.1-3.8-3.7s-1.4-3.5-1.4-5.6s0.5-3.9,1.4-5.6s2.2-2.8,3.8-3.7c1.6-0.9,3.4-1.3,5.4-1.3
			s3.8,0.4,5.4,1.3s2.9,2.1,3.8,3.7c0.9,1.6,1.4,3.4,1.4,5.6s-0.5,4-1.4,5.5c-0.9,1.6-2.2,2.8-3.8,3.7c-1.6,0.9-3.4,1.3-5.4,1.3
			S83.5,269.2,81.9,268.4L81.9,268.4z M90.4,262.9c0.8-0.9,1.3-2.1,1.3-3.8s-0.4-2.9-1.2-3.8s-1.8-1.3-3-1.3s-2.2,0.4-3,1.3
			c-0.8,0.9-1.2,2.1-1.2,3.8s0.4,2.9,1.2,3.8s1.8,1.3,3,1.3S89.5,263.8,90.4,262.9L90.4,262.9z"/>
		<path d="M107.6,242.2v27.1h-6.3v-27.1L107.6,242.2L107.6,242.2z"/>
		<path d="M124.2,268.7c-1.5-0.6-2.7-1.5-3.6-2.7s-1.4-2.6-1.4-4.3h6.7c0.1,1,0.4,1.7,1,2.2s1.3,0.8,2.2,0.8s1.7-0.2,2.2-0.6
			c0.5-0.4,0.8-1,0.8-1.8c0-0.6-0.2-1.2-0.6-1.6c-0.4-0.4-1-0.8-1.6-1s-1.5-0.6-2.7-0.9c-1.7-0.5-3-1-4.1-1.5s-2-1.3-2.7-2.3
			s-1.1-2.3-1.1-3.9c0-2.4,0.9-4.3,2.6-5.6s4-2,6.8-2s5.1,0.7,6.8,2c1.7,1.4,2.7,3.2,2.8,5.7h-6.8c0-0.8-0.3-1.5-0.9-2
			c-0.6-0.5-1.3-0.7-2.2-0.7c-0.8,0-1.4,0.2-1.8,0.6c-0.5,0.4-0.7,1-0.7,1.7c0,0.8,0.4,1.5,1.2,1.9c0.8,0.5,2,1,3.7,1.5
			c1.7,0.6,3,1.1,4,1.6s1.9,1.3,2.7,2.2c0.8,1,1.1,2.2,1.1,3.8s-0.4,2.8-1.1,4s-1.8,2.1-3.2,2.9c-1.4,0.7-3.1,1.1-5,1.1
			S125.7,269.3,124.2,268.7L124.2,268.7z"/>
		<path d="M148.8,242.2v27.1h-6.3v-27.1L148.8,242.2L148.8,242.2z"/>
		<path d="M153.2,253.6c0.8-1.6,1.9-2.8,3.2-3.7c1.4-0.9,2.9-1.3,4.6-1.3c1.4,0,2.7,0.3,3.8,0.9c1.1,0.6,1.9,1.4,2.5,2.3v-2.9h6.3
			v20.5h-6.3v-2.9c-0.6,1-1.5,1.7-2.5,2.3c-1.1,0.6-2.3,0.9-3.8,0.9c-1.7,0-3.2-0.4-4.5-1.3c-1.4-0.9-2.5-2.1-3.2-3.7
			s-1.2-3.5-1.2-5.5S152.5,255.1,153.2,253.6L153.2,253.6z M166.1,255.4c-0.9-0.9-1.9-1.4-3.2-1.4s-2.3,0.4-3.2,1.3
			c-0.9,0.9-1.3,2.1-1.3,3.7s0.4,2.8,1.3,3.7s1.9,1.4,3.2,1.4s2.3-0.5,3.2-1.4c0.9-0.9,1.3-2.1,1.3-3.7S166.9,256.3,166.1,255.4
			L166.1,255.4z"/>
		<path d="M189.6,264v5.3h-3.2c-2.3,0-4-0.6-5.3-1.7c-1.3-1.1-1.9-2.9-1.9-5.4v-8.1h-2.5v-5.2h2.5v-5h6.3v5h4.1v5.2h-4.1v8.2
			c0,0.6,0.2,1,0.4,1.3c0.3,0.3,0.8,0.4,1.5,0.4H189.6z"/>
		<path d="M212.2,260.6h-14.2c0.1,1.3,0.5,2.2,1.2,2.9s1.6,1,2.7,1c1.6,0,2.7-0.7,3.3-2h6.7c-0.3,1.3-1,2.5-1.8,3.6
			c-0.9,1.1-2,1.9-3.3,2.5c-1.3,0.6-2.8,0.9-4.5,0.9c-2,0-3.8-0.4-5.3-1.3c-1.6-0.9-2.8-2.1-3.7-3.7s-1.3-3.5-1.3-5.6s0.4-4,1.3-5.6
			s2.1-2.8,3.7-3.7c1.6-0.9,3.4-1.3,5.4-1.3s3.7,0.4,5.3,1.2c1.5,0.8,2.7,2,3.6,3.6s1.3,3.3,1.3,5.4
			C212.4,259.4,212.3,260,212.2,260.6L212.2,260.6z M205.9,257.1c0-1.1-0.4-1.9-1.1-2.6c-0.7-0.6-1.7-0.9-2.8-0.9s-1.9,0.3-2.7,0.9
			s-1.2,1.5-1.3,2.6H205.9L205.9,257.1z"/>
	</g>
	<g>
		<path d="M46.5,304.2l-1.4,6.8h5.2v2.3h-5.7l-1.7,7.8h-2.5l1.7-7.8H34l-1.7,7.8h-2.5l1.7-7.8h-5.8v-2.3H32l1.4-6.8h-5.7v-2.3H34
			l1.7-8h2.5l-1.7,8h8.1l1.7-8h2.5l-1.7,8h5.3v2.3H46.5L46.5,304.2z M44.1,304.2h-8.1l-1.4,6.8h8.1L44.1,304.2z"/>
		<path d="M59.7,297.5v9.6h9.7v2.1h-9.7v9.7h10.8v2.1H57.1v-25.7h13.4v2.1L59.7,297.5L59.7,297.5z"/>
		<path d="M84.6,296.4c-2.4,0-4.2,0.9-5.4,2.8c-1.2,1.9-1.8,4.9-1.7,9.1c0.5-1.5,1.4-2.6,2.8-3.5s3-1.3,4.8-1.3
			c2.6,0,4.6,0.8,6.1,2.4s2.2,3.8,2.2,6.5c0,1.6-0.3,3.1-0.9,4.4c-0.6,1.3-1.6,2.4-2.9,3.1c-1.3,0.8-2.9,1.2-4.8,1.2
			c-3.6,0-6.2-1.2-7.5-3.5s-2.1-5.6-2.1-9.9c0-9,3.1-13.6,9.3-13.6c2.3,0,4.2,0.6,5.5,1.9c1.3,1.3,2.1,3,2.4,5h-2.4
			C89.6,298,87.7,296.4,84.6,296.4L84.6,296.4z M81.4,306.5c-1,0.5-1.9,1.2-2.5,2.1c-0.7,0.9-1,2.1-1,3.5c0,2,0.6,3.6,1.8,5
			s2.9,2,5.1,2c1.9,0,3.4-0.6,4.5-1.7s1.7-2.7,1.7-4.7c0-2.1-0.5-3.8-1.7-5c-1.1-1.2-2.7-1.8-4.7-1.8
			C83.5,305.8,82.4,306,81.4,306.5L81.4,306.5z"/>
		<path d="M101.2,297.5v9.6h9.7v2.1h-9.7v9.7H112v2.1H98.6v-25.7H112v2.1L101.2,297.5L101.2,297.5z"/>
		<path d="M126.1,296.4c-2.4,0-4.2,0.9-5.4,2.8c-1.2,1.9-1.8,4.9-1.7,9.1c0.5-1.5,1.4-2.6,2.8-3.5s3-1.3,4.8-1.3
			c2.6,0,4.6,0.8,6.1,2.4s2.2,3.8,2.2,6.5c0,1.6-0.3,3.1-0.9,4.4c-0.6,1.3-1.6,2.4-2.9,3.1c-1.3,0.8-2.9,1.2-4.8,1.2
			c-3.6,0-6.2-1.2-7.5-3.5s-2.1-5.6-2.1-9.9c0-9,3.1-13.6,9.3-13.6c2.3,0,4.2,0.6,5.5,1.9c1.3,1.3,2.1,3,2.4,5h-2.4
			C131.1,298,129.2,296.4,126.1,296.4L126.1,296.4z M122.9,306.5c-1,0.5-1.9,1.2-2.5,2.1c-0.7,0.9-1,2.1-1,3.5c0,2,0.6,3.6,1.8,5
			s2.9,2,5.1,2c1.9,0,3.4-0.6,4.5-1.7s1.7-2.7,1.7-4.7c0-2.1-0.5-3.8-1.7-5c-1.1-1.2-2.7-1.8-4.7-1.8
			C125,305.8,123.9,306,122.9,306.5L122.9,306.5z"/>
		<path d="M142.7,297.5v9.6h9.7v2.1h-9.7v9.7h10.8v2.1h-13.4v-25.7h13.4v2.1L142.7,297.5L142.7,297.5z"/>
		<path d="M161.1,297.5v9.6h9.7v2.1h-9.7v9.7H172v2.1h-13.4v-25.7H172v2.1L161.1,297.5L161.1,297.5z"/>
	</g>
</g>
<g>
	<rect x="590.6" class="st3" width="350.2" height="350.2"/>
	<g>
		<path class="st1" d="M646.4,243.6v25.7h-6.3v-15.4l-5.8,15.4h-5.1l-5.8-15.5v15.5h-6.3v-25.7h7.4l7.2,17.8l7.2-17.8H646.4z"/>
		<path class="st1" d="M654.8,268.4c-1.6-0.9-2.9-2.1-3.8-3.7c-0.9-1.6-1.4-3.5-1.4-5.6s0.5-3.9,1.4-5.6c0.9-1.6,2.2-2.8,3.8-3.7
			c1.6-0.9,3.4-1.3,5.4-1.3c2,0,3.8,0.4,5.4,1.3s2.9,2.1,3.8,3.7c0.9,1.6,1.4,3.4,1.4,5.6s-0.5,4-1.4,5.5c-0.9,1.6-2.2,2.8-3.8,3.7
			c-1.6,0.9-3.4,1.3-5.4,1.3S656.4,269.2,654.8,268.4L654.8,268.4z M663.3,262.9c0.8-0.9,1.3-2.1,1.3-3.8s-0.4-2.9-1.2-3.8
			s-1.8-1.3-3-1.3s-2.2,0.4-3,1.3c-0.8,0.9-1.2,2.1-1.2,3.8s0.4,2.9,1.2,3.8c0.8,0.9,1.8,1.3,3,1.3
			C661.5,264.2,662.5,263.8,663.3,262.9L663.3,262.9z"/>
		<path class="st1" d="M674.2,253.6c0.8-1.6,1.9-2.8,3.2-3.7c1.4-0.9,2.9-1.3,4.6-1.3c1.3,0,2.6,0.3,3.7,0.8s2,1.3,2.6,2.3v-9.5h6.3
			v27.1h-6.3v-2.9c-0.6,1-1.4,1.8-2.5,2.4c-1.1,0.6-2.4,0.9-3.8,0.9c-1.7,0-3.2-0.4-4.6-1.3s-2.5-2.1-3.2-3.7
			c-0.8-1.6-1.2-3.5-1.2-5.5S673.4,255.2,674.2,253.6L674.2,253.6z M687.1,255.4c-0.9-0.9-1.9-1.4-3.2-1.4s-2.3,0.4-3.2,1.3
			c-0.9,0.9-1.3,2.1-1.3,3.7s0.4,2.8,1.3,3.7s1.9,1.4,3.2,1.4s2.3-0.5,3.2-1.4c0.9-0.9,1.3-2.1,1.3-3.7S687.9,256.3,687.1,255.4
			L687.1,255.4z"/>
		<path class="st1" d="M718.4,260.6h-14.2c0.1,1.3,0.5,2.2,1.2,2.9c0.7,0.7,1.6,1,2.7,1c1.6,0,2.7-0.7,3.3-2h6.7
			c-0.3,1.3-1,2.5-1.9,3.6c-0.9,1.1-2,1.9-3.3,2.5c-1.3,0.6-2.9,0.9-4.5,0.9c-2,0-3.8-0.4-5.4-1.3c-1.6-0.9-2.8-2.1-3.7-3.7
			c-0.9-1.6-1.3-3.5-1.3-5.6s0.4-4,1.3-5.6c0.9-1.6,2.1-2.8,3.6-3.7c1.6-0.9,3.4-1.3,5.4-1.3s3.7,0.4,5.3,1.2c1.5,0.8,2.7,2,3.6,3.6
			s1.3,3.3,1.3,5.4C718.5,259.4,718.4,260,718.4,260.6L718.4,260.6z M712,257.1c0-1.1-0.4-1.9-1.1-2.6c-0.7-0.6-1.7-0.9-2.8-0.9
			c-1.1,0-1.9,0.3-2.7,0.9c-0.7,0.6-1.2,1.5-1.3,2.6H712L712,257.1z"/>
		<path class="st1" d="M730.8,249.6c1.1-0.6,2.3-1,3.7-1v6.6h-1.7c-1.6,0-2.7,0.3-3.5,1s-1.2,1.9-1.2,3.5v9.5h-6.3v-20.4h6.3v3.4
			C728.8,251.2,729.7,250.3,730.8,249.6L730.8,249.6z"/>
		<path class="st1" d="M755.6,251c1.4,1.6,2.1,3.7,2.1,6.4v12h-6.2v-11.1c0-1.4-0.3-2.4-1.1-3.2c-0.7-0.8-1.7-1.1-2.9-1.1
			s-2.2,0.4-2.9,1.1c-0.7,0.8-1.1,1.8-1.1,3.2v11.1h-6.3v-20.4h6.3v2.7c0.6-0.9,1.5-1.6,2.6-2.1s2.3-0.8,3.6-0.8
			C752.3,248.7,754.2,249.5,755.6,251L755.6,251z"/>
		<path class="st1" d="M789.1,258.4c0.9,1.2,1.4,2.5,1.4,4c0,2.1-0.8,3.9-2.2,5.1s-3.6,1.9-6.3,1.9h-12v-25.7h11.6
			c2.6,0,4.7,0.6,6.1,1.8s2.2,2.8,2.2,4.9c0,1.5-0.4,2.8-1.2,3.8c-0.8,1-1.8,1.7-3.2,2.1C787,256.5,788.2,257.2,789.1,258.4
			L789.1,258.4z M776.2,254h4.1c1,0,1.8-0.2,2.4-0.7s0.8-1.1,0.8-2s-0.3-1.6-0.8-2c-0.5-0.5-1.3-0.7-2.4-0.7h-4.1V254L776.2,254z
			 M783.3,263.6c0.6-0.5,0.9-1.2,0.9-2.1s-0.3-1.6-0.9-2.1c-0.6-0.5-1.4-0.8-2.5-0.8h-4.5v5.7h4.6
			C781.9,264.3,782.7,264,783.3,263.6z"/>
		<path class="st1" d="M800.4,242.2v27.1h-6.3v-27.1L800.4,242.2L800.4,242.2z"/>
		<path class="st1" d="M825.1,248.9v20.5h-6.3v-2.8c-0.6,0.9-1.5,1.6-2.6,2.2c-1.1,0.5-2.3,0.8-3.6,0.8c-1.6,0-3-0.4-4.1-1
			c-1.2-0.7-2.1-1.7-2.8-3c-0.7-1.3-1-2.9-1-4.7v-11.9h6.2V260c0,1.4,0.3,2.4,1.1,3.2s1.7,1.1,2.9,1.1s2.2-0.4,2.9-1.1
			s1.1-1.8,1.1-3.2v-11.1L825.1,248.9L825.1,248.9z"/>
		<path class="st1" d="M848.8,260.6h-14.2c0.1,1.3,0.5,2.2,1.2,2.9s1.6,1,2.7,1c1.6,0,2.7-0.7,3.3-2h6.7c-0.3,1.3-1,2.5-1.8,3.6
			c-0.9,1.1-2,1.9-3.3,2.5c-1.3,0.6-2.8,0.9-4.5,0.9c-2,0-3.8-0.4-5.3-1.3c-1.6-0.9-2.8-2.1-3.7-3.7c-0.9-1.6-1.3-3.5-1.3-5.6
			s0.4-4,1.3-5.6c0.9-1.6,2.1-2.8,3.7-3.7c1.6-0.9,3.4-1.3,5.4-1.3s3.7,0.4,5.3,1.2s2.7,2,3.6,3.6s1.3,3.3,1.3,5.4
			C848.9,259.4,848.8,260,848.8,260.6L848.8,260.6z M842.5,257.1c0-1.1-0.4-1.9-1.1-2.6c-0.7-0.6-1.7-0.9-2.8-0.9s-1.9,0.3-2.7,0.9
			s-1.2,1.5-1.3,2.6H842.5L842.5,257.1z"/>
	</g>
	<g>
		<path class="st1" d="M637.1,304.2l-1.4,6.8h5.2v2.3h-5.7l-1.7,7.8H631l1.7-7.8h-8.1l-1.7,7.8h-2.5l1.7-7.8h-5.8v-2.3h6.3l1.4-6.8
			h-5.7v-2.3h6.2l1.7-8h2.5l-1.7,8h8.1l1.7-8h2.5l-1.7,8h5.3v2.3H637.1L637.1,304.2z M634.6,304.2h-8.1l-1.4,6.8h8.1L634.6,304.2z"
			/>
		<path class="st1" d="M657.1,310c2.5-2.7,3.7-5.3,3.7-7.9c0-1.7-0.4-3-1.3-4c-0.8-1-2.2-1.5-4.1-1.5c-1.9,0-3.3,0.6-4.3,1.7
			c-1,1.2-1.6,2.7-1.7,4.6h-2.5c0.1-2.7,1-4.8,2.5-6.3c1.5-1.5,3.5-2.2,6-2.2c2.5,0,4.3,0.7,5.8,2c1.5,1.3,2.2,3.2,2.2,5.7
			c0,3-1.2,5.8-3.7,8.6c-2.5,2.8-5.5,5.5-9.1,8.1h13.6v2.2h-17.5v-1.8C651.2,315.7,654.6,312.7,657.1,310L657.1,310z"/>
		<path class="st1" d="M667,314.8v-1.9l13.3-18h3v17.7h3.9v2.2h-3.9v6.2h-2.5v-6.2L667,314.8L667,314.8z M681,297.7l-11,14.9h11
			V297.7z"/>
		<path class="st1" d="M692.5,297.9c1.3-2.3,3.6-3.5,7-3.5c3.3,0,5.7,1.2,7,3.5c1.3,2.3,1.9,5.6,1.9,9.8s-0.6,7.6-1.9,9.9
			c-1.3,2.4-3.6,3.5-7,3.5c-3.3,0-5.7-1.2-7-3.5c-1.3-2.4-1.9-5.7-1.9-9.9S691.3,300.2,692.5,297.9L692.5,297.9z M705.4,301.9
			c-0.3-1.6-0.9-2.8-1.9-3.8c-0.9-1-2.3-1.4-4-1.4s-3.1,0.5-4,1.4s-1.5,2.2-1.9,3.8c-0.3,1.6-0.5,3.5-0.5,5.8s0.2,4.3,0.5,5.9
			c0.3,1.6,0.9,2.8,1.9,3.8s2.3,1.4,4,1.4s3.1-0.5,4-1.4c0.9-1,1.5-2.2,1.9-3.8c0.3-1.6,0.5-3.5,0.5-5.9S705.7,303.5,705.4,301.9z"
			/>
		<path class="st1" d="M715.1,297.9c1.3-2.3,3.6-3.5,7-3.5c3.3,0,5.7,1.2,7,3.5c1.3,2.3,1.9,5.6,1.9,9.8s-0.7,7.6-1.9,9.9
			c-1.3,2.4-3.6,3.5-7,3.5c-3.3,0-5.7-1.2-7-3.5c-1.3-2.4-1.9-5.7-1.9-9.9S713.8,300.2,715.1,297.9L715.1,297.9z M728,301.9
			c-0.3-1.6-0.9-2.8-1.9-3.8c-0.9-1-2.3-1.4-4-1.4c-1.8,0-3.1,0.5-4,1.4s-1.5,2.2-1.9,3.8c-0.3,1.6-0.5,3.5-0.5,5.8s0.2,4.3,0.5,5.9
			c0.3,1.6,0.9,2.8,1.9,3.8s2.3,1.4,4,1.4c1.8,0,3.1-0.5,4-1.4c0.9-1,1.5-2.2,1.9-3.8c0.3-1.6,0.5-3.5,0.5-5.9
			S728.3,303.5,728,301.9z"/>
		<path class="st1" d="M750.2,295.4v2.1h-11.3v9.6h9.5v2.1h-9.5v11.8h-2.6v-25.6L750.2,295.4L750.2,295.4z"/>
		<path class="st1" d="M768.2,295.4v2.1h-11.3v9.6h9.5v2.1h-9.5v11.8h-2.6v-25.6L768.2,295.4L768.2,295.4z"/>
	</g>
</g>
<g>
	<rect x="1226" class="st4" width="262" height="350.2"/>
	<g>
		<path d="M1258.9,220.5h8.2v4.8h-14.5v-25.7h6.3V220.5z"/>
		<path d="M1270.6,201.8c-0.7-0.6-1-1.4-1-2.4s0.3-1.8,1-2.4s1.6-1,2.7-1s2,0.3,2.7,1c0.7,0.6,1,1.5,1,2.4s-0.3,1.8-1,2.4
			c-0.7,0.6-1.6,1-2.7,1S1271.3,202.5,1270.6,201.8z M1276.4,204.9v20.4h-6.3v-20.4H1276.4z"/>
		<path d="M1313.1,207c1.5,1.5,2.2,3.7,2.2,6.4v11.9h-6.2v-11.1c0-1.3-0.3-2.3-1-3.1c-0.7-0.7-1.7-1.1-2.9-1.1s-2.2,0.4-2.9,1.1
			s-1,1.7-1,3.1v11.1h-6.2v-11.1c0-1.3-0.3-2.3-1-3.1c-0.7-0.7-1.7-1.1-2.9-1.1s-2.2,0.4-2.9,1.1s-1,1.7-1,3.1v11.1h-6.3v-20.4h6.3
			v2.6c0.6-0.9,1.5-1.5,2.5-2s2.2-0.8,3.5-0.8c1.5,0,2.9,0.3,4.1,1s2.2,1.6,2.8,2.8c0.7-1.1,1.7-2,2.9-2.8c1.2-0.7,2.6-1.1,4-1.1
			C1309.6,204.7,1311.6,205.5,1313.1,207L1313.1,207z"/>
		<path d="M1323.7,224.4c-1.6-0.9-2.9-2.1-3.8-3.7s-1.4-3.4-1.4-5.6s0.5-3.9,1.4-5.6s2.2-2.8,3.8-3.7s3.4-1.3,5.4-1.3
			s3.8,0.4,5.4,1.3c1.6,0.9,2.9,2.1,3.8,3.7c0.9,1.6,1.4,3.4,1.4,5.6s-0.5,3.9-1.4,5.6c-0.9,1.6-2.2,2.8-3.8,3.7
			c-1.6,0.9-3.4,1.3-5.4,1.3S1325.3,225.2,1323.7,224.4L1323.7,224.4z M1332.2,218.9c0.8-0.9,1.3-2.1,1.3-3.8s-0.4-2.9-1.2-3.8
			s-1.8-1.3-3-1.3s-2.2,0.4-3,1.3c-0.8,0.9-1.2,2.1-1.2,3.8s0.4,2.9,1.2,3.8c0.8,0.9,1.8,1.3,3,1.3S1331.3,219.8,1332.2,218.9
			L1332.2,218.9z"/>
		<path d="M1361.3,207c1.4,1.6,2.1,3.7,2.1,6.4v11.9h-6.2v-11.1c0-1.4-0.3-2.4-1.1-3.2s-1.7-1.1-2.9-1.1s-2.2,0.4-2.9,1.1
			s-1.1,1.8-1.1,3.2v11.1h-6.3v-20.4h6.3v2.7c0.6-0.9,1.5-1.6,2.6-2.1s2.3-0.8,3.6-0.8C1358,204.7,1359.9,205.5,1361.3,207
			L1361.3,207z"/>
		<path d="M1367.9,209.6c0.9-1.6,2.1-2.8,3.6-3.7s3.3-1.3,5.3-1.3c2.6,0,4.7,0.7,6.4,2s2.8,3.2,3.4,5.7h-6.7
			c-0.6-1.6-1.7-2.4-3.3-2.4c-1.2,0-2.1,0.4-2.8,1.3s-1,2.2-1,3.8s0.3,2.9,1,3.8c0.7,0.9,1.6,1.3,2.8,1.3c1.6,0,2.7-0.8,3.3-2.4h6.7
			c-0.5,2.4-1.7,4.3-3.4,5.6c-1.7,1.4-3.9,2.1-6.4,2.1c-2,0-3.8-0.4-5.3-1.3s-2.8-2.1-3.6-3.7s-1.3-3.4-1.3-5.6
			S1367,211.1,1367.9,209.6L1367.9,209.6z"/>
		<path d="M1409.2,216.6H1395c0.1,1.3,0.5,2.2,1.2,2.9s1.6,1,2.7,1c1.6,0,2.7-0.7,3.3-2h6.7c-0.3,1.3-1,2.6-1.8,3.6s-2,1.9-3.3,2.5
			s-2.8,0.9-4.5,0.9c-2,0-3.8-0.4-5.3-1.3c-1.6-0.9-2.8-2.1-3.7-3.7s-1.3-3.4-1.3-5.6s0.4-4,1.3-5.6s2.1-2.8,3.7-3.7
			c1.6-0.9,3.4-1.3,5.4-1.3s3.7,0.4,5.3,1.2s2.7,2,3.6,3.6s1.3,3.3,1.3,5.4C1409.3,215.4,1409.3,216,1409.2,216.6L1409.2,216.6z
			 M1402.9,213.2c0-1.1-0.4-1.9-1.1-2.6c-0.7-0.6-1.7-0.9-2.8-0.9s-1.9,0.3-2.7,0.9c-0.7,0.6-1.2,1.5-1.3,2.6H1402.9L1402.9,213.2z"
			/>
		<path d="M1418.9,198.2v27.1h-6.3v-27.1H1418.9z"/>
		<path d="M1429.7,198.2v27.1h-6.3v-27.1H1429.7z"/>
		<path d="M1438.1,224.4c-1.6-0.9-2.9-2.1-3.8-3.7s-1.4-3.4-1.4-5.6s0.5-3.9,1.4-5.6s2.2-2.8,3.8-3.7c1.6-0.9,3.4-1.3,5.4-1.3
			s3.8,0.4,5.4,1.3c1.6,0.9,2.9,2.1,3.8,3.7c0.9,1.6,1.4,3.4,1.4,5.6s-0.5,3.9-1.4,5.6s-2.2,2.8-3.8,3.7c-1.6,0.9-3.4,1.3-5.4,1.3
			S1439.7,225.2,1438.1,224.4L1438.1,224.4z M1446.6,218.9c0.8-0.9,1.3-2.1,1.3-3.8s-0.4-2.9-1.2-3.8s-1.8-1.3-3-1.3s-2.2,0.4-3,1.3
			c-0.8,0.9-1.2,2.1-1.2,3.8s0.4,2.9,1.2,3.8c0.8,0.9,1.8,1.3,3,1.3S1445.8,219.8,1446.6,218.9L1446.6,218.9z"/>
		<path d="M1253.3,249.6c1.1-2,2.6-3.5,4.6-4.7c2-1.1,4.2-1.7,6.7-1.7c3.1,0,5.7,0.8,7.8,2.4c2.2,1.6,3.6,3.8,4.4,6.6h-6.9
			c-0.5-1.1-1.2-1.9-2.2-2.5c-0.9-0.6-2-0.8-3.2-0.8c-1.9,0-3.5,0.7-4.7,2c-1.2,1.3-1.8,3.1-1.8,5.4c0,2.2,0.6,4,1.8,5.4
			c1.2,1.3,2.8,2,4.7,2c1.2,0,2.3-0.3,3.2-0.8s1.7-1.4,2.2-2.5h6.9c-0.7,2.8-2.2,5-4.4,6.6s-4.8,2.4-7.8,2.4c-2.5,0-4.7-0.6-6.7-1.7
			c-2-1.1-3.5-2.7-4.6-4.6s-1.7-4.2-1.7-6.8S1252.2,251.6,1253.3,249.6L1253.3,249.6z"/>
		<path d="M1298.8,251c1.4,1.6,2.1,3.7,2.1,6.4v12h-6.2v-11.1c0-1.4-0.3-2.4-1.1-3.2s-1.7-1.1-2.9-1.1s-2.2,0.4-2.9,1.1
			s-1.1,1.8-1.1,3.2v11.1h-6.3v-27.1h6.3v9.4c0.6-0.9,1.5-1.6,2.6-2.2c1.1-0.5,2.3-0.8,3.7-0.8
			C1295.5,248.7,1297.4,249.5,1298.8,251L1298.8,251z"/>
		<path d="M1305.3,253.6c0.8-1.6,1.9-2.8,3.2-3.7c1.4-0.9,2.9-1.3,4.6-1.3c1.4,0,2.7,0.3,3.8,0.9c1.1,0.6,1.9,1.4,2.5,2.3v-2.9h6.3
			v20.5h-6.3v-2.9c-0.6,1-1.5,1.7-2.6,2.3c-1.1,0.6-2.3,0.9-3.8,0.9c-1.7,0-3.2-0.4-4.6-1.3s-2.4-2.1-3.2-3.7s-1.2-3.5-1.2-5.5
			S1304.5,255.1,1305.3,253.6L1305.3,253.6z M1318.1,255.4c-0.9-0.9-1.9-1.4-3.2-1.4s-2.3,0.4-3.2,1.3c-0.9,0.9-1.3,2.1-1.3,3.7
			s0.4,2.8,1.3,3.7s1.9,1.4,3.2,1.4s2.3-0.5,3.2-1.4c0.9-0.9,1.3-2.1,1.3-3.7S1319,256.3,1318.1,255.4L1318.1,255.4z"/>
		<path d="M1339.2,249.6c1.1-0.6,2.3-1,3.7-1v6.6h-1.7c-1.6,0-2.7,0.3-3.5,1s-1.2,1.9-1.2,3.5v9.5h-6.3v-20.4h6.3v3.4
			C1337.2,251.2,1338.1,250.3,1339.2,249.6L1339.2,249.6z"/>
		<path d="M1357.3,264v5.3h-3.2c-2.3,0-4-0.6-5.3-1.7c-1.3-1.1-1.9-2.9-1.9-5.4v-8.1h-2.5v-5.2h2.5v-5h6.3v5h4.1v5.2h-4.1v8.2
			c0,0.6,0.2,1,0.4,1.3c0.3,0.3,0.8,0.4,1.5,0.4H1357.3z"/>
		<path d="M1369.8,249.6c1.1-0.6,2.3-1,3.7-1v6.6h-1.7c-1.6,0-2.7,0.3-3.5,1s-1.2,1.9-1.2,3.5v9.5h-6.3v-20.4h6.3v3.4
			C1367.8,251.2,1368.7,250.3,1369.8,249.6L1369.8,249.6z"/>
		<path d="M1395.6,260.6h-14.2c0.1,1.3,0.5,2.2,1.2,2.9s1.6,1,2.7,1c1.6,0,2.7-0.7,3.3-2h6.7c-0.3,1.3-1,2.5-1.8,3.6
			c-0.9,1.1-2,1.9-3.3,2.5s-2.8,0.9-4.5,0.9c-2,0-3.8-0.4-5.3-1.3c-1.6-0.9-2.8-2.1-3.7-3.7s-1.3-3.5-1.3-5.6s0.4-4,1.3-5.6
			s2.1-2.8,3.7-3.7c1.6-0.9,3.4-1.3,5.4-1.3s3.7,0.4,5.3,1.2s2.7,2,3.6,3.6s1.3,3.3,1.3,5.4C1395.7,259.4,1395.7,260,1395.6,260.6
			L1395.6,260.6z M1389.3,257.1c0-1.1-0.4-1.9-1.1-2.6c-0.7-0.6-1.7-0.9-2.8-0.9s-1.9,0.3-2.7,0.9c-0.7,0.6-1.2,1.5-1.3,2.6H1389.3
			L1389.3,257.1z"/>
		<path d="M1419.2,248.9v20.5h-6.3v-2.8c-0.6,0.9-1.5,1.6-2.6,2.2c-1.1,0.5-2.3,0.8-3.6,0.8c-1.6,0-2.9-0.4-4.1-1
			c-1.2-0.7-2.1-1.7-2.8-3c-0.7-1.3-1-2.9-1-4.7v-11.9h6.2V260c0,1.4,0.3,2.4,1.1,3.2c0.7,0.8,1.7,1.1,2.9,1.1s2.2-0.4,2.9-1.1
			c0.7-0.8,1.1-1.8,1.1-3.2v-11.1L1419.2,248.9L1419.2,248.9z"/>
		<path d="M1427.3,268.7c-1.4-0.6-2.5-1.5-3.3-2.5s-1.3-2.2-1.4-3.6h6.2c0.1,0.7,0.4,1.3,1,1.7s1.3,0.7,2.2,0.7
			c0.8,0,1.4-0.1,1.8-0.5c0.4-0.3,0.6-0.7,0.6-1.2c0-0.6-0.3-1-0.9-1.3s-1.6-0.6-3-0.9c-1.5-0.3-2.7-0.7-3.7-1.1
			c-1-0.4-1.8-1-2.5-1.8c-0.7-0.8-1.1-1.9-1.1-3.3c0-1.2,0.3-2.2,1-3.2s1.6-1.7,2.9-2.3s2.8-0.8,4.5-0.8c2.6,0,4.6,0.6,6.1,1.9
			s2.3,3,2.6,5.1h-5.8c-0.1-0.7-0.4-1.3-0.9-1.7c-0.5-0.4-1.2-0.6-2.1-0.6c-0.7,0-1.3,0.1-1.7,0.4c-0.4,0.3-0.6,0.7-0.6,1.2
			c0,0.6,0.3,1,0.9,1.3c0.6,0.3,1.6,0.6,2.9,0.9c1.5,0.4,2.8,0.8,3.7,1.1s1.8,1,2.5,1.8s1.1,2,1.1,3.4c0,1.2-0.3,2.3-1,3.2
			s-1.6,1.7-2.9,2.2s-2.7,0.8-4.4,0.8C1430.3,269.7,1428.7,269.4,1427.3,268.7L1427.3,268.7z"/>
		<path d="M1463.4,260.6h-14.2c0.1,1.3,0.5,2.2,1.2,2.9s1.6,1,2.7,1c1.6,0,2.7-0.7,3.3-2h6.7c-0.3,1.3-1,2.5-1.8,3.6
			c-0.9,1.1-2,1.9-3.3,2.5s-2.8,0.9-4.5,0.9c-2,0-3.8-0.4-5.3-1.3c-1.6-0.9-2.8-2.1-3.7-3.7c-0.9-1.6-1.3-3.5-1.3-5.6s0.4-4,1.3-5.6
			c0.9-1.6,2.1-2.8,3.7-3.7c1.6-0.9,3.4-1.3,5.4-1.3s3.7,0.4,5.3,1.2s2.7,2,3.6,3.6s1.3,3.3,1.3,5.4
			C1463.5,259.4,1463.4,260,1463.4,260.6L1463.4,260.6z M1457.1,257.1c0-1.1-0.4-1.9-1.1-2.6s-1.7-0.9-2.8-0.9s-1.9,0.3-2.7,0.9
			c-0.7,0.6-1.2,1.5-1.3,2.6H1457.1L1457.1,257.1z"/>
	</g>
	<g>
		<path d="M1272.5,304.2l-1.4,6.8h5.2v2.3h-5.7l-1.7,7.8h-2.5l1.7-7.8h-8.1l-1.7,7.8h-2.5l1.7-7.8h-5.8v-2.3h6.3l1.4-6.8h-5.7v-2.3
			h6.2l1.7-8h2.5l-1.7,8h8.1l1.7-8h2.5l-1.7,8h5.3v2.3H1272.5L1272.5,304.2z M1270,304.2h-8.1l-1.4,6.8h8.1L1270,304.2z"/>
		<path d="M1292.5,310c2.5-2.7,3.7-5.3,3.7-7.9c0-1.7-0.4-3-1.3-4c-0.8-1-2.2-1.5-4.1-1.5s-3.3,0.6-4.3,1.7c-1,1.2-1.6,2.7-1.7,4.6
			h-2.5c0.2-2.7,1-4.8,2.5-6.3s3.5-2.2,6-2.2s4.3,0.7,5.8,2c1.5,1.3,2.2,3.2,2.2,5.7c0,3-1.2,5.8-3.7,8.6c-2.5,2.8-5.5,5.5-9.1,8.1
			h13.6v2.2H1282v-1.8C1286.5,315.7,1290,312.7,1292.5,310L1292.5,310z"/>
		<path d="M1302.4,314.8v-1.9l13.3-18h3v17.7h3.9v2.2h-3.9v6.2h-2.5v-6.2L1302.4,314.8L1302.4,314.8z M1316.4,297.7l-11,14.9h11
			V297.7z"/>
		<path d="M1327.9,297.9c1.3-2.3,3.6-3.5,7-3.5s5.7,1.2,7,3.5c1.3,2.3,1.9,5.6,1.9,9.8s-0.7,7.6-1.9,9.9c-1.3,2.4-3.6,3.5-7,3.5
			s-5.7-1.2-7-3.5c-1.3-2.4-1.9-5.7-1.9-9.9S1326.6,300.2,1327.9,297.9L1327.9,297.9z M1340.8,301.9c-0.3-1.6-0.9-2.8-1.9-3.8
			c-0.9-1-2.3-1.4-4-1.4s-3.1,0.5-4,1.4s-1.6,2.2-1.9,3.8c-0.3,1.6-0.5,3.5-0.5,5.8s0.2,4.3,0.5,5.9s0.9,2.8,1.9,3.8s2.3,1.4,4,1.4
			s3.1-0.5,4-1.4c0.9-1,1.6-2.2,1.9-3.8c0.3-1.6,0.5-3.5,0.5-5.9S1341.1,303.5,1340.8,301.9z"/>
		<path d="M1350.5,297.9c1.3-2.3,3.6-3.5,7-3.5s5.7,1.2,7,3.5c1.3,2.3,1.9,5.6,1.9,9.8s-0.7,7.6-1.9,9.9c-1.3,2.4-3.6,3.5-7,3.5
			s-5.7-1.2-7-3.5c-1.3-2.4-1.9-5.7-1.9-9.9S1349.2,300.2,1350.5,297.9L1350.5,297.9z M1363.4,301.9c-0.3-1.6-0.9-2.8-1.9-3.8
			s-2.3-1.4-4-1.4s-3.1,0.5-4,1.4s-1.6,2.2-1.9,3.8c-0.3,1.6-0.5,3.5-0.5,5.8s0.2,4.3,0.5,5.9c0.3,1.6,0.9,2.8,1.9,3.8
			s2.3,1.4,4,1.4s3.1-0.5,4-1.4s1.6-2.2,1.9-3.8s0.5-3.5,0.5-5.9S1363.7,303.5,1363.4,301.9z"/>
		<path d="M1385.6,295.4v2.1h-11.3v9.6h9.5v2.1h-9.5v11.8h-2.6v-25.6L1385.6,295.4L1385.6,295.4z"/>
		<path d="M1403.6,295.4v2.1h-11.3v9.6h9.5v2.1h-9.5v11.8h-2.6v-25.6L1403.6,295.4L1403.6,295.4z"/>
	</g>
</g>
</svg>
