<?xml version="1.0" encoding="UTF-8"?><svg id="Layer_1" xmlns="http://www.w3.org/2000/svg" viewBox="0 0 2372.48 1080"><defs><style>.cls-1{fill:none;stroke:#000;stroke-miterlimit:10;stroke-width:37.58px;}.cls-2{stroke-width:0px;}</style></defs><circle class="cls-1" cx="614.16" cy="411.56" r="235.53"/><line class="cls-1" x1="614.16" y1="647.09" x2="614.16" y2="176.03"/><line class="cls-1" x1="520.62" y1="627.72" x2="707.7" y2="195.4"/><ellipse class="cls-1" cx="614.16" cy="411.56" rx="235.53" ry="60.33"/><ellipse class="cls-1" cx="614.16" cy="411.56" rx="60.33" ry="235.53" transform="translate(-7.46 811.76) rotate(-66.6)"/><path class="cls-2" d="m178.26,783.43c0-7.9,2.05-15.11,6.15-21.63,4.1-6.51,10.32-11.71,18.66-15.59,8.34-3.88,18.59-5.82,30.74-5.82s22.36,1.94,30.63,5.82c8.27,3.88,14.45,9.08,18.55,15.59,4.1,6.51,6.15,13.72,6.15,21.63s-1.87,14.79-5.6,20.64c-3.73,5.86-8.75,10.47-15.04,13.83,7.9,3.81,13.98,9.04,18.22,15.7,4.24,6.66,6.37,14.46,6.37,23.38,0,10.4-2.63,19.36-7.9,26.9-5.27,7.54-12.41,13.28-21.41,17.24-9,3.95-18.99,5.93-29.97,5.93s-20.97-1.98-29.97-5.93c-9-3.95-16.14-9.7-21.41-17.24-5.27-7.54-7.9-16.5-7.9-26.9,0-9.07,2.12-16.94,6.37-23.6,4.24-6.66,10.24-11.82,18-15.48-13.76-7.32-20.64-18.81-20.64-34.47Zm38.86,56.32c-4.25,3.73-6.37,8.89-6.37,15.48,0,6.15,2.09,11.2,6.26,15.15s9.77,5.93,16.8,5.93,12.55-1.98,16.58-5.93c4.02-3.95,6.04-9,6.04-15.15s-2.09-11.56-6.26-15.37c-4.17-3.8-9.63-5.71-16.36-5.71s-12.44,1.87-16.69,5.6Zm30.41-64.55c-3.44-3.29-8.01-4.94-13.72-4.94s-10.29,1.68-13.72,5.05c-3.44,3.37-5.16,8.05-5.16,14.05s1.76,10.21,5.27,13.5c3.51,3.29,8.05,4.94,13.61,4.94s10.1-1.68,13.61-5.05c3.51-3.37,5.27-7.9,5.27-13.61,0-6-1.72-10.65-5.16-13.94Z"/><path class="cls-2" d="m364.78,809.34c4.75-9.51,11.23-16.83,19.43-21.96,8.2-5.12,17.35-7.68,27.45-7.68,8.64,0,16.21,1.76,22.73,5.27,6.51,3.51,11.53,8.12,15.04,13.83v-17.35h37.55v122.52h-37.55v-17.35c-3.66,5.71-8.75,10.32-15.26,13.83-6.51,3.51-14.09,5.27-22.73,5.27-9.96,0-19.03-2.6-27.23-7.79-8.2-5.19-14.68-12.59-19.43-22.18-4.76-9.59-7.14-20.67-7.14-33.26s2.38-23.64,7.14-33.15Zm76.85,11.2c-5.2-5.41-11.53-8.12-18.99-8.12s-13.8,2.67-18.99,8.01c-5.2,5.34-7.79,12.7-7.79,22.07s2.6,16.8,7.79,22.29c5.19,5.49,11.53,8.23,18.99,8.23s13.79-2.71,18.99-8.12c5.19-5.41,7.79-12.81,7.79-22.18s-2.6-16.76-7.79-22.18Z"/><path class="cls-2" d="m566.89,784.96c6.59-3.51,14.12-5.27,22.62-5.27,10.1,0,19.25,2.56,27.45,7.68,8.2,5.13,14.67,12.44,19.43,21.96,4.75,9.52,7.14,20.57,7.14,33.15s-2.38,23.68-7.14,33.26c-4.76,9.59-11.24,16.98-19.43,22.18-8.2,5.2-17.35,7.79-27.45,7.79-8.64,0-16.18-1.72-22.62-5.16-6.44-3.44-11.49-8.01-15.15-13.72v17.13h-37.55v-162.48h37.55v57.31c3.51-5.71,8.56-10.32,15.15-13.83Zm30.63,35.46c-5.2-5.34-11.6-8.01-19.21-8.01s-13.8,2.71-18.99,8.12c-5.2,5.42-7.79,12.81-7.79,22.18s2.6,16.76,7.79,22.18c5.19,5.42,11.53,8.12,18.99,8.12s13.83-2.74,19.1-8.23,7.9-12.92,7.9-22.29-2.6-16.72-7.79-22.07Z"/><path class="cls-2" d="m686.66,898.04c-9.59-5.12-17.13-12.44-22.62-21.96-5.49-9.51-8.23-20.64-8.23-33.37s2.78-23.68,8.34-33.26c5.56-9.58,13.17-16.94,22.83-22.07,9.66-5.12,20.49-7.68,32.5-7.68s22.83,2.56,32.5,7.68c9.66,5.13,17.27,12.48,22.83,22.07,5.56,9.59,8.34,20.68,8.34,33.26s-2.82,23.68-8.45,33.26c-5.64,9.59-13.32,16.94-23.05,22.07-9.74,5.13-20.6,7.69-32.61,7.69s-22.8-2.56-32.39-7.69Zm50.72-32.71c5.05-5.27,7.58-12.81,7.58-22.62s-2.45-17.35-7.36-22.62c-4.91-5.27-10.94-7.9-18.11-7.9s-13.39,2.6-18.22,7.79c-4.83,5.2-7.25,12.77-7.25,22.73s2.38,17.35,7.14,22.62c4.75,5.27,10.72,7.9,17.89,7.9s13.28-2.63,18.33-7.9Z"/><path class="cls-2" d="m858.25,868.84l26.57-87.39h39.96l-43.47,122.52h-46.33l-43.47-122.52h40.18l26.57,87.39Z"/><path class="cls-2" d="m1055.42,851.71h-84.97c.58,7.61,3.04,13.43,7.36,17.46,4.32,4.03,9.62,6.04,15.92,6.04,9.37,0,15.88-3.95,19.54-11.86h39.96c-2.05,8.05-5.75,15.3-11.09,21.74-5.35,6.44-12.04,11.49-20.09,15.15-8.05,3.66-17.05,5.49-27.01,5.49-12,0-22.69-2.56-32.06-7.69-9.37-5.12-16.69-12.44-21.96-21.96-5.27-9.51-7.9-20.64-7.9-33.37s2.6-23.86,7.79-33.37c5.19-9.51,12.48-16.83,21.85-21.96,9.37-5.12,20.12-7.68,32.28-7.68s22.4,2.49,31.62,7.46c9.22,4.98,16.43,12.08,21.63,21.3,5.19,9.22,7.79,19.98,7.79,32.28,0,3.51-.22,7.17-.66,10.98Zm-37.77-20.86c0-6.44-2.2-11.56-6.59-15.37-4.39-3.8-9.88-5.71-16.47-5.71s-11.6,1.83-15.92,5.49c-4.32,3.66-6.99,8.86-8.01,15.59h46.99Z"/><path class="cls-2" d="m1363.56,812.98c3.69-2.96,3.7-8.62.1-11.69-10.23-8.71-15.7-22.29-15.7-34.74,0-29.94,15.44-53.58,57.68-53.58,44.76,0,55.42,17.93,57.93,46.82,1.17,13.45-8.28,31.74-15.1,40.87-3.68,4.93-4.74,9.43-.32,13.72,6.44,6.24,19.58,12.22,19.58,36.96,0,32.78-15.76,52.63-62.09,52.63-38.77,0-58.62-22.38-58.62-52.95-1.53-17.15,7.49-30.79,16.55-38.04Zm58.15-47.05c0-17.34-7.25-26.48-26.79-26.48-11.66,0-20.49,9.77-20.49,26.16,0,18.28,9.45,27.11,25.21,27.11,17.97,0,22.06-11.35,22.06-26.79Zm19.23,86.04c0-17.65-6.3-28.37-24.27-28.37s-22.69,10.09-22.69,28.37c0,16.7,8.82,25.84,24.58,25.84s22.38-10.4,22.38-25.84Z"/><path class="cls-2" d="m1628.79,875.2c-.1,11.37.04,24.99-21.39,27.37-65.38,7.27-82.95-14.76-82.95-42.5s23.01-42.23,65.87-38.45c2.52.32,3.47-.32,3.47-1.89-.63-10.72-4.44-15.86-18.94-15.86-4.94,0-14.18,2.89-18.94,5.1-5.58,2.6-12.22,1.49-16.57-2.87-6.25-6.27-8.22-12.86-10.17-18.58-2.43-7.13,1.04-14.98,8.02-17.83,10.11-4.12,22.09-7.63,33.9-7.63,38.14,0,49.87,17.68,55.47,62.09,2.22,17.62,2.36,34.98,2.22,51.06Zm-26.33-19.88c-.02-6.87-5.23-12.63-12.07-13.31-11-1.09-25.6.83-25.6,18.7,0,8.82,6.62,14.5,20.8,14.5,3.21,0,5.75-.1,7.92-.33,5.07-.54,8.9-4.83,8.93-9.92.02-3.06.02-6.47,0-9.63Z"/><path class="cls-2" d="m1746.97,831.79c0,47.59-27.42,72.18-77.53,72.18-.5,0-1.06-.03-1.67-.09-14.36-1.39-25.23-13.65-25.44-28.08-.55-38.57-1.62-117.78-1.62-151.29,0-9.08,4.34-21.3,18.07-21.3h9.22c13.32-.01,16.45,15.75,16.42,24.86-.03,9.81-.04,18.85,0,27,.04,6.65,4.98,12.3,11.58,13.08,38.06,4.45,50.96,31.69,50.96,63.66Zm-80.37,11.56c0,9.98,8.09,18.06,18.06,18.06h0c18.54,0,31.11-11.66,31.11-34.98s-12.61-34.67-35.93-34.67c-.05,0-.11,0-.16,0-11.63,0-13.08,5.99-13.08,13.23v38.36Z"/><path class="cls-2" d="m1755.17,833.68c0-44.76,21.43-74.07,55.16-74.07,38.14,0,58.31,22.38,58.31,65.87s-15.76,78.48-57.99,78.48c-37.19,0-55.47-21.43-55.47-70.29Zm71.86-3.15c0-27.42-10.72-39.08-24.27-39.08-14.81,0-24.27,15.44-24.27,45.07s10.4,44.44,24.58,44.44c15.13,0,23.95-13.87,23.95-50.43Z"/><path class="cls-2" d="m1975.34,748.3c5.19,1.12,6.7,6.96,5.36,12.1-7.29,27.91-28.54,108.85-34.97,128.75-1.2,3.71-2.69,14.82-11.25,14.82-4.55,0-10.56-.11-14.78-.05-10.42.14-15.11-16.52-16.95-21.9-7.53-22-20.26-66.13-31.68-97.9-3.87-10.77,3.68-15.11,7.95-16.63,6.8-2.42,10.88-2.95,17.53-3.87,9.33-1.29,12.38,5.46,14.19,10.88,5.81,17.41,16.85,50.5,22.12,66.39.5,1.51,2.65,1.46,3.08-.07,5.9-20.95,16.06-63.24,21.16-82.77,2.33-8.93,3.84-12.3,10.51-11.42,1.12.15,5.05,1.1,7.75,1.68Z"/><path class="cls-2" d="m2040.41,903.97c-37.19,0-64.3-23.01-64.3-72.49,0-43.18,26.79-69.34,58.62-69.34s49.48,17.97,49.48,47.91c0,5.25-.42,11.07-1.63,16.97-1.36,6.62-6.79,11.69-13.47,12.7-15.22,2.31-38.11-1.45-53.34-1.32-10.06.08-13.78,13.32-5.26,18.66,5.2,3.27,12.53,6.1,22.34,5.3,12.2-1,19.87-9.07,29.63-8.19,9.34.83,12.38,16.26,15.62,28.59,1.88,7.14-6.15,15.49-13.26,17.51-8.12,2.3-15.08,3.7-24.43,3.7Zm9.58-87.67c6.99,0,9.8-3.19,9.31-6.83-.94-6.88-4.73-16.45-18.58-16.45-8.37,0-18.66,3.34-21.3,13.82-.92,3.65.41,8.39,5.04,9.31,6.19,1.24,18.15.14,25.53.14Z"/><path class="cls-2" d="m1722.13,643.43c-147.61.13-265.65-88.62-275.53-241.17-2.41-34.19.18-69.07,10.86-101.86,35.98-110.8,143.59-153.12,252.44-149.6,136.57,2.08,282.2,84.67,278.66,236.42-2.47,175.15-92.55,258.3-266.43,256.21h0Zm0-32.99c145.94-1.24,222.33-61.67,224.44-212.01.08-7.39.17-14.97-.3-22.36-7.44-117.66-133.38-172.07-237.92-174.42-87.63-3.46-179.51,23.1-213.7,111.86-15.87,41.34-17.07,88.23-8.29,131.56,24.03,114.67,125.05,167.18,235.76,165.36h0Z"/><path class="cls-2" d="m1680.09,500c-32.34-14.08-63.58-30.81-94.37-48.12-39.17-23.01-87.88-53.21-113.35-91.64-13.95-21.03-18.28-48.41-.77-69.05,48.74-55.56,213.31,7.98,271.29,32.47,65.5,27.92,129.34,64.84,181.42,114.59,19.55,19.74,47.48,51.15,32.33,81.03-9.87,20.19-29.38,32.01-50.77,35.57-62.34,10.61-167.34-29.96-225.78-54.85h0Zm13.1-30.28c51.52,21.44,168.61,75.79,219.81,51.55,7.16-3.59,12.13-9.19,14.94-16.43.08-.21.24-.55.21-.55.12-.56.15-1.08.03-2.01-9.51-36.1-110.26-85.16-144.88-102.4-60.5-29.38-122.43-59.76-186.79-79.16-25.38-7.27-51.7-13.94-77.9-12.16-14.39,1.43-27.48,5.41-23.14,22.53,2.46,8.98,7.59,16.77,13.54,24.23,10.18,12.56,22.29,23.27,35.22,33.41,44.51,34.54,97.22,59.11,148.96,81.01h0Z"/><path class="cls-2" d="m1595.71,600.7c28.21-49.89,54.87-101.72,79.38-153.53,11.81-26.27,21.4-53.62,34.49-79.33,12.99-25.71,26.3-51.26,39.88-76.67,15.79-29.46,32.26-59.27,49.19-88.14,2.45-4.14,4.9-8.29,7.42-12.4,0,0,16.89,8.33,16.89,8.33-2.92,7.59-7.62,19.1-10.78,26.8-22.17,53.19-46.1,105.72-71.01,157.66-12.43,26.04-28.27,50.3-41.92,75.67-8.87,16.69-17.4,34.56-25.66,51.57-16.4,34.18-33.19,69.97-47.76,104.9,0,0-30.11-14.84-30.11-14.84h0Z"/></svg>