<?xml version="1.0" encoding="UTF-8"?><svg xmlns="http://www.w3.org/2000/svg" xmlns:xlink="http://www.w3.org/1999/xlink" viewBox="0 0 2372.48 1080"><defs><style>.cls-1{clip-path:url(#clippath);}.cls-2{fill:none;}.cls-2,.cls-3,.cls-4,.cls-5,.cls-6{stroke-width:0px;}.cls-3{fill:url(#radial-gradient);}.cls-4{filter:url(#outer-glow-1);}.cls-4,.cls-6{fill:#fff;}.cls-7{mix-blend-mode:lighten;}.cls-8{clip-path:url(#clippath-1);}.cls-9{mix-blend-mode:difference;}.cls-10{isolation:isolate;}</style><filter id="outer-glow-1" filterUnits="userSpaceOnUse"><feOffset dx="0" dy="0"/><feGaussianBlur result="blur" stdDeviation="21.24"/><feFlood flood-color="#fff" flood-opacity="1"/><feComposite in2="blur" operator="in"/><feComposite in="SourceGraphic"/></filter><clipPath id="clippath"><circle class="cls-2" cx="324.08" cy="606.8" r="144.39"/></clipPath><radialGradient id="radial-gradient" cx="323.57" cy="688.52" fx="323.57" fy="688.52" r="447.01" gradientUnits="userSpaceOnUse"><stop offset=".34" stop-color="#000"/><stop offset=".47" stop-color="#fff"/></radialGradient><clipPath id="clippath-1"><circle class="cls-2" cx="1432.22" cy="609.96" r="143.74"/></clipPath></defs><g class="cls-10"><g id="Layer_1"><rect class="cls-5" x="-101.63" y="-36" width="2607.59" height="1200.54"/><circle class="cls-4" cx="324.08" cy="441.94" r="119.85"/><path class="cls-6" d="m606.69,606.8c-1.95-4.46-2.79-8.64-3.35-14.22h-.84c-6.97,9.76-18.4,17.84-34.85,17.84-22.31,0-35.69-17.01-35.69-36.25v-3.07c0-21.47,12.27-35.69,31.51-44.89,7.25-3.62,25.37-11.71,36.53-17.01v-9.48c0-12.55-5.02-21.19-19.8-21.19-12.55,0-17.29,8.92-17.29,20.63,0,3.07.28,6.97,1.12,10.87l-25.09,1.95c-.84-5.3-1.39-12.55-1.39-17.29,0-22.58,16.45-39.87,44.61-39.87,34.3,0,47.96,17.01,47.96,49.07v84.2c0,6.13.84,13.94,2.51,18.68h-25.93Zm-6.69-74.72l-21.19,10.87c-8.36,4.18-16.73,12.83-16.73,23.7v1.67c0,11.43,5.02,18.12,17.29,18.12s20.63-10.04,20.63-22.86v-31.51Z"/><path class="cls-6" d="m754.46,569.16c0,23.42-17.01,41.27-40.15,41.27-20.35,0-29.28-7.53-37.92-18.68h-.56l-6.41,15.06h-14.22v-209.4h30.11v74.17h.28c7.53-10.6,18.12-16.73,35.13-16.73,18.96,0,33.74,15.33,33.74,38.76v75.56Zm-29.83-65.8c0-11.99-4.46-24.26-18.4-24.26s-20.91,13.94-20.91,25.65v60.23c0,11.99,7.25,22.58,20.91,22.58,12.27,0,18.4-10.59,18.4-21.47v-62.74Z"/><path class="cls-6" d="m875.19,561.91c0,30.67-20.35,48.24-49.63,48.24s-49.91-16.45-49.91-48.24v-58.83c0-31.51,21.47-48.24,49.91-48.24s49.63,15.89,49.63,48.24v58.83Zm-30.11-58.27c0-14.5-7.81-23.14-19.52-23.14s-20.08,8.64-20.08,23.42v56.88c0,14.22,8.36,23.42,20.35,23.42s19.24-10.32,19.24-23.42v-57.16Z"/><path class="cls-6" d="m995.64,458.75l-36.25,148.06h-33.74l-36.53-148.06h32.06l22.31,102.89h1.39l22.31-102.89h28.44Z"/><path class="cls-6" d="m1103.54,536.82h-64.13v26.49c0,13.38,5.3,22.86,20.35,22.86,13.38,0,17.57-7.25,17.57-20.08,0-4.46-.56-8.09-1.12-11.15l24.54-1.67c.84,3.9,1.67,10.32,1.67,17.29,0,23.98-13.94,39.59-43.22,39.59-32.62,0-49.63-15.06-49.63-46.56v-59.11c0-33.74,16.45-49.63,49.07-49.63,28.72,0,45.45,15.89,45.45,52.7,0,8.92,0,20.91-.56,29.28Zm-44.61-58.83c-12.55,0-19.52,9.48-19.52,22.31v14.22h36.8c0-5.86.28-8.92.28-13.38,0-13.66-4.46-23.14-17.57-23.14Z"/><circle class="cls-5" cx="324.08" cy="606.8" r="138.48"/><g class="cls-9"><g class="cls-1"><g id="QqMo9n"><path class="cls-6" d="m76.15,364.91c0,.09.04.22,0,.26-.33.31-.64.61-.54,1.13.03.17,0,.36,0,.54v537.14c-.18,0-.36,0-.54-.01,0,0,0-.17,0-.26V364.91h1.08Z"/><path class="cls-6" d="m152.63,656.61c0-.99-.01-1.97,0-2.96,0-.31-.13-.51-.34-.67-.16-.13-.22-.26-.22-.45,0-2.33,0-4.67.02-7,0-.33-.2-.47-.37-.66-.25-.29-.24-.62.01-.92.3-.35.3-.35.11-.57-.11-.13-.25-.26-.3-.41-.05-.16-.01-.36-.01-.53,0-4.94,0-9.87,0-14.81,0-.47.05-.87.45-1.17.09-.07,0-.25-.2-.37-.21-.13-.23-.24-.11-.39.35-.42.34-.43.05-.76-.25-.28-.25-.62.02-.92.17-.2.35-.35.35-.67-.02-2.6-.01-5.2,0-7.81,0-.51-.17-1.08.41-1.45.1-.07.12-.31.12-.48.01-.9-.04-1.8.02-2.69.05-.76-.32-1.61.44-2.24.06-.05.08-.15.09-.23.01-.27,0-.54,0-.81,0-.72-.01-1.44,0-2.15.01-.6-.19-1.26.47-1.7.09-.06.06-.33.06-.5,0-1.08,0-2.15,0-3.23.21-.36.66-.58.55-1.13-.07-.35-.01-.72-.01-1.07,0-.45.03-.9,0-1.35-.03-.33.2-.47.37-.66.06-.07.17-.13.17-.19.01-.72.03-1.44,0-2.15-.02-.4.08-.69.4-.92.15-.11.16-.27.16-.48-.02-.72,0-1.44-.01-2.15-.01-.46,0-.87.42-1.18.1-.08.11-.31.12-.48.04-.44.05-.88.08-1.32.75-.51.39-1.29.46-1.96.03-.26-.11-.6.12-.75.67-.46.35-1.13.42-1.72.08-.67-.25-1.45.52-1.94,0-.45.04-.89,0-1.34-.03-.33.19-.48.38-.65.15-.14.19-.26.18-.47-.02-.45,0-.89,0-1.34.87-.57.46-1.45.51-2.21.02-.4.17-.65.44-.91.21-.2.12-.5.11-.75,0-.27.03-.52.27-.7.07-.05.14-.12.19-.19.04-.07.07-.15.08-.23.08-.67-.28-1.45.49-1.95.02-.44.06-.89.04-1.33-.02-.31.14-.5.35-.67.16-.13.22-.26.21-.46-.02-.36.01-.72-.01-1.08-.02-.21.05-.32.17-.47.38-.46.4-.47.36-.92-.03-.4.1-.68.4-.92.06-.05.13-.13.14-.21.02-.27.02-.54,0-.81-.03-.46.01-.86.42-1.18.22-.17.12-.49.11-.75,0-.28.03-.52.28-.7.24-.17.28-.42.27-.7-.02-.35-.05-.72.3-.95.17-.11.24-.25.24-.44,0-.36.02-.72-.01-1.08-.03-.32.15-.5.35-.67.35-.29.08-.86.56-1.13.37-.21.12-.66.18-.99.02-.09,0-.18,0-.27,0-.33,0-.33.4-.91.23-.35.15-.82.56-1.13.28-.22.06-.67.13-1.01.03-.15.15-.32.27-.42.23-.2.27-.43.26-.7-.02-.35-.04-.72.31-.95.17-.11.25-.25.23-.44-.06-.55-.01-1.07.53-1.4-.05-.38.05-.7.38-.92.17-.11.19-.26.17-.47-.04-.45-.06-.89.4-1.18.15-.1.17-.28.14-.48-.06-.46.02-.87.42-1.18.1-.08.12-.32.1-.48-.05-.48.07-.87.48-1.15.04-.45.18-.84.57-1.11.01-.26.05-.53.03-.79-.01-.2,0-.36.16-.47.32-.23.46-.53.39-.92.18-.19.36-.39.54-.58-.08-.4.11-.68.41-.91.06-.05.12-.14.13-.21.03-.52-.14-1.09.45-1.43.11-.41.15-.86.57-1.11.03-.45.18-.84.57-1.11.01-.26.05-.53.03-.79-.02-.2,0-.36.16-.47.33-.23.46-.53.38-.92.18-.19.36-.39.54-.58-.08-.4.12-.67.41-.91.14-.11.16-.28.13-.48-.06-.46.03-.86.44-1.17.43-.33.79-.72.64-1.35-.05-.2-.01-.37.13-.48.29-.24.49-.51.41-.91.18-.19.36-.39.54-.58-.07-.39.09-.66.37-.93.3-.29.12-.84.57-1.12.28-.18.02-.7.39-.9.37-.2.14-.73.39-.9.58-.37.28-1.23.94-1.51.06-.24-.09-.58.19-.72.5-.24.22-.82.56-1.12.27-.24.53-.49.76-.77.1-.12.13-.32.12-.48-.04-.47.07-.85.45-1.17.32-.27.74-.53.63-1.08.21-.36.69-.59.54-1.12.29-.32.67-.6.55-1.12.21-.27.57-.42.54-.86-.03-.41.35-.64.62-.8.6-.36.28-1.23.94-1.51-.02-.48.21-.82.57-1.11.34-.28.67-.59.57-1.11.21-.26.56-.42.53-.86-.02-.41.35-.64.62-.8.6-.36.28-1.23.94-1.51-.03-.48.21-.82.57-1.11.35-.28.66-.6.57-1.11.22-.26.55-.42.53-.86-.02-.4.39-.56.62-.81.24-.26.52-.48.45-.9-.01-.07.06-.15.11-.22.35-.47,1.06-.72.96-1.49.42-.53,1.16-.85,1.14-1.68,0-.06.13-.12.18-.19.3-.41.92-.61.83-1.27.36-.39.72-.78,1.07-1.17-.13-.54.24-.83.58-1.1.36-.3.54-.66.57-1.11,0-.07.12-.13.18-.19.38-.38.74-.78,1.15-1.14.35-.3.11-.84.55-1.13.44-.3.78-.74,1.15-1.13.24-.25.03-.68.38-.93.29-.21.51-.5.77-.75.04-.91.86-1.27,1.33-1.87.49-.22.2-.82.57-1.12.34-.29.64-.63.96-.94.32-.32.63-.63.95-.95-.13-.66.43-.91.76-1.3.29-.33.58-.66.87-.98-.08-.42.2-.64.46-.89.39-.38.76-.77,1.15-1.14.32-.31.67-.59.57-1.11.38-.38.76-.76,1.14-1.14.32-.32.66-.62.94-.96.09-.11,0-.36.07-.5.06-.14.21-.28.36-.33.94-.35.99-.37,1.25-1.12.03-.08-.02-.21.03-.25.5-.52,1.01-1.02,1.52-1.53.57-.57,1.13-1.15,1.69-1.72-.1-.9.72-1.18,1.18-1.66,2.06-2.13,4.19-4.19,6.25-6.31.47-.49.97-.3,1.47-.32.06,0,.16.11.18.18.04.17.13.41.05.5-.59.66-1.22,1.3-1.84,1.93-.05.05-.16.05-.25.04-.47-.03-.56.23-.61.64-.04.4-.1.4-.51.44-.36.04-.52.16-.55.42-.04.34.17.81-.12,1.01-.56.39-.28,1.23-.93,1.52-.08.03-.12.14-.19.18-.28.18-.74,0-.89.39-.09.23.05.5-.21.73-.53.48-1,1.04-1.54,1.5-.39.34-.47.72-.42,1.18.03.2-.01.35-.14.48-.57.57-1.14,1.15-1.72,1.71-.2.19-.24.42-.32.68-.14.47-.68.79-.53,1.4.04.14-.01.38-.11.48-.26.26-.49.51-.41.91-.18.2-.36.39-.53.59-.44.52-1.17.84-1.14,1.68l-1.52,1.52c.04.49-.22.82-.57,1.12-.05.04-.03.18,0,.26.05.21-.03.33-.18.47-.32.3-.6.64-.9.97.1.67-.52.87-.82,1.28-.1.14-.27.3-.24.43.11.54-.58.65-.56,1.13,0,.09.03.19,0,.27-.12.32-.55.41-.55.86,0,.37-.07.37-.55.84-.51.51-1.02,1.01-1.52,1.53-.05.05-.08.17-.06.24.13.53-.58.64-.54,1.12,0,.09.04.21,0,.26-.16.21-.35.39-.53.59-.18.19-.36.39-.54.59.15.53-.36.75-.54,1.12.18.6-.69.8-.55,1.39.02.06-.05.16-.09.23-.35.48-1.07.71-.98,1.48,0,.06-.11.13-.16.2-.3.42-.86.61-.93,1.24-.06.58-.67.79-.98,1.21-.05.06-.1.16-.08.23.13.53-.54.67-.54,1.12,0,.2,0,.37-.14.48-.3.23-.48.52-.4.91-.18.19-.36.39-.54.58.15.53-.35.75-.52,1.13-.1.22-.03.48-.24.71-.34.37-.86.6-.88,1.25,0,.39-.66.59-.52,1.13.01.06-.07.16-.13.21-.31.23-.47.52-.4.92-.18.19-.36.39-.54.58.13.54-.23.88-.6,1.08-.62.35-.3,1.22-.94,1.51-.06.44-.17.85-.57,1.11.02.48-.21.83-.57,1.11.11.52-.26.8-.55,1.12.08.4-.1.67-.4.91-.28.23,0,.71-.38.92-.36.2-.24.62-.38.92-.63.3-.29,1.21-.95,1.49.03.49-.21.83-.57,1.11.16.67-.41.94-.77,1.29-.29.29-.34.59-.32.95.02.27,0,.52-.24.71-.13.1-.27.27-.28.41-.02.28-.07.5-.29.7-.12.11-.26.29-.25.42.04.43-.38.58-.49.88-.12.31-.04.7-.07,1.05,0,.07-.08.16-.15.2-.32.23-.45.53-.39.92,0,.05-.1.15-.18.19-.51.29-.21,1.04-.76,1.3-.19.37-.12.87-.57,1.12-.06.03-.11.16-.09.22.24.86-.32,1.34-.87,1.79-.33.27-.09.66-.36.94-.42.44-.39.47-.39.91,0,.41,0,.42-.39.91-.12.15-.18.27-.16.48.05.45.04.89-.41,1.18-.06.04-.12.14-.12.21-.02.52.13,1.09-.45,1.43-.1.42-.15.86-.57,1.11-.02.46-.22.8-.56,1.13-.16.15.01.49-.2.72-.4.44-.38.46-.38.91,0,.42.01.43-.39.91-.2.23-.04.57-.2.72-.34.32-.52.68-.56,1.13-.4.28-.52.67-.48,1.15.05.53.09,1.08-.48,1.42,0,.46-.19.84-.57,1.11.01.36-.04.7-.38.92-.18.11-.21.26-.19.47.03.27,0,.54,0,.81,0,.36.02.37-.4.91-.19.25-.12.5-.14.75-.02.26.03.53-.23.72-.22.16-.36.38-.31.68.07.47-.04.88-.45,1.16-.03.26-.09.52-.08.77.01.29-.08.52-.31.68-.25.19-.23.44-.24.71,0,.25.05.51-.13.76-.43.61-.44.63-.4.91.04.38-.03.71-.36.93-.17.11-.19.26-.19.47.02.53-.75.77-.54,1.39.05.16,0,.36,0,.54s-.02.36,0,.54c.06.41-.15.67-.43.91-.06.05-.11.14-.11.22-.01.52.11,1.09-.46,1.43-.03.26-.08.52-.07.77.01.29-.1.5-.31.68-.07.06-.16.12-.19.19-.23.72.3,1.63-.58,2.18,0,.36-.01.71-.02,1.07,0,.45.01.46-.37.92-.12.15-.2.27-.17.47.03.27-.02.54.01.81.05.4-.09.68-.4.92-.15.11-.14.28-.15.48-.06.59.27,1.26-.41,1.72-.1.07-.1.31-.12.48-.04.44-.06.88-.08,1.31-.76.51-.38,1.29-.46,1.96-.03.26.11.59-.12.75-.57.38-.4.94-.41,1.45-.01.54-.05,1.08,0,1.61.05.52-.18.84-.54,1.13,0,.36-.01.71-.01,1.07,0,.43.01.44-.37.92-.12.15-.18.27-.17.47.02.44,0,.89,0,1.34-.55.33-.55.85-.53,1.4.02.54-.01,1.08.01,1.61.02.46-.02.86-.43,1.18-.22.17-.1.5-.12.75-.03.35-.05.7-.08,1.04-.68.42-.4,1.1-.45,1.7-.01.18.02.36,0,.54-.12.84.35,1.79-.49,2.49-.01.44-.06.89-.03,1.33.02.32-.15.5-.35.66-.16.13-.21.26-.2.46.01,1.26,0,2.51.01,3.77,0,.2-.03.34-.18.47-.19.17-.39.32-.38.65.03.8,0,1.61,0,2.41-.77.49-.47,1.26-.51,1.94-.03.63,0,1.26,0,1.88v2.15c0,.09.01.18,0,.27-.08.58.26,1.26-.42,1.72-.1.07-.11.32-.11.48,0,1.97.05,3.95-.03,5.92-.04.92.47,1.97-.43,2.77-.05.05-.07.15-.08.23,0,.36,0,.72,0,1.08,0,6.01,0,12.02,0,18.04,0,.6-.19,1.27.49,1.68.02.43.19.87-.1,1.26-.1.14-.33.25-.35.39-.01.11.2.27.33.37.16.13.18.27.18.47-.02,1.17,0,2.33,0,3.5,0,.18-.06.46.03.51.65.43.5,1.08.51,1.69,0,.54,0,1.08,0,1.62.01.51-.16,1.09.42,1.44.06.04.1.14.11.22.01.27-.04.55.01.81.17.92-.46,1.97.46,2.77.17.79.03,1.6.08,2.39.01.17.02.41.12.48.57.38.4.94.41,1.45.02.63.02,1.26,0,1.88-.02.55,0,1.07.53,1.4,0,.81.02,1.61,0,2.42,0,.21.03.34.18.47.19.17.41.32.38.65-.04.45,0,.9,0,1.35,0,1.26.02,2.51-.01,3.77,0,.4.1.68.41.91.15.11.13.29.15.48.05.59-.26,1.26.41,1.72.1.07.11.32.11.48.01.54-.01,1.08,0,1.61.02.6-.22,1.27.46,1.69.02.44.07.88.07,1.32,0,.3.11.5.31.68.07.06.18.12.18.19.03.62.07,1.25.04,1.87-.03.57.7.75.57,1.4-.12.61,0,1.25-.04,1.88-.02.34.2.47.39.65.14.14.19.27.17.47-.03.27.02.54-.01.81-.05.4.11.68.41.91.14.11.15.28.14.48-.01.26.03.52.05.78.56.33.48.88.5,1.41,0,.14.17.28.26.42.09.14.23.28.25.43.04.36.03.72,0,1.08-.02.3.12.49.31.68.2.18.36.41.58.56.28.21.11.51.21.73.11.23.35.39.52.6.04.06.01.17,0,.26-.03.45-.03.86.4,1.19.27.21.65.43.66.79.01.42.36.6.46.89.14.41.23.81.59,1.11.34.28.72.56.58,1.1.25.25.5.51.76.76.19.19.34.37.32.68-.02.72,0,1.44,0,2.15,0,.18.1.31.25.44.27.24.54.48.76.76.15.2,0,.51.2.72.17.19.4.31.42.63.05.92.07.91.53,1.39.18.19.36.39.54.58-.21.61.65.81.54,1.39-.01.07.02.21.07.23.53.28.34.98.76,1.3.16.12.25.26.25.44,0,.36.02.72,0,1.08-.03.31.12.51.33.67.27.2.13.49.23.72.1.23.38.38.51.6.08.14.01.35.01.53q0,.37.39.92c.05.07.14.13.14.21.03.35-.05.74.07,1.05.12.3.52.45.49.88-.03.38.5.48.52.85.02.27,0,.54,0,.81,0,.08.04.19.1.22.54.27.28,1.01.76,1.31.18.11.23.25.22.45-.02.36.02.72-.01,1.08-.04.33.18.49.37.65.15.13.19.26.18.47-.02.53.74.76.54,1.4-.08.25,0,.53-.01.8,0,.19.07.32.23.44.45.32.22,1.03.76,1.3.03.26.09.52.07.77-.01.29.11.49.3.69.36.37.23,1.02.75,1.31.08.05.04.34.02.51-.05.38.04.7.37.93.07.05.18.14.17.19-.14.54.44.75.51,1.13.07.37.2.64.45.9.1.1.1.32.12.48.03.34-.05.68.27.97.6.54,1.14,1.15,1.73,1.7.24.23.15.49.16.74.01.34-.01.36.41.9.22.29,0,.71.37.93.36.22.32.6.3.95-.01.28.05.5.27.7.39.34.24,1.01.75,1.31.09.05.06.33.05.5-.03.37,0,.71.34.93.18.11.21.26.21.46-.02.9.01,1.8-.02,2.69-.01.34.2.47.39.65.14.14.21.27.16.47-.13.58.14,1.01.54,1.39,0,.27.04.49.23.72.44.52.45.57.02,1.09-.33.4-.22,1.04-.75,1.31.04.06.07.13.11.19.15.2.41.31.4.65-.03.72,0,1.44-.02,2.15,0,.21.06.32.18.47.37.43.38.45.35.92-.03.4.12.68.41.91.06.05.12.14.13.21.03.35,0,.72.08,1.05.06.23.33.4.45.62.08.14.02.37.11.49.29.34.62.64.94.96-.05.49.23.81.57,1.11.2.17.36.39.54.58-.21.62.64.82.54,1.39-.01.08.01.21.06.23.53.28.33.99.76,1.3.35.24.13.67.38.93.25.26.51.51.76.76.25.25.49.52.73.78-.1.78.7.97.97,1.49.19.37.18.85.59,1.1,0,.46.19.84.57,1.11-.07.51.24.81.57,1.11.19.18.36.39.53.58-.2.61.6.81.56,1.39-.03.42.67.59.52,1.12.16.2.32.41.49.61.06.07.13.13.19.19.19.19.38.38.57.57.31.32.61.65.91.97-.1.78.72.95.97,1.48.18.38.19.84.59,1.1-.01.48.2.83.57,1.11-.1.52.2.89.58,1.09.63.34.37,1.14.93,1.52.44.3.77.74,1.15,1.13-.06.85.74,1.13,1.12,1.69-.08.4.11.66.4.92.34.3.61.67.96.94.34.25.15.66.37.93.2.24.53.06.72.2.29.21.53.48.77.75.22.25.6.4.56.85-.04.43.38.56.6.83.22.27.55.46.48.88-.01.07.03.17.09.23.31.32.63.64.95.95.31.31.71.57.57,1.11.32.32.63.64.95.95.32.32.64.63.95.95.36.37.24.99.75,1.32.37.24.64.62.96.93.38.38.76.76,1.14,1.14.08,1,.97,1.41,1.54,2.05.22.25.16.49.17.74.02.42.01.42.39.92.26.34.12.84.56,1.12.37.24.63.63.97.93.19.16.24.26.11.39-.13.13-.28.15-.48.14-.31-.02-.41-.38-.63-.42-.54-.11-.95-.36-1.3-.78-.12-.14-.18-.28-.15-.48.03-.19-.05-.42-.23-.43-.49,0-.82-.23-1.11-.59-.29-.35-.61-.64-1.11-.57-.25-.25-.51-.51-.76-.76.07-.87-.68-1.19-1.15-1.67-1.37-1.42-2.79-2.8-4.18-4.2-.3-.3-.73-.55-.61-1.09-.3-.32-.6-.65-.91-.97-.31-.32-.63-.64-.95-.95-.32-.32-.63-.63-.95-.95-.32-.32-.63-.63-.95-.95.11-.77-.57-1.04-.96-1.48-.35-.41-.76-.77-1.14-1.15.03-.72-.54-1.06-.95-1.49-.37-.39-.8-.73-1.13-1.15-.25-.32-.15-.83-.58-1.11-.29-.19-.52-.5-.77-.75-.32-.32-.63-.64-.95-.95.14-.54-.27-.8-.58-1.11-.32-.32-.63-.63-.95-.95-.2-1.27-1.42-1.74-2.09-2.63-.25-.33-.14-.83-.56-1.13-.33-.24-.74-.51-.68-1.06.01-.13-.17-.29-.28-.41-.31-.33-.61-.66-.96-.95-.31-.25-.41-.55-.37-.93-.45-.51-1.12-.87-1.15-1.68,0-.07-.12-.13-.18-.19-.32-.32-.62-.65-.96-.95-.29-.25-.47-.53-.39-.92-.41-.54-1.15-.85-1.15-1.69,0-.13-.24-.25-.36-.38-.28-.32-.74-.53-.65-1.08-.23-.26-.46-.53-.69-.79-.12-.13-.37-.27-.36-.38.08-.87-.85-1.08-1.09-1.71-.09-.23-.02-.51-.26-.71-.27-.23-.62-.46-.74-.77-.15-.41-.21-.83-.6-1.1.05-.49-.22-.82-.57-1.11-.35-.29-.64-.61-.57-1.11-.32-.32-.65-.62-.94-.96-.1-.11-.07-.33-.11-.49-.1-.41-.68-.59-.54-1.12-.17-.2-.33-.41-.51-.6-.31-.31-.71-.57-.57-1.11-.18-.19-.36-.39-.54-.58.21-.62-.6-.81-.56-1.39.03-.39-.39-.56-.63-.81-.25-.26-.45-.49-.45-.9,0-.34-.57-.44-.51-.85.05-.33-.17-.49-.36-.66-.16-.13-.24-.26-.18-.47.06-.2-.06-.31-.18-.47-.33-.39-.89-.6-.9-1.24,0-.44-.68-.59-.53-1.12-.16-.2-.34-.39-.48-.61-.13-.22.03-.54-.2-.72-.29-.24-.48-.52-.4-.91-.18-.19-.36-.39-.54-.58.14-.54-.28-.79-.58-1.11-.24-.25-.49-.45-.53-.87-.03-.3-.41-.55-.49-.86-.07-.26-.1-.51-.32-.68-.25-.19-.23-.45-.24-.71,0-.25.1-.55-.14-.75-.3-.24-.47-.52-.4-.92-.18-.19-.36-.39-.54-.58.08-.39-.09-.68-.39-.92-.3-.23,0-.71-.38-.92-.36-.2-.18-.7-.4-.9-.37-.32-.35-.78-.57-1.12-.19-.29-.48-.51-.42-.91,0-.06-.09-.14-.14-.21-.39-.55-.42-.56-.39-.91.03-.38-.04-.7-.37-.93-.17-.11-.21-.26-.18-.47.07-.43-.45-.52-.52-.86-.05-.25,0-.52-.25-.71-.13-.1-.28-.27-.29-.41-.03-.52.09-1.08-.48-1.42-.05-.44-.17-.85-.57-1.11.03-.48-.21-.83-.57-1.11.05-.38-.05-.7-.38-.92-.17-.11-.19-.26-.17-.47.04-.44.06-.89-.39-1.18-.06-.04-.12-.13-.13-.21-.08-.42.19-.92-.25-1.24-.34-.24-.17-.7-.39-.91-.36-.34-.5-.71-.44-1.17.04-.3-.09-.52-.31-.68-.26-.19-.15-.48-.25-.71-.09-.23-.37-.38-.5-.6-.08-.14-.02-.35-.02-.53,0-.47,0-.48-.38-.92-.13-.14-.16-.28-.17-.48-.02-.51-.7-.76-.55-1.4.08-.33-.02-.7-.04-1.05-.41-.25-.48-.69-.57-1.11-.42-.28-.49-.69-.46-1.16.01-.16-.02-.4-.12-.47-.43-.31-.45-.74-.4-1.19.02-.2-.04-.33-.15-.48-.4-.51-.39-.52-.39-.91,0-.42,0-.43-.38-.92-.12-.15-.18-.27-.16-.48.05-.45.04-.89-.4-1.18-.15-.1-.16-.28-.13-.48.06-.46-.01-.88-.44-1.16-.03-.26-.09-.51-.09-.77,0-.28-.06-.52-.29-.69-.16-.12-.25-.26-.25-.43,0-.36-.01-.72,0-1.08.01-.2.01-.38-.14-.48-.44-.29-.45-.73-.4-1.18.02-.2-.04-.33-.16-.48-.4-.5-.39-.51-.39-.91,0-.18,0-.36,0-.54,0-.4.02-.42-.39-.91-.2-.25-.13-.5-.15-.75-.02-.26.04-.53-.22-.72-.22-.16-.34-.37-.33-.67.01-.44-.03-.88-.06-1.32-.57-.34-.51-.89-.47-1.42.04-.49-.09-.86-.49-1.15-.02-.44-.07-.88-.05-1.32.01-.31-.13-.49-.33-.68-.07-.06-.17-.12-.18-.19-.15-.74.28-1.63-.57-2.19,0-.36-.03-.72,0-1.08.04-.39-.07-.69-.39-.92-.16-.11-.16-.27-.16-.47,0-.62-.02-1.25-.03-1.87-.68-.4-.48-1.08-.5-1.68-.02-.52.13-1.09-.45-1.43-.19-.52-.05-1.05-.09-1.58-.02-.26.1-.58-.11-.76-.78-.64-.31-1.5-.41-2.25-.04-.29-.13-.5-.34-.67-.16-.13-.22-.26-.22-.45.01-.72-.02-1.44.02-2.15.02-.33-.19-.47-.37-.66-.06-.07-.17-.13-.18-.19-.01-.72-.03-1.44,0-2.15.02-.39-.08-.69-.4-.92-.16-.11-.16-.27-.16-.47.02-.9,0-1.79.01-2.69,0-.45.02-.89-.42-1.18-.06-.04-.12-.14-.12-.22-.01-.45.04-.9-.01-1.34-.09-.76.32-1.61-.44-2.24-.06-.05-.08-.15-.09-.23-.01-.18,0-.36,0-.54,0-.63.01-1.26,0-1.88-.01-.6.19-1.26-.47-1.7-.09-.06-.06-.33-.06-.5,0-1.08,0-2.15,0-3.23Z"/><path class="cls-6" d="m376.71,813.72c0-.18.02-.36,0-.54-.06-.41.23-.62.41-.91.28-.47.85-.2,1.12-.56.24-.32.56-.37.92-.38.07,0,.19-.16.18-.17-.08-.12-.18-.3-.29-.31-.53-.05-1.06-.05-1.59-.08-.07,0-.13-.12-.19-.18.36-.35.57-.89,1.22-.84.45.03.9,0,1.34,0,.51,0,1.17-.66,1.18-1.17,0-.36-.02-.72.01-1.07.02-.15.13-.32.25-.42.12-.11.59.02.72.16.25.26.51.5.76.76.14.14.22.09.39-.1.29-.33.7-.58.56-1.11.19-.19.38-.38.57-.57q.21-.21.57.1c.31.26.67.28.92.03.25-.25.51-.5.76-.76.14-.15.2-.05.39.09.49.36.6.82.57,1.39-.04.62,0,.63-.4,1.18-.11.15-.17.27-.16.48.03.36,0,.72,0,1.07,0,.35-.13.49-.47.5-.27,0-.54.01-.81,0-.07,0-.15-.08-.21-.13-.14-.12-.09-.25.12-.38.19-.12.26-.26.2-.38-.1-.18-.26-.24-.46-.18-.2.06-.32-.05-.46-.19-.34-.33-.34-.3-.57-.12-.45.36-.72.78-.57,1.38.05.21-.02.34-.18.47-.33.27-.55.73-1.09.62-.47.39-1.05.7-.89,1.47.02.09.03.19,0,.27-.07.15-.18.28-.27.41-.09-.14-.23-.28-.25-.43-.04-.26.02-.54-.03-.8-.03-.14-.19-.35-.31-.36-.44-.04-.89,0-1.34-.02-.19,0-.31.07-.45.22-.29.32-.71.57-.58,1.11q-.52.92-.54,1.39c-.01.37-.34.62-.72.5-.14-.04-.33-.2-.35-.33-.05-.35-.02-.71-.02-1.07Z"/><path class="cls-6" d="m411.18,766.12c-.15.42-.16.41-.55.83-.16.17-.26.24-.38.12-.37-.37-.8-.71-1.11-1.13-.41-.55-.95-.3-1.45-.35-.06,0-.14.1-.19.17-.29.47-.75.36-1.17.36,0-.18-.02-.36,0-.54.04-.21-.01-.35-.19-.46-.34-.22-.39-.56-.35-.93.03-.26-.03-.51.22-.72.41-.35.77-.74,1.16-1.12.55.07.85-.12.79-.72,0-.07.07-.15.12-.21.06-.06.14-.14.21-.14.63-.01,1.26,0,1.88,0,.19,0,.31-.09.44-.24.3-.32.67-.57.57-1.12-.06-.35,0-.72-.02-1.07,0-.07-.12-.18-.18-.18-.69-.03-1.12-.44-1.4-1-.11-.21-.02-.52-.28-.69-.67.15-.91-.44-1.29-.77-.02-.01.03-.13.07-.18.12-.13.32-.24.35-.39.02-.1-.19-.25-.3-.37-.06-.07-.17-.13-.18-.19-.02-.36-.04-.72.02-1.07.02-.11.26-.22.41-.26.28-.07.67.13.63.31-.19.82.22,1.36.81,1.82.44.34.21.82.29,1.23.03.14.18.25.28.37.06-.06.12-.13.19-.19.35-.32.34-.31.57-.08.32.31.68.58.58,1.11,0,.05.12.12.18.19.25.25.51.5.76.76.22.23.17.53-.14.92-.3.38-.26.47.3.53.19.02.41.04.43.23.06.53.1,1.07.04,1.59-.02.21-.32.4-.49.6.13.66-.42.92-.76,1.3-.13.14-.6.1-.72-.05-.05-.07-.15-.16-.14-.2.19-.62-.58-.81-.58-1.39,0-.43-.12-.44-.61-.05-.15.12-.27.19-.48.16-.18-.03-.36,0-.54,0-.2-.02-.39.03-.43.23-.02.11.14.3.26.37.38.22.05.68.37.94.35.28.64.63.96.94.25.25.5.51.77.75.05.04.17,0,.26,0Z"/><path class="cls-6" d="m268.17,531.32c-.32.06-.63-.02-.89-.34-.22-.28-.5-.51-.75-.76q-.23-.23.08-.57c.06-.07.13-.13.19-.19-.12-.1-.23-.26-.36-.28-.26-.05-.53,0-.8-.02-.37-.02-.62-.48-.42-.8.09-.15.23-.27.37-.38.19-.14.19-.28-.06-.37-.15-.06-.39-.12-.5-.05-.29.19-.56.43-.78.69-.26.3-.54.43-.93.37-.17-.03-.36,0-.54,0-.09,0-.24.03-.26,0-.08-.2.01-.33.17-.46.33-.27.55-.72,1.09-.61.64-.61,1.28-1.23,1.92-1.84.01-.35.02-.7.05-1.05.01-.2.4-.4.62-.34.08.02.2.01.24.07.26.41.71.42,1.1.58.23.09.42.34.57.56.3.43.72.45,1.17.42.46-.04.62.21.6.63,0,.18.12.29.24.44.27.32.23.32.01.57-.3.34-.63.58-1.11.57-.14,0-.32.6-.23.7.3.33.6.65.91.96.26.27.24.36-.29.42-.42.05-.61.17-.64.62-.03.42-.13.46-.48.47-.09,0-.18,0-.32,0Z"/><path class="cls-6" d="m486.38,720.83c.16.2.31.43.5.6.18.16.25.26.12.39-.38.38-.75.78-1.15,1.13-.11.09-.34.03-.49.1-.14.06-.35.22-.33.29.05.19.23.27.42.24.31-.05.51.13.66.34.16.22.24.23.39.03.26-.34.71-.54.65-1.09-.01-.12.19-.28.3-.4q.48-.52.95-.03.28.29-.06.76c-.22.3-.19.51.13.92.24.3.26.32,0,.56-.18.16-.25.26-.12.39.13.13.3.23.37.39.07.15.06.35.04.52-.03.21-.35.35-.64.31-.28-.04-.4-.18-.43-.54-.03-.36-.14-.5-.43-.54-.3-.04-.58.09-.64.32-.04.17.04.42-.05.51-.35.33-.61.61-.06.97.03.02.03.15,0,.18-.26.24-.49.48-.46.9,0,.11-.19.33-.32.34-.51.07-1.09-.15-1.44.44-.02.04-.15.06-.18.03-.32-.31-.61-.66-.96-.94-.46-.37-.07-.53.13-.77.09-.1-.03-.22-.18-.38-.34-.38-.36-.67-.13-.91.25-.26.49-.52.76-.76.16-.14.21-.26.19-.47-.03-.36-.04-.72,0-1.07.03-.33-.19-.73.18-1,.33-.23.37-.56.39-.92,0-.07.11-.16.18-.18.17-.04.34-.05.52-.05q.6-.03,1.2-.59Zm-1.49,6.69c-.06-.06-.15-.18-.17-.17-.19.1-.25.23-.18.35.04.07.15.18.17.17.19-.1.24-.23.18-.35Z"/><path class="cls-6" d="m408.49,789.82c0,.09,0,.18,0,.27q0,.59-.68.81c-.33.11-.41.21-.39.57.02.4.01.4.45.51.08.02.18-.02.27,0,.3.08.35.28.13.5-.19.19-.35.41-.58.55-.13.08-.45.09-.51.01-.5-.74-1.25-.51-1.93-.52-.2,0-.33-.03-.46-.2-.09-.13-.27-.31-.37-.29-.15.04-.26.23-.38.35-.06.06-.13.13-.19.19-.26.27-.28.64-.03.91.12.13.24.25.36.38-.19.19-.38.38-.57.57-.29.27-1.11.32-1.45.09-.59-.4-.59-.4-.9-.4-.27,0-.53,0-.8,0-.51,0-.74-.4-.5-.88.04-.08.13-.19.18-.18.38.04.69-.06.91-.38.11-.17.26-.2.47-.17.26.03.54-.02.8.01.39.05.65-.11.92-.39.25-.27.48-.5.42-.91,0-.06.09-.14.14-.2.53-.72.56-.77.02-1.28-.18-.17-.22-.28.03-.38.23-.09.54-.06.71-.21.28-.23.5-.44.91-.42.36.02.69,0,.94.34.1.14.25.25.37.38.37.39.37.39.92.37.27,0,.53,0,.8,0Z"/><path class="cls-6" d="m418.45,787.12h-.54c-.36,0-.76.1-1.06-.03-.31-.13-.52-.47-.77-.73-.19-.19-.38-.3-.67-.34-.51-.08-.55-.18-.29-.41.31-.29.53-.74,1.07-.65.39-.22.68-.53.91-.9-.1-.54.36-.75.63-1.08.13-.16.26-.18.47-.18.44.01.86-.04,1.19.39.25.32.66.11,1,.15.34.04.44.08.46.49.02.3.12.49.39.59.08.03.18-.01.27,0,.53.14.53.15.26.45-.4.44-.98.75-.97,1.48,0,.18-.24.26-.43.22-.2-.05-.34.02-.48.16-.18.18-.3.44-.64.39-.26-.04-.54,0-.8,0Z"/><path class="cls-6" d="m430.34,812.44c.36,0,.72.03,1.07,0,.55-.05.83.14.79.73,0,.13.17.3.31.4.21.15.25.26.05.39-.33.22-.45.53-.38.92.07.39-.08.66-.37.93-.27.24-.5.44-.9.44-.31,0-.48.63-.28.85.24.26.5.51.76.76.26.26.27.27-.06.57-.19.18-.39.34-.6.49-.06.04-.18.03-.26,0-.42-.13-.97-.76-.97-1.11,0-.63,0-1.25,0-1.88,0-.09,0-.18,0-.27,0-.27-.01-.53-.02-.8-.37-.28-.58-.63-.58-1.11,0-.06-.11-.17-.18-.18-.17-.04-.35-.02-.52-.04-.25-.02-.58.12-.73-.16-.16-.3.2-.39.34-.56.16-.2.33-.39.65-.37.62.03,1.25.01,1.88.01Z"/><path class="cls-6" d="m469.61,779.05c.27,0,.53,0,.8,0,.43,0,.53.11.56.66.02.34-.08.71.27.95.2.13.27.27.15.38-.25.24-.52.47-.78.7-.66-.11-.86.51-1.27.81-.13.1-.28.25-.42.26-.44.03-.9-.05-1.33.03-.64.11-.96-.3-1.33-.67-.13-.13-.17-.27-.15-.48.02-.35,0-.71,0-1.07,0-.34.03-.42.47-.48.29-.04.48-.15.67-.34.25-.25.46-.6.77-.73.3-.13.7-.03,1.06-.03h.53Z"/><path class="cls-6" d="m464.22,772.03c-.14-.14-.28-.25-.39-.39-.3-.42-.9-.59-.94-1.21-.04-.61-.66-.78-.95-1.21-.04-.05-.08-.14-.06-.18.04-.08.11-.14.18-.19.22-.18.28-.4.3-.68.04-.95.06-.95,1.07-.95.09,0,.18,0,.27,0,.68,0,.68,0,1.65.54.54-.13.79.29,1.09.59.28.27.31.65.06.91-.12.13-.34.25-.35.38,0,.12.21.27.35.37.19.14.19.29-.06.37-.32.1-.67.06-.92.38-.22.28-.49.51-.75.76-.18.18-.37.35-.55.52Z"/><path class="cls-6" d="m543.69,784.92c.03.3-.15.58-.36.59-.52.02-1.06,0-1.57.06-.82.11-.82.14-1.13-.16-.06-.06-.14-.12-.19-.19-.11-.16-.25-.25-.43-.25-.8,0-1.6.01-2.39-.01-.13,0-.32-.16-.38-.29-.06-.15-.07-.39.01-.51.21-.28.46-.54.74-.75.32-.25.26-.61.37-.91.09-.25.22-.23.38-.05.16.18.3.39.64.4.34,0,.45-.24.64-.4.16-.12.62-.24.72-.14.29.35.63.58,1.1.56.06,0,.17.11.18.18.03.26.04.52.05.78.02.47.13.59.61.61.18,0,.35,0,.53,0,.35.02.45.12.47.48Z"/><path class="cls-6" d="m488.19,729.21c.04-.27.07-.44.1-.6.06-.31.06-.32.57.19.13.13.25.25.38.38.06.06.13.12.19.19.12.13.28.17.48.13.5-.09,1.06.2,1.51-.23.12-.12.26-.28.41-.29.53-.03,1.07.02,1.6-.02.41-.03.63.21.89.44.3.26.4.54.37.92-.04.55,0,.54.37.91.25.26.49.45.89.44.28,0,.33.27.11.49-.19.19-.35.42-.58.55-.13.08-.42.09-.51,0-.33-.3-.61-.6-1.12-.56-.16.01-.24-.23-.25-.41-.02-.42.12-.87-.3-1.21-.32-.26-.29-.29-.95-.04-.16.06-.33.08-.49.09q-.4.03-1.14.47c-.19.12-.56.08-.73-.04-.47-.36-.71-1.05-1.47-.97-.06,0-.17-.09-.19-.16-.06-.25-.1-.5-.13-.66Z"/><path class="cls-6" d="m390.87,802.74c.6,0,1.05.06,1.48-.01.74-.14,1.15.29,1.53.78.09.11.12.39.05.49-.29.4-.54.9-1.16.9-.38,0-.48.5-.84.53-.27.02-.53.03-.68.28-.22.35-.71.13-.89.38-.39.54-.91.42-1.42.42-.29,0-.53-.56-.35-.82.19-.27.55-.42.52-.85-.03-.41.38-.55.6-.81.4-.47.83-.91,1.17-1.29Z"/><path class="cls-6" d="m340.99,720.88c-.89,0-1.78.01-2.66-.01-.14,0-.29-.16-.41-.27-.56-.52-.56-.53-.53-1.38.01-.34.15-.48.47-.49.18,0,.36,0,.53,0,.54.03,1.06.04,1.39-.5.53-.01,1.06-.03,1.58-.03.07,0,.14.08.21.13.14.12.06.22-.11.38-.44.42-.43.42-1.1.56-.07.01-.14.11-.18.19-.02.04,0,.14.02.18.05.07.12.15.2.16.25.03.48,0,.72.21.58.53.69.51,1.27-.08.17-.18.46-.3.39-.64-.05-.2,0-.36.18-.46.12-.07.24,0,.38.18.16.2.45.37.5.59.08.33.01.7-.01,1.05,0,.07-.12.18-.18.18-.88.04-1.76.06-2.64.08v-.02Z"/><path class="cls-6" d="m324.51,681.57c-.27,0-.54-.05-.8,0-.66.14-.93-.37-1.3-.72-.15-.14-.15-.59-.02-.72.06-.06.13-.13.19-.19.44-.44.9-.86,1.31-1.32.27-.31.6-.3.95-.3.27,0,.5.03.7.26.23.27.47.54.75.75.44.33.33.77.33,1.2,0,.35-.7,1.03-1.03,1.03-.35,0-.71,0-1.06,0Z"/><path class="cls-6" d="m403.64,752.25c.03.36.05.79-.4,1.08-.15.1-.17.27-.15.47.02.17,0,.35,0,.53.01.19-.06.33-.23.44-.35.23-.33.58-.32.93,0,.26.03.49.24.71.3.31.27.34.04.56-.19.18-.38.36-.58.54-.11.09-.69-.08-.7-.21-.04-.45-.2-.82-.56-1.11-.12-.1-.03-.55.1-.71.16-.2.42-.3.4-.64-.03-.62.04-1.25-.02-1.86-.05-.51.19-.83.54-1.11.33-.27.53-.7.99-.83.19-.05.63.14.64.32,0,.09,0,.18,0,.27v.62Z"/><path class="cls-6" d="m371.32,815.06c0-.36,0-.72,0-1.08,0-.19.12-.29.23-.45.35-.5.81-.63,1.39-.57.32.03.53.17.54.43,0,.45-.03.9.01,1.34.03.28.26.39.57.4.35,0,.61.42.49.73-.11.27-.34.32-.62.35-.4.05-.4.09-.45.5-.05.38-.17.55-.4.56-.18,0-.36,0-.54,0-.54-.01-1.21-.64-1.21-1.14,0-.36,0-.72,0-1.08Z"/><path class="cls-6" d="m323.38,481.24c0,.09.04.22,0,.26-.34.3-.61.62-.57,1.12.01.16-.59.34-.7.24-.96-.93-1.92-1.87-2.87-2.8-.05-.05-.14-.15-.12-.18.09-.18.25-.27.43-.24.2.03.35,0,.48-.14.12-.13.24-.33.38-.36.11-.02.27.19.37.33.21.27.49.14.74.17.25.03.51-.06.73.2.35.41.76.76,1.13,1.15.04.05,0,.17,0,.26Z"/><path class="cls-6" d="m442.21,803.32c.14.09.2.22.11.34-.11.16-.26.18-.47.17-.62-.02-1.24,0-1.86,0-.06,0-.13.12-.19.18s-.12.13-.19.19q-.17.14-.94-.63c-.13-.13-.25-.25-.38-.38-.13-.12-.26-.6-.18-.72.16-.24.41-.31.68-.27.48.07.85-.09,1.14-.47.11-.14.25-.25.37-.38.06-.06.12-.13.19-.19.2-.17.78.03.83.32.05.25.02.51.25.7.13.1.27.26.28.41.03.27.04.52.34.72Z"/><path class="cls-6" d="m479.91,721.96c.26,0,.53-.05.71.22.23.35.58.3.94.33.41.03.66-.17.9-.44.03-.04.14-.05.18-.02.07.04.18.12.18.18.02.44.04.89,0,1.34-.03.34.23.45.38.65.05.06.15.15.13.18-.09.18-.24.26-.42.25-.54-.03-1.03,0-1.41.49-.19.25-.8-.02-.82-.32,0-.09-.02-.18,0-.27.18-.76-.37-1.12-.84-1.5-.11-.09-.35,0-.52-.03-.19-.04-.34-.42-.25-.68.05-.14.18-.3.32-.36.15-.06.35-.01.53-.01Z"/><path class="cls-6" d="m410.26,812.33c-.07-.07.13.12.3.31.02.03-.01.13-.05.18-.05.06-.13.15-.2.15-.44.01-.88.02-1.33,0-.2,0-.32.05-.45.21-.23.27-.49.51-.75.75-.21.2-.47.15-.72.06-.27-.1-.29-.62-.04-.9.06-.07.13-.12.19-.19.25-.28.25-.63,0-.91-.5-.57-.5-.76.03-1.28.06-.06.13-.13.19-.19.06-.06.12-.13.19-.19.22-.17.79.01.84.31.05.25-.01.52.25.7.63-.1.91.4,1.54,1Z"/><path class="cls-6" d="m413.84,817.28c-.74.19-1.15-.3-1.54-.78-.09-.11-.11-.4-.03-.5.33-.41.71-.78,1.08-1.16.28-.28,1.08-.4,1.44-.13.28.21.5.43.9.43.29,0,.48.64.29.84-.31.32-.63.63-.94.94-.35.36-.35.37-.92.35-.09,0-.18,0-.27,0Z"/><path class="cls-6" d="m479.05,753.97c.02.61.02.61-.64.85-.15.06-.31.14-.42.26-.15.17-.3.27-.38.17-.3-.41-.7-.5-1.16-.43-.3.04-.51-.1-.67-.31-.12-.16-.25-.24-.44-.23-.44.03-.62-.19-.61-.62.01-.3-.27-.42-.43-.62-.03-.04-.05-.14-.02-.18.04-.07.13-.19.18-.18.42.07.88-.21,1.26.17.25.25.51.5.75.76.14.15.23.12.39-.09.1-.13.26-.28.4-.3.35-.04.71-.02,1.06-.01.67,0,.71.05.72.77Z"/><path class="cls-6" d="m428.95,793.05c0,.27.01.53,0,.8,0,.07-.11.14-.18.19-.33.22-.39.55-.37.91-.37.36-1.03.21-1.29.75-.06-.04-.14-.07-.19-.12-.22-.26-.02-.69-.37-.92-.22-.15-.38-.37-.57-.56-.21-.21-.23-.23.07-.56.13-.15.25-.26.22-.45-.05-.31.1-.54.37-.58.44-.05.89-.02,1.33-.01.18,0,.32-.08.43-.25.12-.19.26-.26.38-.2.19.09.22.25.19.46-.03.17,0,.35,0,.53Z"/><path class="cls-6" d="m397.35,793.59c-.18,0-.36-.02-.53,0-.4.06-.63-.18-.89-.42-.28-.26-.45-.52-.38-.9-.18-.19-.4-.36-.53-.58-.14-.24-.01-.35.25-.26.6-.5.79-.56,1.36-.55.2,0,.32.05.46.19.55.57,1.13,1.11,1.66,1.7.09.1.07.36.01.5-.06.13-.23.28-.37.29-.35.04-.7.01-1.05.01Z"/><path class="cls-6" d="m420.38,804.59c-.74.74-1.43,1.42-2.1,2.12-.1.1-.05.33-.09.49-.1.33-.2.4-.56.4-.26,0-.53,0-.79,0-.16,0-.36-.54-.26-.68.15-.21.29-.43.48-.59.41-.36.74-.75.59-1.35-.07-.3.18-.45.32-.66.35-.54.87-.51,1.4-.46.15.01.29.15.42.25.21.16.4.34.59.51Z"/><path class="cls-6" d="m461.27,718.93c0,.36.03.72-.02,1.07-.02.13-.22.32-.34.32-.52.02-1.07.15-1.44-.42-.14-.22-.35-.41-.57-.57-.45-.32-.32-.79-.32-1.21,0-.32.08-.41.49-.46.19-.02.35-.02.47-.17.12-.14.25-.35.38-.35.13,0,.24.24.38.35.97.79.98.78.97,1.44Z"/><path class="cls-6" d="m520.52,782.54c-.13-.65.43-.9.76-1.28.01-.02.13.03.18.07.55.4.55.42.89.4.36-.02.69,0,.93.33.1.14.25.25.37.38.14.15.16.58.02.72-.25.25-.47.54-.77.71-.2.11-.48-.02-.71.22-.33.34-.36.31-.55.11-.31-.31-.63-.62-.94-.94-.18-.18-.18-.18-.18-.72Z"/><path class="cls-6" d="m256.59,529.44c-.25.25-.49.52-.76.75-.26.22-.39.63-.81.59-.44-.04-.57.36-.85.52-.13.08-.35.04-.52.02-.07,0-.13-.1-.2-.16-.19-.19-.38-.37-.56-.56-.13-.14-.11-.57.03-.72.36-.36.66-.83,1.28-.75.33-.55.85-.52,1.39-.5.18,0,.31.09.43.24.17.2.37.38.56.57Z"/><path class="cls-6" d="m400.14,626.1c-.74-.74-1.48-1.48-2.22-2.22-.24-.24-.2-.39.19-.46.26-.05.51-.05.68-.28.25-.35.61-.25.95-.27.28-.02.48.09.68.28.32.31.63.61.53,1.12-.03.17-.03.36,0,.53.06.39-.1.67-.4.9-.14.11-.25.25-.41.41Z"/><path class="cls-6" d="m469.1,789.82c.23.03.6-.13.7.19.15.49.27,1.03-.2,1.45-.39.35-.68.81-1.17,1.06-.15.07-.71-.11-.68-.27.1-.54-.29-.79-.58-1.11-.21-.23-.45-.21-.71-.24-.19-.03-.32-.19-.28-.31.07-.19.24-.23.44-.22.43.01.9.12,1.2-.35.05-.07.12-.18.19-.18.36-.02.71,0,1.09,0Z"/><path class="cls-6" d="m412.11,787.66c.16,0,.27-.03.33,0,.13.09.3.19.35.33.05.15.06.39-.03.5-.34.4-.76.74-1.1,1.13-.22.25-.47.2-.72.18-.37-.02-.66.05-.92.35-.25.29-.63.28-.89.03-.13-.12-.24-.25-.38-.37-.34-.29-.35-.33-.08-.46.29-.14.67-.03.91-.35.21-.28.46-.54.75-.74.19-.13.56-.05.69-.21.33-.38.71-.46,1.09-.4Z"/><path class="cls-6" d="m393.4,632.84c0,.27-.03.54,0,.79.05.34-.21.46-.37.65-.23.27-.47.46-.88.46-.31,0-.36.24-.15.47.31.34.31.34.07.56-.19.18-.35.41-.57.55-.13.08-.35.03-.52.01-.26-.03-.25-.19,0-.55.1-.13.22-.28.24-.43.04-.26,0-.53.01-.79,0-.25-.11-.59.12-.74.42-.28.32-.78.56-1.1.26-.35.62-.62.92-.95.15-.16.26-.25.38-.18.18.1.21.25.18.46-.03.26,0,.53,0,.8Z"/><path class="cls-6" d="m316.36,684.55c-.19.19-.37.37-.56.56q-.19.19-.56-.11c-.07-.06-.13-.18-.19-.18-.51.08-.8-.24-1.1-.56-.21-.22-.24-.23.03-.56.12-.15.19-.27.25-.43.32-.94.62-1.17,1.42-1.17.26,0,.53,0,.79,0,.19,0,.34.05.43.23.02.04-.05.13-.1.18-.25.25-.5.5-.75.75-.25.25-.24.63,0,.91.11.12.22.25.33.37Z"/><path class="cls-6" d="m361.83,685.88c-.36.09-.61-.11-.87-.38-.25-.26-.48-.5-.42-.9,0-.06-.07-.15-.14-.2-.3-.23-.47-.51-.39-.9-.18-.19-.4-.36-.52-.58-.08-.13-.03-.35-.01-.52.03-.26.16-.26.55.01.07.05.13.18.19.18.82,0,1.14.71,1.66,1.13.33.26.29.61.28.95-.01.27.03.52.27.68.19.13.25.25.16.38-.11.16-.26.21-.47.17-.08-.02-.18,0-.31,0Z"/><path class="cls-6" d="m263.89,561.48c-.36,0-.72,0-1.08,0-.07,0-.15-.1-.19-.17-.03-.05-.03-.17,0-.18.62-.31.29-1.22.95-1.5-.06-.5.24-.8.56-1.12.17-.16.26-.25.39-.15.16.12.2.27.16.47-.04.19.05.32.22.45.21.16.35.37.33.67-.03.36,0,.72,0,1.08,0,.29-.19.45-.51.45-.27,0-.54,0-.81,0Z"/><path class="cls-6" d="m401.26,821.55c-.06-.04-.13-.06-.19-.11-.2-.15-.3-.42-.63-.4-.44.03-.89.03-1.32,0-.19-.02-.29-.2-.24-.32.03-.08.11-.17.18-.18.65-.15.7-.11.89-.38.24-.35.69,0,.93-.35.19-.29.48-.51.74-.76.25-.24.51-.46.78-.67.05-.04.18-.03.26,0,.15.07.29.16.43.25-.05.06-.1.12-.15.19-.16.19-.43.31-.37.64.1.56-.05,1.02-.55,1.37-.28.2-.51.49-.76.74Z"/><path class="cls-6" d="m453.69,804.04c.2-.17.42-.33.6-.52.14-.14.26-.25.44-.25.63,0,1.26,0,1.88,0,.2,0,.36.27.36.61,0,.18,0,.36,0,.54-.01.31-.08.43-.49.45-.32.02-.47.19-.66.37-.29.26-.67.26-.92,0-.38-.38-.76-.76-1.2-1.2Z"/><path class="cls-6" d="m432.59,771.63c-.04-.18-.55-.22-.24-.53.26-.27.58-.18.91.13.06.06.13.13.19.19.13.13.25.25.38.38.37.37.66.37,1.1-.08.18-.18.26-.24.39-.05.05.07.17.12.18.19.05.27.58.02.47.46-.06.24.1.53-.19.73-.15.1-.25.25-.38.37-.29.27-1.19.35-1.45.1-.25-.24-.66-.44-.65-.79,0-.55-.42-.74-.7-1.1Z"/><path class="cls-6" d="m404.38,611.02c-.35,0-.53,0-.71,0-.36,0-.54-.06-.54-.39-.01-.41-.24-.62-.47-.88-.16-.19-.13-.57.02-.72.37-.38.75-.76,1.13-1.13.04-.04.14-.06.18-.04.19.09.21.24.21.45-.02.62-.01,1.24,0,1.86,0,.07.09.15.16.19.05.03.15.05.18.03.26-.24.52-.48.75-.75.16-.19.25-.24.38-.11.13.13.18.28.14.48-.02.08,0,.2-.05.24-.44.4-.74,1.09-1.37.77Z"/><path class="cls-6" d="m408.22,772.58c-.35-.35-.66-.66-.97-.97-.5-.5-.53-.77,0-1.25.16-.15,0-.58.43-.47.17.04.35,0,.52,0,.25.02.52-.1.72.16.21.27.55.42.64.78.02.08.03.19,0,.26-.07.15-.16.29-.27.41-.35.37-.71.72-1.07,1.08Z"/><path class="cls-6" d="m342.97,683.19c-.27,0-.54,0-.81,0-.19,0-.34-.06-.44-.24-.09-.15-.02-.59.12-.73.13-.12.26-.25.38-.38.23-.24.23-.24.57.03.38.3.7.38.9.08.4-.57.96-.34,1.47-.38.18-.01.4.49.29.66-.14.22-.3.42-.47.61-.17.2-.35.37-.67.34-.45-.03-.9,0-1.34,0Z"/><path class="cls-6" d="m474.74,768.81c0-.18.02-.36,0-.53-.03-.21,0-.42.19-.44.55-.06.92-.37,1.29-.75.61-.63.79-.61,1.47.09.06.06.13.12.19.19.05.07.09.14.1.22.02.08.03.18,0,.26-.14.42-.77.96-1.1.96-.71,0-1.42,0-2.13,0Z"/><path class="cls-6" d="m491.44,806.27c.12.66-.44.91-.79,1.28-.09.09-.39.11-.5.03-.29-.2-.54-.46-.78-.72-.16-.18-.13-1.09.03-1.26.24-.25.5-.5.79-.69.11-.07.35-.01.5.06.15.08.26.25.39.37.38.36.38.36.36.93Z"/><path class="cls-6" d="m403.64,809.63c0,.56-.12.63-.81.66-.38.02-.68-.05-.9-.37-.11-.17-.25-.18-.45-.19-.37-.01-.51-.15-.53-.4,0-.09-.02-.18,0-.26.15-.43.5-.7.85-.92.18-.12.51.01.77-.03.34-.05.46.21.63.38.46.45.45.45.44,1.12Z"/><path class="cls-6" d="m474.2,770.85c0,.26.03.53-.01.78-.02.15-.17.27-.26.41-.38.64-1.01.57-1.61.53-.07,0-.16-.1-.18-.17-.12-.49-.26-.99.17-1.42.31-.31.62-.62.93-.93.12-.12.6-.24.71-.14.12.11.21.26.25.41.04.16,0,.35,0,.52Z"/><path class="cls-6" d="m485.8,751.04c.33-.06.64.02.86.35.11.17.25.19.45.2.42.04.65.34.56.64-.13.45-.51.69-.83.95-.16.13-.51,0-.77.03-.33.05-.44-.21-.64-.36-.39-.28-.49-.66-.46-1.12.04-.61.09-.68.84-.68Z"/><path class="cls-6" d="m445.65,770.96c0-.26-.01-.53,0-.79,0-.07.1-.14.17-.18.04-.03.14-.03.18,0,.2.15.32.44.61.43.62,0,.88.49,1.16.89.12.18.02.51.02.78,0,.33-.15.49-.45.49-.44,0-.88.02-1.32-.01-.13-.01-.35-.18-.36-.29-.04-.43-.02-.88-.02-1.32Z"/><path class="cls-6" d="m545.83,796.56c-.12-.13-.22-.27-.35-.37-.21-.15-.22-.28.03-.38.15-.06.37-.12.49-.06.22.11.4.33.6.48.34.24.33.58.32.94,0,.26,0,.51-.24.7-.27.23-.53.48-.75.75-.25.3-.55.44-.91.32-.28-.09-.37-1.16-.13-1.44.06-.07.12-.13.19-.19.25-.25.5-.5.75-.75Z"/><path class="cls-6" d="m385.65,575.52c.24.42.65.5,1.08.58.2.04.25.24.2.44-.08.33.19.46.36.65.24.28.24.65-.01.91-.06.06-.13.13-.19.19-.42.42-.42.43-.75.1-.63-.63-.64-.61-1.29-.76-.22-.05-.27-.26-.16-.36.26-.24.48-.48.44-.89-.03-.25-.09-.53.12-.74.05-.05.12-.07.2-.11Z"/><path class="cls-6" d="m538.84,779.3c0-.35,0-.7,0-1.05,0-.16.47-.35.66-.28.43.15.67.53.94.85.08.1.08.43,0,.49-.81.58-.43,1.42-.53,2.16,0,.07-.11.14-.18.18-.04.02-.14.02-.18-.02-.13-.11-.25-.24-.37-.37-.18-.18-.37-.34-.34-.65.03-.44,0-.87,0-1.31Z"/><path class="cls-6" d="m425.72,806.77c.02.56-.02.54-.34.91-.32.36-.67.49-1.13.46-.6-.04-.67-.11-.68-.8,0-.56.04-.52.34-.91.39-.51.89-.45,1.4-.44.26,0,.42.22.41.53,0,.09,0,.18,0,.26Z"/><path class="cls-6" d="m428.64,782.23c.5.5.93.93,1.45,1.45-.45.41-.9.82-1.35,1.22-.12.11-.58.08-.72-.06-.19-.18-.37-.37-.56-.56-.13-.13-.09-.24.12-.38.07-.05.16-.11.18-.19.08-.23.07-.51.2-.71.18-.29.45-.53.67-.79Z"/><path class="cls-6" d="m398.54,787.68c.14.14.26.26.39.39.13.13.33.24.35.38.02.1-.18.27-.31.37-.17.13-.2.26-.19.47.03.44.01.89,0,1.34,0,.16-.52.35-.69.27-.4-.2-.68-.53-.92-.89-.04-.06-.01-.18,0-.26,0-.08,0-.21.06-.24.53-.28.36-.95.75-1.3.19-.17.37-.35.56-.52Z"/><path class="cls-6" d="m339.15,682.11c.17,0,.35,0,.52,0,.24.01.41.17.39.53-.01.33.22.45.38.64.24.3.26,1.27,0,1.42-.14.08-.34.13-.48.09-.42-.12-.92-.67-.95-1.07-.02-.19-.02-.34-.2-.45-.33-.21-.43-.53-.34-.89.05-.19.26-.26.67-.26Z"/><path class="cls-6" d="m439.9,790.9c-.62,0-.7-.14-.73-.85-.02-.4.13-.67.42-.91.14-.11.24-.3.39-.36.15-.07.41-.1.51-.02.41.34.78.74,1.16,1.11.23.23.18.38-.16.49-.16.05-.41,0-.49.09-.32.38-.69.53-1.1.45Z"/><path class="cls-6" d="m503.29,730.19c0,.17,0,.35,0,.52,0,.32-.54.6-.79.4-.33-.27-.57-.65-1.1-.55-.06.01-.22-.25-.25-.39-.03-.15,0-.4.09-.47.4-.27.4-.71.54-1.1.09-.23.21-.2.37.02.15.2.32.36.64.36.37,0,.5.16.5.42,0,.26,0,.52,0,.79Z"/><path class="cls-6" d="m253.25,543.87c-.6-.32-.4-.9-.43-1.41.23-.26.44-.53.68-.78.21-.22.49-.12.74-.13.17,0,.34.02.51.04.13.02.32.59.22.7-.3.32-.58.66-.9.95-.25.22-.14.48-.17.73,0,.09.03.24,0,.25-.19.08-.34,0-.45-.17-.04-.07-.12-.13-.19-.19Z"/><path class="cls-6" d="m446.98,822.7c.12.1.24.22.37.32.4.29.47.68.47,1.15,0,.42-.29.6-.49.87-.35.46-.52.1-.77-.1-.12-.09-.32-.08-.48-.12-.08-.02-.16-.05-.23-.08-.11-.04-.27-.64-.19-.72.44-.44.89-.88,1.33-1.32Z"/><path class="cls-6" d="m371.32,657.61c0-.44-.02-.46.39-.91.21-.23.11-.49.18-.73.05-.16.58-.34.71-.24.27.23.53.46.78.71.16.16.16.57,0,.72-.36.37-.67.84-1.3.76-.77.4-.77.4-.76-.32Z"/><path class="cls-6" d="m450.74,772.08c-.42-.44-.86-.88-1.26-1.34-.09-.11-.12-.38-.04-.49.19-.29.45-.53.69-.78.03-.04.15-.05.18-.02.38.37.76.74,1.13,1.12.23.23.19.61-.09.91-.18.19-.38.38-.61.61Z"/><path class="cls-6" d="m442.68,768.82c.3.28.55.62,1.07.54.55-.08.56-.02.9.33.12.13.25.24.37.37.03.03.02.13,0,.18-.04.07-.12.17-.19.17-.87.01-1.75.02-2.62,0-.11,0-.27-.21-.31-.34-.05-.15-.04-.38.05-.49.21-.27.48-.5.74-.76Z"/><path class="cls-6" d="m382.47,825.36c.26,0,.53,0,.79,0,.3,0,.44.15.46.49.02.32-.09.5-.36.58-.08.02-.17,0-.26,0-.18,0-.28.12-.43.23-.6.46-.68.44-1.27-.13-.12-.12-.3-.23-.36-.38s-.07-.37,0-.51c.06-.13.24-.26.39-.28.35-.04.7-.01,1.05-.01Z"/><path class="cls-6" d="m365.66,483.39c.15.15.28.28.41.41.13.13.33.24.35.38.02.1-.18.26-.31.37-.35.29-.14.66-.17,1-.04.32-.16.51-.43.53-.09,0-.19.03-.27,0-.41-.19-.7-.51-.91-.89-.07-.12,0-.34.05-.5.02-.07.12-.13.18-.19.37-.37.74-.74,1.11-1.11Z"/><path class="cls-6" d="m420.1,681.03c.06,0,.36-.04.56.08.29.18.53.46.74.74.08.11.07.36,0,.51-.06.13-.25.27-.39.28-.51.03-1.03.1-1.41-.42-.11-.15-.46-.11-.69-.2-.2-.07-.22-.24-.2-.44.03-.3.18-.54.41-.54.09,0,.18,0,.26,0h.72Z"/><path class="cls-6" d="m288.88,501.16c-.2.04-.35-.03-.44-.21-.02-.04.03-.13.07-.18.35-.47,1.06-.72.94-1.48.25-.25.5-.51.76-.76.12-.12.59-.06.73.08.13.13.19.61.08.73-.25.26-.49.52-.76.75-.22.19-.24.43-.28.69-.05.32-.21.39-.56.39-.18,0-.36,0-.54,0Z"/><path class="cls-6" d="m225.89,616.78c0,.24.03.53-.25.66-.07.03-.27-.18-.36-.31-.13-.17-.26-.25-.46-.18-.2.06-.38,0-.45-.19-.09-.23-.1-.5-.2-.72-.07-.15-.24-.26-.37-.38.15-.19.29-.39.46-.56.29-.31.3-.3.56-.03.25.25.51.5.76.76q.33.34.32.96Z"/><path class="cls-6" d="m461.27,793.92c.03-.25-.09-.53.14-.74.26-.23.43-.58.8-.66.42-.1.63.22.88.47q.34.34.1.57c-.32.31-.63.63-.95.95-.06.06-.14.11-.2.16-.11.09-.7-.09-.71-.22-.02-.17-.03-.35-.05-.53Z"/><path class="cls-6" d="m426.78,788.49c.21-.21.39-.41.59-.58.12-.1.27-.23.42-.24.43-.03.87-.03,1.3,0,.14.01.3.14.4.26.1.12-.05.65-.16.7-.07.03-.15.09-.22.09-.27,0-.47.08-.68.25-.52.42-.69.4-1.07.03-.06-.06-.12-.13-.18-.18-.13-.11-.26-.23-.38-.34Z"/><path class="cls-6" d="m387.7,795.74c.58-.02.58-.02.93.34.25.25.5.51.76.76q.25.24-.08.57-.48.49-.95.03c-.13-.13-.27-.24-.37-.38-.19-.25-.45-.21-.7-.25-.26-.04-.38-.29-.35-.6.03-.34.14-.45.5-.46.09,0,.18,0,.27,0Z"/><path class="cls-6" d="m405.5,786.59c-.69,0-.69,0-.31-.75.07-.14.04-.33.07-.49.02-.08.06-.15.11-.21.05-.06.12-.15.19-.16.61-.05,1.2-.08,1.61.54.19.29.23.25-.05.56-.3.33-.6.61-1.1.51-.17-.03-.35,0-.52,0Z"/><path class="cls-6" d="m422.89,802.2c-.18,0-.36.04-.52-.01-.15-.04-.33-.15-.39-.28-.07-.14-.09-.4,0-.51.21-.28.44-.6.74-.73.38-.17.86-.21,1.23.04.35.23.13.65.16.98.03.31-.16.51-.42.52-.26,0-.53,0-.79,0Z"/><path class="cls-6" d="m396.1,619.94c-.03.23.09.5-.18.7-.33.24-.52.7-1.05.62-.17-.03-.36.03-.52-.01-.15-.04-.33-.15-.39-.27-.07-.14-.09-.42,0-.5.36-.33.57-.88,1.21-.85.13,0,.3-.15.4-.27.15-.17.25-.24.38-.15.16.11.21.26.16.46-.02.08,0,.17,0,.27Z"/><path class="cls-6" d="m417.78,792.51c.17,0,.36-.03.52,0,.15.04.34.14.4.26.07.14.09.39,0,.5-.2.28-.46.51-.71.75-.14.14-.56.14-.71,0-.25-.24-.51-.48-.71-.76-.08-.11-.06-.36.01-.5.07-.12.25-.23.4-.26.26-.04.52-.01.78-.01Z"/><path class="cls-6" d="m339.83,492.55c.09,0,.18.02.26,0,.2-.05.34,0,.45.19.12.2.13.56,0,.71-.18.19-.37.37-.55.56-.24.23-.64.22-.9-.03-.19-.18-.4-.35-.54-.56-.08-.12-.1-.34-.05-.49.04-.14.18-.34.3-.35.34-.05.7-.02,1.04-.02Z"/><path class="cls-6" d="m384.24,650.6c.1.4-.07.67-.36.93-.45.4-.43.42-.77.09-.13-.13-.26-.25-.38-.38-.14-.16-.17-.53,0-.72.24-.26.46-.49.46-.9,0-.3.26-.35.49-.12.3.31.73.56.56,1.1Z"/><path class="cls-6" d="m437.3,772.05c-.36,0-.72-.03-1.07.01-.28.04-.39-.03-.26-.27.07-.13.27-.26.41-.26.63-.03,1.25,0,1.88-.03.14,0,.28-.18.41-.28.39-.3,1.03-.34,1.45-.1.05.03.09.17.08.18-.39.32-.61.88-1.3.78-.52-.08-1.07-.02-1.61-.02Z"/><path class="cls-6" d="m465.07,719.27c-.44,0-.88,0-1.32,0-.18,0-.35-.33-.33-.62.01-.18.07-.33.25-.42.03-.02.13.07.18.12.13.12.23.29.38.36.15.06.44.09.5,0,.37-.46.81-.61,1.37-.53.09.01.18,0,.26,0,.17.02.34.38.28.66-.04.15-.16.29-.27.41-.04.04-.17,0-.26,0h-1.05Z"/><path class="cls-6" d="m409.29,784.43c-.18,0-.38.05-.52-.02-.13-.06-.23-.24-.27-.39-.07-.28.07-.62.26-.66.24-.06.52.09.71-.18.1-.14.24-.34.36-.34.13,0,.26.21.37.34.2.26.48.1.71.18.21.07.24.23.17.36-.42.71-1.07.79-1.79.7Z"/><path class="cls-6" d="m358.39,486.55c0,.09.04.21,0,.26-.22.27-.47.53-.71.78-.03.03-.15.03-.18,0-.39-.37-.78-.74-1.14-1.14-.19-.21-.14-.48-.04-.72.11-.27.65-.29.91,0,.26.3.57.36.93.38.07,0,.14.11.19.18.04.07.04.16.05.25Z"/><path class="cls-6" d="m378.7,664.88c-.13-.1-.3-.19-.37-.32-.07-.15.02-.37-.05-.51-.34-.69-.34-.67.13-1.15.17-.18.25-.2.39.04.21.35.58.33.92.39.14.03.32.6.22.71-.24.26-.46.54-.74.77-.11.09-.33.06-.5.09Z"/><path class="cls-6" d="m403.1,782.01c-.25.25-.5.52-.76.76-.21.19-.83-.01-.83-.31,0-.41-.21-.64-.45-.9-.1-.11-.12-.33-.09-.49.03-.15.15-.33.28-.39.15-.07.41-.08.51.01.47.42.9.88,1.34,1.32Z"/><path class="cls-6" d="m410.64,741.01c.01-.06.04-.31.1-.55.02-.07.13-.18.18-.17.52.12.76-.27,1.09-.53.11-.08.34-.04.51,0,.19.04.36.46.28.66-.16.41-.7.94-1.09.93-.33,0-.44.24-.63.39-.06.05-.12.1-.18.15-.08-.14-.18-.27-.25-.42-.03-.07,0-.17,0-.45Z"/><path class="cls-6" d="m505.44,776.34c0,.17,0,.35,0,.52,0,.32-.14.54-.37.57-.26.03-.5,0-.69-.24-.16-.2-.4-.35-.54-.57-.08-.13-.03-.34-.01-.51,0-.07.1-.13.16-.19.18-.19.36-.38.56-.55.15-.14.53-.12.71,0,.17.11.22.25.18.45-.03.17,0,.35,0,.52Z"/><path class="cls-6" d="m413.09,807.05c.23.03.51-.1.7.18.19.28.57.41.61.79.01.15-.05.32-.1.48-.03.07-.12.16-.19.16-.35.02-.7,0-1.05,0-.26-.33-.69-.52-.81-.97-.06-.21.13-.63.3-.64.17-.01.35,0,.54,0Z"/><path class="cls-6" d="m384.05,634.18c-.3-.07-.49-.66-.27-.87.44-.43.9-.86,1.35-1.28.1-.1.67.09.7.24.03.17.11.42.02.51-.4.47-.84.92-1.3,1.34-.1.09-.34.04-.51.06Z"/><path class="cls-6" d="m279.71,512.25c-.07.07-.12.18-.2.19-.25.04-.51.12-.73-.12-.12-.13-.25-.35-.38-.35-.12,0-.26.21-.37.35-.21.25-.48.16-.73.13-.28-.03-.26-.23.07-.56.31-.32.61-.65.95-.93.11-.09.34-.11.49-.08.27.06.45.25.39.56-.04.2.05.33.21.45.12.09.19.24.28.37Z"/><path class="cls-6" d="m403.64,760.54c0,.44-.17.81-.28.71-.14-.12-.25-.26-.38-.38-.29-.24-.48-.51-.41-.91.06-.37,0-.71-.35-.93-.3-.19-.17-.48-.18-.73,0-.06.11-.14.18-.18.05-.02.14,0,.18.03.39.35.79.7.76,1.3.39.29.57.66.48,1.09Z"/><path class="cls-6" d="m393.94,629.06c0,.35.04.71-.01,1.05-.03.2-.22.27-.34.21-.07-.04-.17-.11-.18-.18-.14-.62-.11-.64-.37-.89-.14-.14-.17-.26-.18-.46-.04-.56.06-1.01.55-1.36.18-.13.26-.24.38-.13.06.06.15.13.15.2.01.53,0,1.05,0,1.58Z"/><path class="cls-6" d="m402.02,629.55c.01-.08.04-.33.1-.57.02-.07.11-.17.18-.17.6-.04,1.21-.1,1.62.52.11.17.23.25.16.38-.11.17-.26.22-.45.17-.2-.06-.33.02-.45.19-.21.33-.53.43-.89.33-.19-.05-.25-.25-.26-.84Z"/><path class="cls-6" d="m392.64,797.9c.48-.15.73.23,1.03.54q.27.27,0,.55c-.12.12-.24.24-.37.37-.24.24-.65.23-.89-.02-.18-.19-.37-.36-.55-.55-.12-.13-.09-.54.03-.71.11-.16.25-.22.45-.17.08.02.17,0,.3,0Z"/><path class="cls-6" d="m386.93,718.19c.44,0,.88-.03,1.31.01.19.02.28.2.23.33-.03.07-.11.17-.18.18-.65.15-.67.12-.89.37-.14.15-.27.16-.45.19-.72.14-1.14-.26-1.54-.74-.03-.03-.01-.13.02-.18.05-.07.12-.16.19-.16.44-.01.88,0,1.31,0Z"/><path class="cls-6" d="m308.05,517.32c.23.03.56-.13.7.19.16.37.13.86,0,1.25q-.06.19-.99.18c-.32,0-.53-.16-.54-.41,0-.18,0-.35,0-.53,0-.59.11-.68.82-.68Z"/><path class="cls-6" d="m279.27,518.07c-.2.2-.34.31-.44.45-.44.6-1.02.47-1.6.32-.1-.03-.25-.62-.17-.7.24-.25.48-.5.73-.73.13-.13.56-.11.71.02.26.22.52.44.77.65Z"/><path class="cls-6" d="m397.45,677.8c-.17,0-.36.04-.52-.01-.2-.06-.27-.22-.21-.34.04-.07.11-.16.18-.18.24-.05.5.07.72-.17.29-.32.59-.63.93-.9.11-.08.34-.04.51,0,.19.04.37.5.26.66-.31.51-.63,1.02-1.35.95-.17-.02-.35,0-.52,0Z"/><path class="cls-6" d="m450.5,788.2c.06.21,0,.35-.19.46-.34.21-.33.57-.4.91-.04.24-.24.26-.36.1-.23-.31-.52-.46-.91-.4-.06,0-.14-.1-.19-.17-.03-.05-.03-.15,0-.18.37-.39.75-.78,1.14-1.14.21-.19.48-.15.72-.03.19.09.25.25.19.46Z"/><path class="cls-6" d="m455.08,723.58c.12.12.23.27.37.36.62.43.47,1.02.36,1.6-.02.12-.6.28-.7.19-.25-.23-.5-.47-.74-.71-.13-.14-.15-.57-.02-.7.24-.25.49-.49.73-.74Z"/><path class="cls-6" d="m406.6,779.59c-.19-.19-.38-.38-.57-.57-.3-.3-.33-.66-.09-.92.12-.13.25-.25.38-.38q.29-.29.57,0c.13.13.26.25.38.38.23.26.2.62-.09.92-.19.19-.38.38-.57.57Z"/><path class="cls-6" d="m268.39,556.31c.26-.23.51-.49.8-.69.13-.09.33-.07.5-.07.07,0,.15.07.22.12.74.63.74.68.03,1.33-.26.24-.64.22-.92-.06-.06-.06-.13-.13-.19-.19l-.44-.44Z"/><path class="cls-6" d="m404.72,762.89c0,.18-.02.36,0,.53.06.36-.26.64-.67.54-.15-.04-.39-.17-.39-.27-.04-.53-.04-1.06,0-1.59,0-.1.24-.25.39-.28.42-.09.68.13.67.53,0,.18,0,.35,0,.53Z"/><path class="cls-6" d="m442.3,778.51c.53,0,.69.14.66.55,0,.09.04.21,0,.26-.23.26-.47.52-.75.74-.11.09-.33.08-.49.07-.24-.02-.38-.25-.38-.57,0-.18,0-.35,0-.53,0-.32.16-.51.43-.52.17,0,.35,0,.53,0Z"/><path class="cls-6" d="m510.83,808.38c0-.26.02-.53,0-.78-.02-.2,0-.35.18-.45.12-.07.24,0,.37.18.11.14.24.25.37.37.31.29.09.66.17.98.05.2-.01.33-.18.45-.14.1-.27.23-.37.37-.14.19-.25.25-.37.13-.06-.06-.14-.13-.15-.2-.01-.35,0-.7,0-1.05Z"/><path class="cls-6" d="m449.96,702.98c-.01.6-.1.68-.79.68-.18,0-.35,0-.53,0-.18-.01-.36-.44-.3-.65.13-.44.53-.67.84-.95.09-.09.36-.07.5,0,.13.06.22.25.27.4.05.16.01.35.01.52Z"/><path class="cls-6" d="m543.15,800.6c.06.2,0,.38-.19.44-.4.11-.81.16-1.09.54-.07.1-.31.08-.48.08-.23,0-.37-.24-.4-.54-.02-.2,0-.38.19-.44.4-.11.83-.15,1.09-.55.03-.05.15-.06.22-.08.33-.1.66.16.66.55Z"/><path class="cls-6" d="m355.42,721.42c-.17,0-.35,0-.52,0-.16-.01-.34-.38-.27-.66.04-.15.15-.37.26-.4.25-.06.52-.05.78-.01.32.05.49-.17.63-.36.16-.21.27-.25.37,0,.06.15.12.34.08.48-.12.44-.51.67-.83.94-.1.09-.34.01-.51.01Z"/><path class="cls-6" d="m397.43,785.51c-.35,0-.7.04-1.04-.01-.2-.03-.27-.22-.2-.34.04-.07.11-.16.18-.18.24-.05.5.08.72-.17.22-.27.48-.5.73-.74.26-.25.33-.24.42.27.05.27.09.5.31.66.19.14.25.25.13.37-.06.06-.13.14-.2.14-.35.01-.7,0-1.04,0Z"/><path class="cls-6" d="m499.1,752.12c-.58,0-.66-.12-.66-.81,0-.09.02-.18,0-.26-.05-.2,0-.35.18-.45.2-.12.57-.14.71,0,.25.24.51.48.71.76.08.11.06.37-.01.5-.07.13-.25.22-.4.26-.16.04-.35,0-.52,0Z"/><path class="cls-6" d="m430.03,772.17c0-.57.12-.66.81-.66.09,0,.18.02.26,0,.2-.05.35,0,.45.18.12.2.14.57,0,.71-.24.25-.48.51-.76.71-.11.08-.37.06-.5-.01-.13-.07-.22-.25-.26-.4-.04-.16,0-.35,0-.52Z"/><path class="cls-6" d="m338.21,551.78c.23.03.5-.1.7.17.2.27.54.42.63.78.02.08.03.19,0,.26-.07.15-.14.33-.27.4-.14.07-.4.09-.5,0-.4-.33-.74-.72-1.12-1.07-.17-.15-.24-.25-.16-.37.11-.16.25-.21.45-.17.08.02.17,0,.27,0Z"/><path class="cls-6" d="m436.5,707.01c0-.09-.03-.19,0-.26.07-.15.14-.33.27-.4.14-.07.38-.08.5,0,.22.13.38.34.56.53.27.27.27.27-.01.55-.18.18-.35.39-.57.51-.13.07-.36.06-.5-.01-.12-.07-.21-.25-.25-.4-.04-.16,0-.34,0-.52Z"/><path class="cls-6" d="m229.66,574.39c0,.09.04.21,0,.25-.3.29-.52.68-.94.83-.19.07-.62-.08-.66-.27-.04-.17-.08-.41,0-.51.27-.31.51-.68.93-.84.31-.11.7.19.67.53Z"/><path class="cls-6" d="m458.81,810.78c.3.3.57.53.78.8.09.11.08.32.06.49-.02.23-.25.38-.56.37-.17,0-.35-.02-.52,0-.2.04-.35,0-.44-.19-.12-.24-.13-.48,0-.71.04-.07.12-.12.18-.19.17-.19.33-.39.5-.58Z"/><path class="cls-6" d="m390.58,807.59c.16.03.36,0,.48.1.27.22.52.46.72.74.08.11.04.34,0,.51-.04.19-.47.34-.66.27-.42-.15-.65-.53-.94-.83-.21-.22.08-.75.4-.78Z"/><path class="cls-6" d="m322.3,675.11c.18,0,.35.02.52,0,.2-.03.35,0,.46.17.08.12-.03.21-.16.38-.35.49-.81.6-1.36.53-.09-.01-.18.02-.26,0-.07-.03-.14-.11-.19-.18-.25-.44-.02-.89.46-.89.18,0,.35,0,.53,0Z"/><path class="cls-6" d="m455.35,793.97c0-.18,0-.35,0-.53,0-.31.49-.54.81-.4.07.03.16.11.18.18.23.96.2,1.06-.55,1.8-.06.06-.12.1-.19.15-.08-.14-.22-.27-.24-.42-.04-.26-.01-.52-.01-.79Z"/><path class="cls-6" d="m324.98,550.96c.25-.24.49-.48.75-.71.05-.05.15-.06.22-.08.2-.07.61.08.66.28.04.17.02.35,0,.52,0,.07-.11.13-.16.19-.23.24-.21.25-.38.88-.05.2-.22.27-.34.2-.07-.04-.16-.11-.18-.18-.15-.68-.15-.69-.36-.89-.06-.06-.12-.12-.21-.21Z"/><path class="cls-6" d="m330.71,681.57c.06,0,.32.03.56.09.07.02.17.11.17.18,0,.05-.09.14-.16.18-.28.17-.66.03-.9.36-.2.28-.48.5-.74.74-.02.02-.13-.01-.18-.05-.06-.05-.14-.13-.15-.2-.02-.26.02-.53-.01-.78-.04-.3.2-.51.43-.52.26,0,.52,0,.97,0Z"/><path class="cls-6" d="m528.19,793.05c-.09,0-.19.03-.26,0-.15-.07-.33-.14-.4-.27-.07-.14-.08-.38,0-.5.13-.22.34-.38.53-.56.27-.27.27-.27.55.01.18.18.39.35.51.57.07.13.06.36-.01.5-.07.12-.25.21-.4.25-.16.04-.34,0-.52,0Z"/><path class="cls-6" d="m458.28,770.43c-.23-.03-.56.13-.68-.19-.1-.27.23-.37.37-.54.11-.13.23-.28.38-.33.15-.05.38-.07.5.01.21.14.36.37.56.53.19.15.24.25.11.37-.06.06-.13.12-.2.14-.08.02-.17,0-.26,0h-.79Z"/><path class="cls-6" d="m215.65,596.5c0,.26.04.54-.02.78-.03.12-.25.23-.4.26-.28.07-.64-.08-.65-.27-.02-.24-.1-.51.17-.72.25-.2.22-.23.37-.89.02-.07.11-.15.18-.18.12-.05.29.04.33.23.05.25.01.52.01.79Z"/><path class="cls-6" d="m401.09,787.13c-.16-.03-.34-.03-.49-.09-.2-.07-.2-.24-.2-.44,0-.2,0-.39.2-.45.46-.14.75-.14,1.25,0,.07.02.15.11.18.18.15.33-.08.79-.4.8-.18,0-.35,0-.53,0Z"/><path class="cls-6" d="m223.53,582.55c.29.17.1.5.22.68.24.35.55.66.88.93.2.17.24.27,0,.37-.15.06-.33.12-.47.09-.45-.1-.64-.53-.96-.8-.1-.09.03-1.09.15-1.22.04-.04.12-.03.18-.05Z"/><path class="cls-6" d="m421.41,789.43c0-.42.14-.74.25-.67.14.09.27.2.37.34.19.28.48.12.71.19.2.06.28.24.2.34-.16.2-.36.37-.55.56-.06.06-.12.15-.19.16-.17.02-.37.06-.51,0-.13-.06-.22-.25-.27-.4-.05-.16-.01-.34-.01-.52Z"/><path class="cls-6" d="m496.82,735.97c0-.26-.04-.53.02-.78.03-.12.23-.25.37-.29.28-.08.65.06.67.25.03.24.1.5-.14.72-.27.24-.24.26-.38.89-.02.07-.1.14-.17.19-.12.08-.3.02-.35-.19-.06-.25-.01-.52-.01-.78Z"/><path class="cls-6" d="m444.58,731.92c-.24.24-.47.51-.74.72-.11.09-.31.09-.47.09-.33,0-.59-.52-.4-.77.15-.2.34-.38.52-.56.28-.28.28-.28.54-.02.18.18.36.36.55.55Z"/><path class="cls-6" d="m417.1,780.92c0,.18,0,.35,0,.53-.01.17-.38.35-.66.28-.15-.04-.38-.15-.4-.26-.05-.34-.03-.7-.01-1.05,0-.07.1-.15.17-.19.23-.15.48-.13.72-.02.19.09.24.25.19.45-.02.08,0,.18,0,.26Z"/><path class="cls-6" d="m427.08,779.05c.18,0,.38-.05.52.02.13.06.23.25.27.4.07.28-.11.65-.28.66-.35,0-.7.01-1.06,0-.07,0-.14-.11-.18-.18-.25-.45-.02-.88.47-.89.09,0,.18,0,.26,0Z"/><path class="cls-6" d="m473.53,761.28c-.17,0-.36.03-.52,0-.15-.04-.28-.16-.42-.25.05-.06.1-.13.16-.18.18-.19.36-.37.55-.55.15-.14.56-.14.71,0,.19.18.37.36.55.55.06.06.11.12.16.18-.14.09-.27.22-.42.24-.25.04-.52.01-.78.01Z"/><path class="cls-6" d="m348.16,556.36c-.24.24-.47.51-.74.72-.11.09-.31.09-.47.08-.32-.01-.59-.53-.4-.77.16-.2.34-.37.52-.56.28-.29.28-.29.55-.02.18.18.36.36.55.55Z"/><path class="cls-6" d="m350.57,682.65c-.18,0-.38.05-.52-.02-.13-.06-.23-.25-.27-.4-.07-.28.11-.65.28-.66.35,0,.7-.01,1.06,0,.07,0,.14.11.18.18.25.45.02.88-.47.89-.09,0-.18,0-.26,0Z"/><path class="cls-6" d="m520.25,776.89c.18.18.36.36.55.55.27.26.27.27-.02.55-.18.18-.35.39-.56.51-.13.07-.34.04-.5,0-.19-.04-.35-.47-.26-.65.07-.14.16-.28.26-.4.17-.19.36-.37.54-.55Z"/><path class="cls-6" d="m490.3,777.23c-.07.07-.12.17-.2.19-.66.15-.7.12-.89.37-.21.27-.48.2-.72.17-.28-.04-.39-.6-.2-.88.05-.07.12-.18.18-.18.52-.01,1.05-.02,1.58,0,.09,0,.16.21.25.32Z"/><path class="cls-6" d="m542.61,797.63c0-.18-.04-.37.01-.52.07-.2.23-.27.35-.19.07.04.16.11.17.19.14.63.13.63.38.9.06.06.12.12.17.19.08.13-.06.65-.19.71-.24.1-.49.13-.71-.03-.07-.05-.16-.12-.16-.19-.02-.35,0-.7,0-1.05Z"/><path class="cls-6" d="m466.41,800.07c-.27-.27-.52-.5-.75-.76-.19-.21-.06-.82.2-.86.23-.04.51-.11.7.15.1.14.24.24.36.37q.27.28,0,.55c-.06.06-.12.12-.18.18-.11.12-.22.25-.34.38Z"/><path class="cls-6" d="m277.47,510.32c-.14-.09-.27-.18-.41-.27.06-.06.13-.12.18-.18.16-.19.37-.31.37-.63,0-.43.23-.58.65-.53.33.04.6.55.4.79-.22.26-.46.52-.73.73-.11.09-.31.07-.48.1Z"/><path class="cls-6" d="m495.21,777.43c-.26,0-.53.04-.79-.01-.2-.04-.27-.22-.21-.34.04-.07.11-.17.18-.18.65-.14.65-.13.9-.37.06-.06.12-.13.19-.17.3-.16.76.07.79.41.05.44-.13.66-.55.66-.18,0-.35,0-.53,0Z"/><path class="cls-6" d="m443.78,771.51c.18,0,.38-.05.52.02.13.06.23.25.27.4.07.28-.08.64-.27.65-.24.02-.51.1-.72-.17-.2-.25-.23-.22-.89-.37-.07-.02-.15-.11-.18-.18-.05-.12.04-.3.23-.33.34-.05.7-.01,1.05-.01Z"/><path class="cls-6" d="m424.4,814.05c-.64.16-.9-.38-1.26-.71-.03-.03-.04-.13-.01-.18.04-.07.11-.15.18-.18.07-.03.17,0,.26,0,.54-.06,1.01.02,1.35.52.12.17.24.26.19.37-.09.19-.24.24-.44.19-.08-.02-.17,0-.26,0Z"/><path class="cls-6" d="m399.31,818.36c-.26,0-.54.04-.78-.02-.12-.03-.23-.25-.26-.4-.07-.28.08-.64.27-.65.24-.02.51-.1.72.17.2.25.23.22.89.37.07.02.15.11.18.18.05.12-.04.29-.23.33-.25.05-.52.01-.79.01Z"/><path class="cls-6" d="m476.09,713.35c.24.24.51.47.72.74.09.11.09.31.08.47-.01.32-.53.59-.77.4-.2-.16-.37-.34-.56-.52-.29-.28-.29-.28-.02-.55.18-.18.36-.36.55-.55Z"/><path class="cls-6" d="m456.15,780.67c-.18-.18-.35-.37-.53-.55-.27-.27-.27-.27.01-.55.12-.12.26-.23.36-.37.2-.26.47-.18.7-.15.26.04.37.64.19.87-.05.07-.12.12-.18.18-.18.18-.36.36-.56.56Z"/><path class="cls-6" d="m320.19,674.03c-.2.05-.34,0-.46-.15-.1-.13-.05-.23.14-.38.2-.16.36-.38.56-.55.23-.19.76.08.8.39.07.48-.18.74-.52.69-.17-.03-.35,0-.52,0Z"/><path class="cls-6" d="m375.63,685.87c-.06-.2,0-.35.19-.44.12-.06.23.03.37.2.16.2.35.37.52.57.09.11-.07.64-.2.7-.49.21-.87,0-.87-.5,0-.17,0-.35,0-.52Z"/><path class="cls-6" d="m215.65,607.11c0,.41-.15.76-.26.67-.13-.11-.25-.23-.37-.35-.12-.12-.28-.23-.36-.37-.13-.22-.13-.47.01-.71.1-.17.25-.2.45-.18.3.03.52.17.53.42,0,.17,0,.35,0,.52Z"/><path class="cls-6" d="m411.72,795.07c0,.39-.16.76-.27.67-.13-.11-.25-.24-.37-.37-.12-.12-.25-.24-.37-.37-.12-.13-.1-.51.03-.71.11-.16.25-.19.45-.17.3.03.51.17.52.43,0,.17,0,.35,0,.52Z"/><path class="cls-6" d="m244.74,621.95c0,.17,0,.35,0,.52-.01.24-.24.4-.54.4-.36,0-.64-.36-.54-.67.08-.27.29-.41.46-.59.11-.12.24-.24.37-.34.12-.09.24.24.25.68Z"/><path class="cls-6" d="m451.6,797.9c-.2.06-.35,0-.45-.17-.08-.12-.02-.23.16-.37.2-.16.36-.37.57-.53.25-.2.75.07.79.41.05.44-.13.67-.54.67-.17,0-.35,0-.52,0Z"/><path class="cls-6" d="m501.13,789.53c0-.09,0-.17,0-.26,0-.4.24-.58.67-.53.33.04.59.55.4.79-.16.2-.37.36-.54.56-.14.18-.25.24-.37.15-.16-.11-.21-.26-.16-.46.02-.08,0-.17,0-.26Z"/><path class="cls-6" d="m482.82,759.28c0,.17.04.36-.01.52-.04.15-.16.3-.28.39-.14.1-.64-.05-.7-.18-.12-.24-.14-.49,0-.71.09-.14.24-.25.36-.37.12-.11.24-.23.37-.33.12-.09.24.23.25.68Z"/><path class="cls-6" d="m339.81,510.86c.06.06.13.13.19.19.19.19.38.38.57.57-.16.19-.31.39-.48.57-.28.29-.28.29-.57,0-.06-.06-.13-.13-.19-.19q-.33-.34.09-.76c.13-.13.25-.25.38-.38Z"/><path class="cls-6" d="m313.43,479.63c.18.18.35.39.56.55.19.15.24.25.11.37-.06.06-.13.14-.2.14-.52.01-1.04.01-1.56,0-.06,0-.14-.1-.18-.18-.06-.12,0-.29.2-.34.64-.16.69-.17,1.07-.53Z"/><path class="cls-6" d="m405.79,811.89c.05.19,0,.34-.16.45-.12.08-.23.02-.37-.15-.1-.12-.25-.25-.39-.27-.25-.03-.5-.02-.67-.26.17-.18.33-.37.51-.54.28-.29.28-.29.55-.02.18.18.37.36.54.55.04.05,0,.17,0,.25Z"/><path class="cls-6" d="m328.13,487.34s.03.15,0,.18c-.23.24-.48.47-.72.7-.35-.2-.17-.61-.35-.88-.05-.07-.13-.12-.18-.18-.23-.33-.23-.5.02-.53.17-.02.39-.07.5,0,.27.2.5.46.73.7Z"/><path class="cls-6" d="m429.22,690.73c.26.33.67.52.81.96.1.31-.17.65-.55.66-.3,0-.53-.16-.53-.41,0-.34.04-.68.08-1.01,0-.07.12-.12.18-.19Z"/><path class="cls-6" d="m287.58,661.11c.09,0,.17,0,.26,0,.4,0,.59.24.53.67-.04.33-.56.59-.79.4-.2-.16-.36-.37-.56-.54-.18-.14-.24-.25-.15-.37.11-.16.26-.21.46-.16.08.02.17,0,.26,0Z"/><path class="cls-6" d="m356.69,492.19c0,.05.03.14,0,.17-.18.19-.38.36-.55.56-.21.25-.47.17-.71.14-.19-.02-.33-.38-.25-.66.04-.15.17-.36.28-.38.34-.05.69-.03,1.04-.01.07,0,.13.11.2.17Z"/><path class="cls-6" d="m530.89,824.28c-.39,0-.76-.16-.67-.27.11-.13.24-.25.37-.37.12-.12.24-.25.37-.37.13-.12.51-.1.71.03.16.11.19.25.17.45-.03.3-.17.51-.43.52-.17,0-.35,0-.52,0Z"/><path class="cls-6" d="m295.91,560.95c0,.31-.14.5-.41.53-.44.05-.66-.13-.66-.55,0-.31.14-.5.41-.53.44-.05.66.13.66.55Z"/><path class="cls-6" d="m362.7,557.04c.05.44-.13.66-.55.66-.31,0-.5-.14-.53-.41-.05-.44.13-.66.55-.66.31,0,.5.14.53.41Z"/><path class="cls-6" d="m404.3,818.9c.27.03.42.22.41.53,0,.31-.15.51-.4.55-.54.07-.86-.31-.68-.79.07-.19.37-.32.66-.28Z"/><path class="cls-6" d="m327.15,686.43c0,.31-.14.5-.41.53-.44.05-.66-.13-.66-.55,0-.31.14-.5.41-.53.44-.05.66.13.66.55Z"/><path class="cls-6" d="m340.08,520.14c-.03.27-.22.42-.53.41-.31,0-.51-.15-.55-.4-.07-.54.31-.86.79-.68.19.07.32.37.28.66Z"/><path class="cls-6" d="m389.1,825.9c-.31,0-.51-.15-.55-.4-.07-.54.31-.86.79-.68.19.07.32.37.28.66-.03.27-.22.42-.53.41Z"/><path class="cls-6" d="m325.5,491.45c.56.01.7.51,1.03.75.02.02,0,.13-.02.17-.05.07-.12.16-.18.16-.24-.01-.51.11-.7-.17-.09-.14-.23-.26-.36-.36-.18-.14-.24-.24-.16-.37.11-.16.25-.22.4-.18Z"/><path class="cls-6" d="m395.02,818.35c0,.31-.15.51-.4.55-.54.07-.86-.31-.68-.79.07-.19.37-.32.66-.28.27.03.42.22.41.53Z"/><path class="cls-6" d="m406.33,766.63c0,.43-.19.59-.62.57-.18,0-.35-.05-.41-.23-.08-.23-.11-.48.06-.7.12-.15.26-.18.45-.16.17.02.41-.06.49.02s.02.32.02.49Z"/><path class="cls-6" d="m490.36,713.35c0,.31-.14.5-.41.53-.44.05-.66-.13-.66-.55,0-.31.14-.5.41-.53.44-.05.66.13.66.55Z"/><path class="cls-6" d="m536.14,783.35c0,.31-.15.51-.4.55-.54.07-.86-.31-.68-.79.07-.19.37-.32.66-.28.27.03.42.22.41.53Z"/><path class="cls-6" d="m416.03,813.39c.05.44-.13.66-.55.66-.31,0-.5-.14-.53-.41-.05-.43.13-.66.55-.66.31,0,.5.14.53.41Z"/><path class="cls-6" d="m450.63,813.51c-.44.05-.66-.13-.66-.55,0-.31.14-.5.41-.53.44-.05.66.13.66.55,0,.31-.14.5-.41.53Z"/><path class="cls-6" d="m411.44,766.12c-.09,0-.24,0-.24,0-.01-.17,0-.34-.02-.51-.03-.19.01-.33.16-.45.25-.2.79-.15.88.11.07.23.11.48-.07.7-.13.15-.12.16-.7.15Z"/><path class="cls-6" d="m507.06,763.84c.05.43-.13.66-.55.66-.31,0-.5-.14-.53-.41-.05-.43.13-.66.55-.66.31,0,.5.14.53.41Z"/><path class="cls-6" d="m457.5,790.77c.05.43-.13.66-.55.66-.31,0-.5-.14-.53-.41-.05-.43.13-.66.55-.66.31,0,.5.14.53.41Z"/><path class="cls-6" d="m460.73,712.8c0,.31-.15.51-.4.55-.54.07-.86-.31-.68-.79.07-.19.37-.32.66-.28.27.03.42.22.41.53Z"/><path class="cls-6" d="m401.69,616.94c.62,0,.91.12.85.25-.12.25-.35.31-.62.3-.08,0-.16.03-.23.07-.07.04-.12.13-.19.18-.38.27-.52.27-.55.02-.02-.17-.02-.35,0-.52,0-.07.1-.17.17-.18.24-.06.49-.09.57-.11Z"/><path class="cls-6" d="m282.59,527.55c-.41,0-.74-.14-.67-.26.14-.24.38-.3.65-.28.07,0,.16-.04.23-.08.07-.05.14-.11.18-.18.13-.18.24-.23.37-.18.1.04.25.57.17.71-.04.07-.11.14-.18.18-.07.04-.15.08-.22.08-.17.01-.35,0-.52,0Z"/><path class="cls-6" d="m400.41,618.69c-.03.27-.22.42-.53.41-.31,0-.51-.15-.55-.4-.07-.54.31-.86.79-.68.19.07.32.37.28.66Z"/><path class="cls-6" d="m230.32,577.63c-.44.05-.66-.13-.66-.55,0-.31.14-.5.41-.53.44-.05.66.13.66.55,0,.31-.14.5-.41.53Z"/><path class="cls-6" d="m478.51,729.49c0,.31-.15.51-.4.55-.54.07-.86-.31-.68-.79.07-.19.37-.32.66-.28.27.03.42.22.41.53Z"/><path class="cls-6" d="m419.82,800.88c-.19.17-.39.33-.56.52-.14.16-.25.24-.37.17-.17-.1-.21-.24-.18-.44.03-.17.03-.35,0-.51-.03-.2,0-.34.16-.45.13-.09.23-.04.37.14.16.2.36.37.58.58Z"/><path class="cls-6" d="m525.45,829.86c.1-.19.26-.26.45-.18.03.01-.01.17,0,.26.13.54-.27.79-.56,1.11-.16.18-.25.24-.39.1-.13-.13-.18-.28-.13-.48.02-.08,0-.19.06-.24.18-.2.37-.38.56-.57Z"/><path class="cls-6" d="m307.77,619.1c.31,0,.5.14.53.41.05.43-.13.66-.55.66-.31,0-.5-.14-.53-.41-.05-.43.13-.66.55-.66Z"/><path class="cls-6" d="m242.59,541.14c-.03.27-.22.42-.53.41-.31,0-.51-.15-.55-.4-.07-.54.31-.86.79-.68.19.07.32.37.28.66Z"/><path class="cls-6" d="m430.38,796.2c-.36-.02-.47-.39-.72-.56-.27-.18-.15-.46-.16-.7,0-.06.1-.14.18-.18.04-.03.14-.02.18,0,.24.24.51.47.7.74.08.11.03.34,0,.5-.01.07-.11.12-.18.19Z"/><path class="cls-6" d="m491.44,737.04c-.31,0-.51-.15-.55-.4-.07-.54.31-.86.79-.68.19.07.32.37.28.66-.03.27-.22.42-.53.41Z"/><path class="cls-6" d="m260.36,627.59c.05.43-.13.66-.55.66-.31,0-.5-.14-.53-.41-.05-.44.13-.66.55-.66.31,0,.5.14.53.41Z"/><path class="cls-6" d="m439.73,775.4c-.03.27-.22.42-.53.41-.31,0-.51-.15-.55-.4-.07-.54.31-.86.79-.68.19.07.32.37.28.66Z"/><path class="cls-6" d="m489.41,750.5c.27.03.42.22.41.53,0,.31-.15.51-.4.55-.54.07-.86-.31-.68-.79.07-.19.37-.32.66-.28Z"/><path class="cls-6" d="m421.79,779.59c.45,0,.75.12.67.24-.09.13-.2.25-.31.37q-.46.47-1.09-.16c-.06-.06-.12-.12-.18-.18.13-.09.26-.22.41-.26.16-.05.34-.01.51-.01Z"/><path class="cls-6" d="m478.53,737.04c.39,0,.59.24.51.67-.03.15-.17.27-.26.41-.06-.06-.12-.12-.18-.18-.12-.12-.23-.26-.37-.36-.18-.14-.24-.24-.15-.37.11-.16.26-.22.45-.16Z"/><path class="cls-6" d="m414.95,773.12c.4,0,.59.22.53.66-.02.15-.16.27-.25.41-.06-.05-.12-.11-.18-.16-.12-.12-.23-.26-.37-.36-.18-.14-.24-.25-.17-.37.1-.17.25-.23.45-.17Z"/><path class="cls-6" d="m328.39,679.31c-.16-.1-.17-.26-.17-.45,0-.2.01-.36.2-.43.15-.06.33-.11.48-.07.15.03.27.17.41.26-.06.06-.12.12-.18.18-.18.18-.36.37-.55.54-.03.03-.12-.02-.18-.03Z"/><path class="cls-6" d="m273.29,537.78c.4,0,.59.22.53.66-.02.15-.16.27-.25.41-.06-.05-.12-.11-.18-.16-.12-.12-.23-.26-.37-.36-.18-.14-.24-.25-.17-.37.1-.17.25-.23.45-.17Z"/><path class="cls-6" d="m282.08,505.37c-.06-.06-.15-.12-.17-.19-.07-.26.03-.65.17-.7.15-.05.33-.11.48-.08.15.03.28.16.41.25-.05.06-.11.12-.16.18-.18.18-.36.37-.55.54-.03.03-.12,0-.18,0Z"/><path class="cls-6" d="m430.57,800.71c-.09.14-.18.27-.26.41-.06-.06-.12-.11-.18-.17-.18-.18-.38-.35-.54-.55-.08-.1,0-.29.21-.34.54-.14.84.13.78.66Z"/><path class="cls-6" d="m378.76,577.47c-.11.16-.26.17-.45.17-.2,0-.36-.01-.43-.2-.06-.15-.11-.33-.07-.48.03-.15.17-.27.26-.41.06.06.12.12.18.18.18.18.37.36.54.55.03.03-.02.12-.03.18Z"/><path class="cls-6" d="m344.42,587.03c-.1.1-.15.19-.23.22-.57.19-.87.03-.89-.45-.01-.2,0-.35.18-.45.12-.07.22,0,.37.17.17.19.37.34.56.51Z"/><path class="cls-6" d="m394.38,786.96c-.11.16-.26.17-.45.17-.2,0-.36-.01-.43-.2-.06-.15-.11-.33-.07-.48.03-.15.17-.27.26-.41.06.06.12.12.18.18.18.18.37.36.54.55.03.03-.02.12-.03.18Z"/><path class="cls-6" d="m325.54,592.17c.4,0,.59.22.53.66-.02.15-.16.27-.25.41-.06-.05-.12-.11-.18-.16-.12-.12-.23-.26-.37-.36-.18-.14-.24-.25-.17-.37.1-.17.25-.23.45-.17Z"/><path class="cls-6" d="m491.34,802.91q.04.17-.53.73c-.06.06-.12.12-.18.17-.09-.14-.23-.26-.25-.41-.08-.52.23-.78.78-.66.07.02.13.11.19.16Z"/><path class="cls-6" d="m404.07,785.89c-.11.16-.26.17-.45.17-.2,0-.36-.01-.43-.2-.06-.15-.11-.33-.07-.48.03-.15.17-.27.26-.41.06.06.12.12.18.18.18.18.37.36.54.55.03.03-.02.12-.03.18Z"/><path class="cls-6" d="m285.68,526.46c0,.41-.21.6-.64.54-.15-.02-.28-.16-.42-.24.05-.06.09-.13.14-.18.12-.12.26-.23.36-.37.13-.17.25-.25.37-.19.19.09.24.24.18.44Z"/><path class="cls-6" d="m425.18,784.56c-.03.26-.22.39-.52.42-.2.02-.34,0-.45-.17-.09-.13-.04-.24.15-.37.07-.05.12-.12.18-.18.45-.46.46-.46.55-.18.05.15.06.32.09.48Z"/><path class="cls-6" d="m421.41,811.48c-.03.26-.22.39-.52.42-.2.02-.34,0-.45-.17-.09-.13-.04-.24.15-.37.07-.05.12-.12.18-.18.45-.46.46-.46.55-.18.05.15.06.32.09.48Z"/><path class="cls-6" d="m486.32,783.89c-.18,0-.37.04-.52-.01-.2-.07-.27-.23-.19-.35.04-.07.12-.17.19-.17.35-.02.71-.05,1.05,0,.2.03.26.23.19.34-.04.07-.12.16-.19.17-.17.02-.35,0-.52,0Z"/><path class="cls-6" d="m304.27,509.25c.07.07.16.12.19.19.1.23.12.48-.03.7-.18.27-.46.15-.71.16-.06,0-.14-.1-.18-.18-.06-.11.02-.23.19-.37.19-.16.36-.34.54-.51Z"/><path class="cls-6" d="m364.74,671.34c.44-.04.64.13.66.53.01.2,0,.35-.18.45-.12.07-.23,0-.37-.17-.1-.14-.24-.25-.36-.37-.06-.06-.11-.12-.16-.18.14-.09.27-.17.41-.26Z"/><path class="cls-6" d="m434.34,816.09c.03.25-.04.48-.27.65-.09-.14-.23-.27-.26-.42-.04-.26-.04-.53,0-.78.02-.15.17-.28.26-.42.09.14.22.27.26.42.05.16.01.35.01.55Z"/><path class="cls-6" d="m381.57,816.74c.39,0,.59.24.51.67-.03.15-.17.27-.26.41-.06-.06-.12-.12-.18-.18-.12-.12-.23-.26-.37-.36-.18-.14-.24-.24-.15-.37.11-.16.26-.22.45-.16Z"/><path class="cls-6" d="m394.86,791c.17.1.23.25.16.43-.01.03-.16,0-.24,0s-.17,0-.25,0c-.43,0-.57-.17-.58-.59,0-.18.03-.33.21-.41.04-.02.13,0,.17.04.18.17.36.35.54.53Z"/><path class="cls-6" d="m422.93,817.45q.04.17-.53.73c-.06.06-.12.12-.18.17-.09-.14-.23-.26-.25-.41-.08-.52.23-.78.78-.66.07.02.13.11.19.16Z"/><path class="cls-6" d="m477.33,722.13q.04.17-.53.73c-.06.06-.12.12-.18.17-.09-.14-.23-.26-.25-.41-.08-.52.23-.78.78-.66.07.02.13.11.19.16Z"/><path class="cls-6" d="m518.67,818.93c-.1-.1-.19-.15-.22-.23-.19-.57-.03-.87.45-.89.2-.01.35,0,.45.18.07.12,0,.22-.17.37-.19.17-.34.37-.51.56Z"/><path class="cls-6" d="m445.66,768.81c-.41,0-.6-.21-.54-.64.02-.15.16-.28.24-.42.06.05.13.09.18.14.12.12.24.26.37.36.17.13.25.25.19.37-.09.19-.24.24-.44.18Z"/><path class="cls-6" d="m411.18,768.28c.4,0,.59.22.53.66-.02.15-.16.27-.25.41-.06-.05-.12-.11-.18-.16-.12-.12-.23-.26-.37-.36-.18-.14-.24-.25-.17-.37.1-.17.25-.23.45-.17Z"/><path class="cls-6" d="m297.16,518.3c-.06-.06-.15-.12-.17-.19-.07-.26.03-.65.17-.7.15-.05.33-.11.48-.08.15.03.28.16.41.25-.05.06-.11.12-.16.18-.18.18-.36.37-.55.54-.03.03-.12,0-.18,0Z"/><path class="cls-6" d="m355.59,690.03c-.11.16-.26.17-.45.17-.2,0-.36-.01-.43-.2-.06-.15-.11-.33-.07-.48.03-.15.17-.27.26-.41l.18.18c.18.18.37.36.54.55.03.03-.02.12-.03.18Z"/><path class="cls-6" d="m460.73,779.47c.04.44-.13.64-.53.66-.2.01-.35,0-.45-.18-.07-.12,0-.23.17-.37.14-.1.25-.24.37-.36.06-.06.12-.11.18-.16.09.14.17.27.26.41Z"/><path class="cls-6" d="m406.09,613.21c-.1-.1-.19-.15-.22-.23-.19-.57-.03-.87.45-.89.2-.01.35,0,.45.18.07.12,0,.22-.17.37-.19.17-.34.37-.51.56Z"/><path class="cls-6" d="m534.88,779.5c-.16.03-.32.08-.48.08-.26,0-.39-.21-.42-.51-.02-.2,0-.34.17-.45.13-.09.23-.03.37.15.16.2.36.37.54.55-.06.06-.12.12-.18.18Z"/><path class="cls-6" d="m526.16,829.67c-.08,0-.23.03-.24,0-.08-.18,0-.31.15-.43.19-.16.36-.36.54-.53.04-.04.13-.06.17-.04.18.08.21.23.21.41,0,.42-.15.58-.58.59-.08,0-.17,0-.25,0Z"/><path class="cls-6" d="m376.06,830.05c-.11.16-.26.17-.45.17-.2,0-.36-.01-.43-.2-.06-.15-.11-.33-.07-.48.03-.15.17-.27.26-.41.06.06.12.12.18.18.18.18.37.36.54.55.03.03-.02.12-.03.18Z"/><path class="cls-6" d="m523.65,834.68q.04.17-.53.73c-.06.06-.12.12-.18.17-.09-.14-.23-.26-.25-.41-.08-.52.23-.78.78-.66.07.02.13.11.19.16Z"/><path class="cls-6" d="m315.76,702.77c-.03.36-.39.47-.57.72-.04.06-.12.1-.18.14-.08-.14-.22-.27-.24-.42-.06-.51.24-.75.8-.64.07.01.12.12.19.18Z"/><path class="cls-6" d="m455.89,770.96c.06.2,0,.34-.17.45-.12.08-.23.02-.37-.16-.1-.14-.24-.25-.36-.37-.06-.06-.12-.12-.17-.18.14-.09.26-.23.41-.25.44-.07.66.12.66.52Z"/><path class="cls-6" d="m215.13,600.54c-.25.24-.48.49-.75.71-.1.08-.27,0-.34-.21-.09-.26.03-.63.17-.7.24-.12.47-.12.71,0,.07.04.12.12.2.2Z"/><path class="cls-6" d="m472.06,773.95c-.25.24-.48.49-.75.71-.1.08-.27,0-.34-.21-.09-.26.03-.63.17-.7.24-.12.47-.12.71,0,.07.04.12.12.2.2Z"/><path class="cls-6" d="m419.02,772.62c-.1-.1-.19-.15-.22-.23-.19-.57-.03-.87.45-.89.2-.01.35,0,.45.18.07.12,0,.22-.17.37-.19.17-.34.37-.51.56Z"/><path class="cls-6" d="m498.88,840.61q.04.17-.53.73c-.06.06-.12.12-.18.17-.09-.14-.23-.26-.25-.41-.08-.52.23-.78.78-.66.07.02.13.11.19.16Z"/><path class="cls-6" d="m433.81,700.42c.2-.06.35,0,.44.18.09.18-.13.35-.46.35-.09,0-.18.02-.26,0s-.14-.11-.18-.18c-.06-.12,0-.25.2-.35.07-.03.17,0,.26,0Z"/><path class="cls-6" d="m327.61,676.54c-.12.27-.71.29-.89.01-.03-.05-.03-.13-.01-.18.12-.27.71-.28.89-.01.03.04.01.12.02.18Z"/><path class="cls-6" d="m394.4,626.46c-.12.27-.71.29-.89.01-.03-.05-.03-.13-.01-.18.12-.28.71-.29.89-.01.03.05.01.12.02.18Z"/><path class="cls-6" d="m308.84,695.98c0,.09.03.19,0,.26-.07.15-.15.32-.27.4-.11.07-.32-.37-.25-.65.04-.15.17-.27.26-.41.06.06.13.12.18.19.04.06.06.15.09.22Z"/><path class="cls-6" d="m428.55,771.51c.14.09.27.18.41.27-.14.09-.27.19-.41.26-.07.03-.18.03-.25,0-.15-.07-.28-.17-.41-.26.14-.09.27-.19.41-.26.07-.03.17,0,.26,0Z"/><path class="cls-6" d="m524.02,765.04c.15,0,.33.39.26.67-.04.15-.17.27-.26.41-.06-.06-.14-.11-.18-.19-.13-.23-.13-.47,0-.71.04-.07.12-.12.18-.19Z"/><path class="cls-6" d="m472.94,774.65c-.06,0-.14.01-.18-.02-.28-.18-.27-.77.01-.89.05-.02.13-.02.18.01.07.05.16.12.17.19.02.17.03.35,0,.52-.01.07-.11.12-.18.19Z"/><path class="cls-6" d="m469.35,710.78c-.03-.29.12-.69.27-.66.07.01.16.1.18.18.05.15.08.32.09.48,0,.07-.04.16-.08.22-.05.07-.12.17-.18.17s-.13-.1-.18-.17c-.04-.06-.06-.15-.09-.22Z"/><path class="cls-6" d="m423.44,774.74c.09,0,.19-.03.26,0,.15.07.32.15.4.27.07.11-.37.32-.65.25-.15-.04-.27-.17-.41-.26.06-.06.12-.13.19-.18.06-.04.15-.06.22-.09Z"/><path class="cls-6" d="m400.41,635.39c-.09.14-.18.27-.27.41-.09-.14-.19-.27-.26-.41-.03-.07-.03-.18,0-.25.07-.15.17-.28.26-.41.09.14.19.27.26.41.03.07,0,.17,0,.26Z"/><path class="cls-6" d="m315.84,509.23c0,.33-.17.55-.35.46-.19-.09-.24-.24-.19-.44.02-.08-.03-.19,0-.26.09-.19.23-.27.35-.2.07.04.15.11.18.18.03.07,0,.17,0,.26Z"/><path class="cls-6" d="m451.58,775.15c.09-.14.18-.27.27-.41.09.14.19.27.26.41.03.07.03.18,0,.25-.07.15-.17.28-.26.41-.09-.14-.19-.27-.26-.41-.03-.07,0-.17,0-.26Z"/><path class="cls-6" d="m404.18,623.54c0-.09-.03-.19,0-.26.07-.15.15-.32.27-.4.11-.07.32.37.25.65-.04.15-.17.27-.26.41-.06-.06-.13-.12-.18-.19-.04-.06-.06-.15-.09-.22Z"/><path class="cls-6" d="m418.72,776.48c-.09.14-.18.27-.27.41-.09-.14-.19-.27-.26-.41-.03-.07-.03-.18,0-.25.07-.15.17-.28.26-.41.09.14.19.27.26.41.03.07,0,.17,0,.26Z"/><path class="cls-6" d="m478.52,720.88c-.33,0-.55-.17-.46-.35.09-.19.24-.24.44-.19.08.02.19-.03.26,0,.19.09.27.23.2.35-.04.07-.11.15-.18.18-.07.03-.17,0-.26,0Z"/><path class="cls-6" d="m365.94,720.88c.2-.06.35,0,.44.18.09.18-.13.35-.46.35-.09,0-.18.02-.26,0-.07-.03-.14-.11-.18-.18-.06-.12,0-.25.2-.35.07-.03.17,0,.26,0Z"/><path class="cls-6" d="m424.66,770.43c.2-.06.35,0,.44.18.09.18-.13.35-.46.35-.09,0-.18.02-.26,0-.07-.03-.14-.11-.18-.18-.06-.12,0-.25.2-.35.07-.03.17,0,.26,0Z"/><path class="cls-6" d="m435.42,818.09c0,.15-.39.33-.67.26-.15-.04-.27-.17-.41-.26.06-.06.11-.14.19-.18.23-.13.47-.13.71,0,.07.04.12.12.19.18Z"/><path class="cls-6" d="m415.62,817.82c.14.09.27.18.41.27-.14.09-.27.19-.41.26-.07.03-.18.03-.25,0-.15-.07-.28-.17-.41-.26.14-.09.27-.19.41-.26.07-.03.17,0,.26,0Z"/><path class="cls-6" d="m310.99,647.63c0,.33-.17.55-.35.46-.19-.09-.24-.24-.19-.44.02-.08-.03-.19,0-.26.09-.19.23-.27.35-.2.07.04.15.11.18.18s0,.17,0,.26Z"/><path class="cls-6" d="m379.4,683.86c-.09.14-.18.27-.27.41-.09-.14-.19-.27-.26-.41-.03-.07-.03-.18,0-.25.07-.15.17-.28.26-.41.09.14.19.27.26.41.03.07,0,.17,0,.26Z"/><path class="cls-6" d="m405.03,778.55c.24.05.31.53.12.87-.04.07-.11.13-.18.16-.25.09-.31,0-.25-.25.05-.23-.08-.5.15-.69.05-.04.12-.06.18-.09Z"/><path class="cls-6" d="m390.09,818.18c-.12.27-.71.28-.89.01-.03-.04-.03-.13-.01-.18.12-.28.71-.29.89-.01.03.05.01.12.02.18Z"/><path class="cls-6" d="m462.71,778.59c.27.12.28.71.01.89-.04.03-.13.03-.18.01-.28-.12-.29-.71-.01-.89.05-.03.12-.01.18-.02Z"/><path class="cls-6" d="m336.58,507.09c.15,0,.33.39.26.67-.04.15-.17.27-.26.41-.06-.06-.14-.11-.18-.19-.13-.23-.13-.47,0-.71.04-.07.12-.12.18-.19Z"/><path class="cls-6" d="m419.17,817.1c-.12.27-.71.29-.89.01-.03-.05-.03-.13-.01-.18.12-.27.71-.28.89-.01.03.04.01.12.02.18Z"/><path class="cls-6" d="m378.32,657.47c-.09.14-.18.27-.27.41-.09-.14-.19-.27-.26-.41-.03-.07-.03-.18,0-.25.07-.15.17-.28.26-.41.09.14.19.27.26.41.03.07,0,.17,0,.26Z"/><path class="cls-6" d="m472.94,723.12c.27.12.28.71.01.89-.04.03-.13.03-.18.01-.28-.12-.29-.71-.01-.89.05-.03.12-.01.18-.02Z"/><path class="cls-6" d="m239.35,610.35c.09-.14.18-.27.27-.41.09.14.19.27.26.41.03.07.03.18,0,.25-.07.15-.17.28-.26.41-.09-.14-.19-.27-.26-.41-.03-.07,0-.17,0-.26Z"/><path class="cls-6" d="m368.9,683.19c.15,0,.33.39.26.67-.04.15-.17.27-.26.41-.06-.06-.14-.11-.18-.19-.13-.23-.13-.47,0-.71.04-.07.12-.12.18-.19Z"/><path class="cls-6" d="m359.29,725.11c-.16.03-.33.1-.48.07-.15-.03-.28-.17-.41-.26.14-.09.26-.23.41-.26.15-.03.33.03.48.08.07.02.12.12.19.18-.06.06-.12.12-.18.18Z"/><path class="cls-6" d="m440.18,812.79c-.12.27-.71.29-.89.01-.03-.05-.03-.13-.01-.18.12-.27.71-.28.89-.01.03.04.01.12.02.18Z"/><path class="cls-6" d="m494.49,726.19c-.16.03-.33.1-.48.07-.15-.03-.28-.17-.41-.26.14-.09.26-.23.41-.26.15-.03.33.03.48.08.07.02.17.12.17.18,0,.06-.11.12-.17.18Z"/><path class="cls-6" d="m436.5,810.41c0-.09-.03-.19,0-.26.07-.15.15-.32.27-.4.11-.07.32.37.25.65-.04.15-.17.27-.26.41-.06-.06-.13-.12-.18-.19-.04-.06-.06-.15-.09-.22Z"/><path class="cls-6" d="m379.95,657.34c-.33,0-.55-.17-.46-.35.09-.19.24-.24.44-.19.08.02.19-.03.26,0,.19.09.27.23.2.35-.04.07-.11.15-.18.18-.07.03-.17,0-.26,0Z"/><path class="cls-6" d="m449.97,779.59c.2-.06.35,0,.44.18.09.18-.13.35-.46.35-.09,0-.18.02-.26,0-.07-.03-.14-.11-.18-.18-.06-.12,0-.25.2-.35.07-.03.17,0,.26,0Z"/><path class="cls-6" d="m257.13,608.2c.03.29-.12.69-.27.66-.07-.01-.16-.1-.18-.18-.05-.15-.08-.32-.09-.48,0-.07.04-.16.08-.22.05-.07.12-.17.18-.17.06,0,.13.1.18.17.04.06.06.15.09.22Z"/><path class="cls-6" d="m388.47,809.02c-.12.27-.71.28-.89.01-.03-.04-.03-.13-.01-.18.12-.27.71-.28.89-.01.03.04.01.12.02.18Z"/><path class="cls-6" d="m442.83,698.8c.09,0,.19-.03.26,0,.15.07.32.15.4.27.07.11-.37.32-.65.25-.15-.04-.27-.17-.41-.26.06-.06.12-.13.19-.18.06-.04.15-.06.22-.09Z"/><path class="cls-6" d="m399.87,601.88c.06.2,0,.35-.18.44-.18.09-.35-.13-.35-.46,0-.09-.02-.18,0-.26.03-.07.11-.14.18-.18.12-.06.25,0,.35.2.03.07,0,.17,0,.26Z"/><path class="cls-6" d="m431.66,782.82c-.33,0-.55-.17-.46-.35.09-.19.24-.24.44-.19.08.02.19-.03.26,0,.19.09.27.23.2.35-.04.07-.11.15-.18.18-.07.03-.17,0-.26,0Z"/><path class="cls-6" d="m326.62,674.57c.2-.06.35,0,.44.18.09.18-.13.35-.46.35-.09,0-.18.02-.26,0s-.14-.11-.18-.18c-.06-.12,0-.25.2-.35.07-.03.17,0,.26,0Z"/><path class="cls-6" d="m382.55,727.7c-.12.27-.71.29-.89.01-.03-.05-.03-.13-.01-.18.12-.27.71-.28.89-.01.03.04.01.12.02.18Z"/><path class="cls-6" d="m368.64,486.62c-.33,0-.55-.17-.46-.35.09-.19.24-.24.44-.19.08.02.19-.03.26,0,.19.09.27.23.2.35-.04.07-.11.15-.18.18-.07.03-.17,0-.26,0Z"/><path class="cls-6" d="m368,667.92c-.12.27-.71.29-.89.01-.03-.05-.03-.13-.01-.18.12-.27.71-.28.89-.01.03.04.01.12.02.18Z"/><path class="cls-6" d="m389.1,807.59c.2-.06.35,0,.44.18.09.18-.13.35-.46.35-.09,0-.18.02-.26,0s-.14-.11-.18-.18c-.06-.12,0-.25.2-.35.07-.03.17,0,.26,0Z"/><path class="cls-6" d="m268.26,537.16c-.06,0-.14.01-.18-.02-.27-.18-.26-.77.01-.89.05-.02.13-.02.18.01.07.05.16.12.17.19.02.17.03.35,0,.52-.01.07-.11.12-.18.19Z"/><path class="cls-6" d="m292.68,539.53c-.03-.29.12-.69.27-.66.07.01.16.1.18.18.05.15.08.32.09.48,0,.07-.04.16-.08.22-.05.07-.12.12-.18.19-.06-.06-.13-.12-.18-.19-.04-.06-.06-.15-.09-.22Z"/><path class="cls-6" d="m456.43,797.36c-.33,0-.55-.17-.46-.35.09-.19.24-.24.44-.19.08.02.19-.03.26,0,.19.09.27.23.2.35-.04.07-.11.15-.18.18-.07.03-.17,0-.26,0Z"/><path class="cls-6" d="m431.46,732.28c.27.13.28.71.01.89-.04.03-.13.03-.18.01-.28-.12-.29-.71-.01-.89.05-.03.12-.01.18-.02Z"/><path class="cls-6" d="m270.6,634.05c0,.09.03.19,0,.26-.07.15-.15.32-.27.4-.11.07-.32-.37-.25-.65.04-.15.17-.27.26-.41.06.06.13.12.18.19.04.06.06.15.09.22Z"/><path class="cls-6" d="m277.41,514.17c.27.12.29.71.01.89-.05.03-.13.03-.18.01-.27-.12-.28-.71-.01-.89.04-.03.12-.01.18-.02Z"/><path class="cls-6" d="m541,794.66c-.33,0-.55-.17-.46-.35.09-.19.24-.24.44-.19.08.02.19-.03.26,0,.19.09.27.23.2.35-.04.07-.11.15-.18.18-.07.03-.17,0-.26,0Z"/><path class="cls-6" d="m537.76,785.92c0,.09.03.19,0,.26-.07.15-.15.32-.27.4-.11.07-.32-.37-.25-.65.04-.15.17-.27.26-.41.06.06.13.12.18.19.04.06.06.15.09.22Z"/><path class="cls-6" d="m436.09,791.97c.14.09.27.18.41.27-.14.09-.27.19-.41.26-.07.03-.18.03-.25,0-.15-.07-.28-.17-.41-.26.14-.09.27-.19.41-.26.07-.03.17,0,.26,0Z"/><path class="cls-6" d="m515.68,747.94c-.09.14-.18.27-.27.41-.09-.14-.19-.27-.26-.41-.03-.07-.03-.18,0-.25.07-.15.17-.28.26-.41.09.14.19.27.26.41.03.07,0,.17,0,.26Z"/><path class="cls-6" d="m539.91,786.6c.06.2,0,.35-.18.44-.18.09-.35-.13-.35-.46,0-.09-.02-.18,0-.26.03-.07.11-.14.18-.18.12-.06.25,0,.35.2.03.07,0,.17,0,.26Z"/><path class="cls-6" d="m412.26,791.7c0,.15-.39.33-.67.26-.15-.04-.27-.17-.41-.26.06-.06.11-.14.19-.18.23-.13.47-.13.71,0,.07.04.12.12.19.18Z"/><path class="cls-6" d="m218.89,589.61c-.09.14-.18.27-.27.41-.09-.14-.19-.27-.26-.41-.03-.07-.03-.18,0-.25.07-.15.17-.28.26-.41.09.14.19.27.26.41.03.07,0,.17,0,.26Z"/><path class="cls-6" d="m454.94,838.82c-.09,0-.19.03-.26,0-.15-.07-.32-.15-.4-.27-.07-.11.37-.32.65-.25.15.04.27.17.41.26-.06.06-.12.13-.19.18-.06.04-.15.06-.22.09Z"/><path class="cls-6" d="m484.97,789.81c0,.33-.17.55-.35.46-.19-.09-.24-.24-.19-.44.02-.08-.03-.19,0-.26.09-.19.23-.27.35-.2.07.04.15.11.18.18.03.07,0,.17,0,.26Z"/><path class="cls-6" d="m391.8,788.74c-.33,0-.55-.17-.46-.35.09-.19.24-.24.44-.19.08.02.19-.03.26,0,.19.09.27.23.2.35-.04.07-.11.15-.18.18-.07.03-.17,0-.26,0Z"/><path class="cls-6" d="m261.99,585.71c.2-.06.35,0,.44.18.09.18-.13.35-.46.35-.09,0-.18.02-.26,0-.07-.03-.14-.11-.18-.18-.06-.12,0-.25.2-.35.07-.03.17,0,.26,0Z"/><path class="cls-6" d="m541.35,789.73c-.06,0-.14.01-.18-.02-.28-.18-.27-.77.01-.89.05-.02.13-.02.18.01.07.05.16.12.17.19.02.17.03.35,0,.52-.01.07-.11.12-.18.19Z"/><path class="cls-6" d="m497.81,739.37c.06.12,0,.25-.18.35-.02.01-.13-.1-.17-.17-.07-.11,0-.24.18-.35.02-.01.11.11.17.17Z"/><path class="cls-6" d="m441.79,771.33c-.06.06-.15.18-.17.17-.19-.1-.25-.23-.18-.35.04-.07.15-.18.17-.17.19.1.24.23.18.35Z"/><path class="cls-6" d="m289.27,502.87c.06.06.18.15.17.17-.1.19-.23.25-.35.18-.07-.04-.18-.15-.17-.17.1-.19.23-.24.35-.18Z"/><path class="cls-6" d="m380.93,676.01c-.06.06-.15.18-.17.17-.19-.1-.25-.23-.18-.35.04-.07.15-.18.17-.17.19.1.24.23.18.35Z"/><path class="cls-6" d="m231.01,574.94c.18.12.25.24.18.36-.04.07-.15.18-.17.17-.19-.1-.25-.23-.18-.35.04-.07.12-.12.18-.18Z"/><path class="cls-6" d="m221.22,588.85c-.06-.06-.18-.15-.17-.17.1-.19.23-.25.35-.18.07.04.18.15.17.17-.1.19-.23.24-.35.18Z"/><path class="cls-6" d="m389.81,749.52c.12-.06.25,0,.35.18.01.02-.1.13-.17.17-.11.07-.24,0-.35-.18-.01-.02.11-.11.17-.17Z"/><path class="cls-6" d="m492.25,847.44c.18.12.25.24.18.36-.04.07-.15.18-.17.17-.19-.1-.25-.23-.18-.35.04-.07.12-.12.18-.18Z"/><path class="cls-6" d="m392.15,791.52c.06.06.18.15.17.17-.1.19-.23.25-.35.18-.07-.04-.18-.15-.17-.17.1-.19.23-.24.35-.18Z"/><path class="cls-6" d="m233.88,590.38c-.06.06-.15.18-.17.17-.19-.1-.25-.23-.18-.35.04-.07.15-.18.17-.17.19.1.24.23.18.35Z"/><path class="cls-6" d="m380.57,567.76c-.06-.12,0-.25.18-.35.02-.01.13.1.17.17.07.11,0,.24-.18.35-.02.01-.11-.11-.17-.17Z"/><path class="cls-6" d="m393.94,590.83c-.12.18-.24.25-.36.18-.07-.04-.18-.15-.17-.17.1-.19.23-.25.35-.18.07.04.12.12.18.18Z"/><path class="cls-6" d="m490,757.42c-.06-.06-.18-.15-.17-.17.1-.19.23-.25.35-.18.07.04.18.15.17.17-.1.19-.23.24-.35.18Z"/><path class="cls-6" d="m267.99,557.89c.06-.06.15-.18.17-.17.19.1.25.23.18.35-.04.07-.15.18-.17.17-.19-.1-.24-.23-.18-.35Z"/><path class="cls-6" d="m504.99,744.94c-.06-.12,0-.25.18-.35.02-.01.13.1.17.17.07.11,0,.24-.18.35-.02.01-.11-.11-.17-.17Z"/><path class="cls-6" d="m540.72,792.51c.18.12.25.24.18.36-.04.07-.15.18-.17.17-.19-.1-.25-.23-.18-.35.04-.07.12-.12.18-.18Z"/><path class="cls-6" d="m267.81,546.58c.06.12,0,.25-.18.35-.02.01-.13-.1-.17-.17-.07-.11,0-.24.18-.35.02-.01.11.11.17.17Z"/><path class="cls-6" d="m425.54,785.96c-.12.06-.25,0-.35-.18-.01-.02.1-.13.17-.17.11-.07.24,0,.35.18.01.02-.11.11-.17.17Z"/><path class="cls-6" d="m407.86,760.02c-.06.06-.15.18-.17.17-.19-.1-.25-.23-.18-.35.04-.07.15-.18.17-.17.19.1.24.23.18.35Z"/><path class="cls-6" d="m467.65,772.23c.06.12,0,.25-.18.35-.02.01-.13-.1-.17-.17-.07-.11,0-.24.18-.35.02-.01.11.11.17.17Z"/><path class="cls-6" d="m451.67,795.56c-.06-.12,0-.25.18-.35.02-.01.13.1.17.17.07.11,0,.24-.18.35-.02.01-.11-.11-.17-.17Z"/><path class="cls-6" d="m254.38,544.57s-.14.17-.16.16c-.12-.06-.26-.13-.32-.24-.11-.23,0-.34.23-.23.11.05.18.2.24.32Z"/><path class="cls-6" d="m324.01,672.6c.06-.06.15-.18.17-.17.19.1.25.23.18.35-.04.07-.15.18-.17.17-.19-.1-.24-.23-.18-.35Z"/><path class="cls-6" d="m426.53,796.82c.18.12.25.24.18.36-.04.07-.15.18-.17.17-.19-.1-.25-.23-.18-.35.04-.07.12-.12.18-.18Z"/><path class="cls-6" d="m434.61,796.82c.18.12.25.24.18.36-.04.07-.15.18-.17.17-.19-.1-.25-.23-.18-.35.04-.07.12-.12.18-.18Z"/><path class="cls-6" d="m399.51,678.43c.12-.06.25,0,.35.18.01.02-.1.13-.17.17-.11.07-.24,0-.35-.18-.01-.02.11-.11.17-.17Z"/><path class="cls-6" d="m395.65,595.76c-.06-.12,0-.25.18-.35.02-.01.13.1.17.17.07.11,0,.24-.18.35-.02.01-.11-.11-.17-.17Z"/><path class="cls-6" d="m357.23,539.76c-.06.06-.15.18-.17.17-.19-.1-.25-.23-.18-.35.04-.07.15-.18.17-.17.19.1.24.23.18.35Z"/><path class="cls-6" d="m485.51,764.24c-.12.18-.24.25-.36.18-.07-.04-.18-.15-.17-.17.1-.19.23-.25.35-.18.07.04.12.12.18.18Z"/><path class="cls-6" d="m510.29,730.31c-.12.18-.24.25-.36.18-.07-.04-.18-.15-.17-.17.1-.19.23-.25.35-.18.07.04.12.12.18.18Z"/><path class="cls-6" d="m424.29,799.96c-.06-.06-.18-.15-.17-.17.1-.19.23-.25.35-.18.07.04.18.15.17.17-.1.19-.23.24-.35.18Z"/><path class="cls-6" d="m435.6,799.6c.12-.06.25,0,.35.18.01.02-.1.13-.17.17-.11.07-.24,0-.35-.18-.01-.02.11-.11.17-.17Z"/><path class="cls-6" d="m343.13,504.84c-.12.06-.25,0-.35-.18-.01-.02.1-.13.17-.17.11-.07.24,0,.35.18.01.02-.11.11-.17.17Z"/><path class="cls-6" d="m350.22,679.78c-.06.06-.15.18-.17.17-.19-.1-.25-.23-.18-.35.04-.07.15-.18.17-.17.19.1.24.23.18.35Z"/><path class="cls-6" d="m457.23,783.36c.18.12.25.24.18.36-.04.07-.15.18-.17.17-.19-.1-.25-.23-.18-.35.04-.07.12-.12.18-.18Z"/><path class="cls-6" d="m269.43,533.29c-.06.06-.15.18-.17.17-.19-.1-.25-.23-.18-.35.04-.07.15-.18.17-.17.19.1.24.23.18.35Z"/><path class="cls-6" d="m348.34,485.99c-.06-.06-.18-.15-.17-.17.1-.19.23-.25.35-.18.07.04.18.15.17.17-.1.19-.23.24-.35.18Z"/><path class="cls-6" d="m282,532.22c-.06-.12,0-.25.18-.35.02-.01.13.1.17.17.07.11,0,.24-.18.35-.02.01-.11-.11-.17-.17Z"/><path class="cls-6" d="m295.28,531.5c.06.12,0,.25-.18.35-.02.01-.13-.1-.17-.17-.07-.11,0-.24.18-.35.02-.01.11.11.17.17Z"/><path class="cls-6" d="m273.38,531.68c-.06-.12,0-.25.18-.35.02-.01.13.1.17.17.07.11,0,.24-.18.35-.02.01-.11-.11-.17-.17Z"/><path class="cls-6" d="m459.39,803.82c.18.12.25.24.18.36-.04.07-.15.18-.17.17-.19-.1-.25-.23-.18-.35.04-.07.12-.12.18-.18Z"/><path class="cls-6" d="m266.77,531.64s-.14.17-.16.16c-.12-.06-.26-.13-.32-.24-.11-.23,0-.34.23-.23.11.05.18.2.24.32Z"/><path class="cls-6" d="m366.38,482.13c-.06.06-.15.18-.17.17-.19-.1-.25-.23-.18-.35.04-.07.15-.18.17-.17.19.1.24.23.18.35Z"/><path class="cls-6" d="m429.31,805.88c-.12.06-.25,0-.35-.18-.01-.02.1-.13.17-.17.11-.07.24,0,.35.18.01.02-.11.11-.17.17Z"/><path class="cls-6" d="m266.05,531.31c-.07-.02-.13-.09-.18-.15-.04-.05-.09-.13-.07-.16.1-.2.21-.22.34-.11.13.12.21.25.14.42-.01.03-.16.02-.23,0Z"/><path class="cls-6" d="m437.39,806.96c-.12.06-.25,0-.35-.18-.01-.02.1-.13.17-.17.11-.07.24,0,.35.18.01.02-.11.11-.17.17Z"/><path class="cls-6" d="m352.92,530.6c-.06.06-.15.18-.17.17-.19-.1-.25-.23-.18-.35.04-.07.15-.18.17-.17.19.1.24.23.18.35Z"/><path class="cls-6" d="m262.51,528.87c-.02.07-.09.13-.15.18-.05.04-.13.09-.16.07-.2-.1-.22-.21-.11-.34.12-.13.25-.21.42-.14.03.01.02.16,0,.23Z"/><path class="cls-6" d="m405.61,783.8c-.12.06-.25,0-.35-.18-.01-.02.1-.13.17-.17.11-.07.24,0,.35.18.01.02-.11.11-.17.17Z"/><path class="cls-6" d="m482.1,727.8c-.12.06-.25,0-.35-.18-.01-.02.1-.13.17-.17.11-.07.24,0,.35.18.01.02-.11.11-.17.17Z"/><path class="cls-6" d="m228.94,599.8c.06.06.18.15.17.17-.1.19-.23.25-.35.18-.07-.04-.18-.15-.17-.17.1-.19.23-.24.35-.18Z"/><path class="cls-6" d="m464.77,765.58c.18.12.25.24.18.36-.04.07-.15.18-.17.17-.19-.1-.25-.23-.18-.35.04-.07.12-.12.18-.18Z"/><path class="cls-6" d="m489.73,808.85c.06.12,0,.25-.18.35-.02.01-.13-.1-.17-.17-.07-.11,0-.24.18-.35.02-.01.11.11.17.17Z"/><path class="cls-6" d="m404.71,779.82c-.02.07-.09.13-.15.18-.05.04-.13.09-.16.07-.2-.1-.22-.21-.11-.34.12-.13.25-.21.42-.14.03.01.02.16,0,.23Z"/><path class="cls-6" d="m498.62,726.9c.12-.06.25,0,.35.18.01.02-.1.13-.17.17-.11.07-.24,0-.35-.18-.01-.02.11-.11.17-.17Z"/><path class="cls-6" d="m510.56,810.28c.18.12.25.24.18.36-.04.07-.15.18-.17.17-.19-.1-.25-.23-.18-.35.04-.07.12-.12.18-.18Z"/><path class="cls-6" d="m477.88,726.63c-.06.06-.15.18-.17.17-.19-.1-.25-.23-.18-.35.04-.07.15-.18.17-.17.19.1.24.23.18.35Z"/><path class="cls-6" d="m531.75,779.41c-.06.06-.15.18-.17.17-.19-.1-.25-.23-.18-.35.04-.07.15-.18.17-.17.19.1.24.23.18.35Z"/><path class="cls-6" d="m476,725.64c-.06-.06-.18-.15-.17-.17.1-.19.23-.25.35-.18.07.04.18.15.17.17-.1.19-.23.24-.35.18Z"/><path class="cls-6" d="m387.84,811.99c.06.06.18.15.17.17-.1.19-.23.25-.35.18-.07-.04-.18-.15-.17-.17.1-.19.23-.24.35-.18Z"/><path class="cls-6" d="m376.08,472.44c-.06.06-.15.18-.17.17-.19-.1-.25-.23-.18-.35.04-.07.15-.18.17-.17.19.1.24.23.18.35Z"/><path class="cls-6" d="m479.5,779.41c-.06.06-.15.18-.17.17-.19-.1-.25-.23-.18-.35.04-.07.15-.18.17-.17.19.1.24.23.18.35Z"/><path class="cls-6" d="m474.73,769.05c-.02.07-.09.13-.15.18-.05.04-.13.09-.16.07-.2-.1-.22-.21-.11-.34.12-.13.25-.21.42-.14.03.01.02.16,0,.23Z"/><path class="cls-6" d="m322.21,468.49c.06.12,0,.25-.18.35-.02.01-.13-.1-.17-.17-.07-.11,0-.24.18-.35.02-.01.11.11.17.17Z"/><path class="cls-6" d="m504.81,723.76c.06.12,0,.25-.18.35-.02.01-.13-.1-.17-.17-.07-.11,0-.24.18-.35.02-.01.11.11.17.17Z"/><path class="cls-6" d="m354.53,522.52c-.06.06-.15.18-.17.17-.19-.1-.25-.23-.18-.35.04-.07.15-.18.17-.17.19.1.24.23.18.35Z"/><path class="cls-6" d="m443.41,814.23c.06.12,0,.25-.18.35-.02.01-.13-.1-.17-.17-.07-.11,0-.24.18-.35.02-.01.11.11.17.17Z"/><path class="cls-6" d="m359.38,464.9c-.06.06-.15.18-.17.17-.19-.1-.25-.23-.18-.35.04-.07.15-.18.17-.17.19.1.24.23.18.35Z"/><path class="cls-6" d="m422.04,815.49c-.06-.12,0-.25.18-.35.02-.01.13.1.17.17.07.11,0,.24-.18.35-.02.01-.11-.11-.17-.17Z"/><path class="cls-6" d="m407.17,769.89c-.07-.02-.13-.09-.18-.15-.04-.05-.09-.13-.07-.16.1-.2.21-.22.34-.11.13.12.21.25.14.42-.01.03-.16.02-.23,0Z"/><path class="cls-6" d="m459.48,815.76c.06.06.18.15.17.17-.1.19-.23.25-.35.18-.07-.04-.18-.15-.17-.17.1-.19.23-.24.35-.18Z"/><path class="cls-6" d="m436.05,779.41c-.06-.12,0-.25.18-.35.02-.01.13.1.17.17.07.11,0,.24-.18.35-.02.01-.11-.11-.17-.17Z"/><path class="cls-6" d="m370.15,653.75c.06.12,0,.25-.18.35-.02.01-.13-.1-.17-.17-.07-.11,0-.24.18-.35.02-.01.11.11.17.17Z"/><path class="cls-6" d="m292.23,520.37c-.06-.12,0-.25.18-.35.02-.01.13.1.17.17.07.11,0,.24-.18.35-.02.01-.11-.11-.17-.17Z"/><path class="cls-6" d="m406.96,817.64c-.06-.12,0-.25.18-.35.02-.01.13.1.17.17.07.11,0,.24-.18.35-.02.01-.11-.11-.17-.17Z"/><path class="cls-6" d="m411.27,817.64c-.06-.12,0-.25.18-.35.02-.01.13.1.17.17.07.11,0,.24-.18.35-.02.01-.11-.11-.17-.17Z"/><path class="cls-6" d="m504.99,778.87c-.06-.12,0-.25.18-.35.02-.01.13.1.17.17.07.11,0,.24-.18.35-.02.01-.11-.11-.17-.17Z"/><path class="cls-6" d="m405.7,613.9c.06.12,0,.25-.18.35-.02.01-.13-.1-.17-.17-.07-.11,0-.24.18-.35.02-.01.11.11.17.17Z"/><path class="cls-6" d="m398.52,616.41c.18.12.25.24.18.36-.04.07-.15.18-.17.17-.19-.1-.25-.23-.18-.35.04-.07.12-.12.18-.18Z"/><path class="cls-6" d="m398.34,638.85c-.06-.12,0-.25.18-.35.02-.01.13.1.17.17.07.11,0,.24-.18.35-.02.01-.11-.11-.17-.17Z"/><path class="cls-6" d="m400.32,637.23c-.06.06-.15.18-.17.17-.19-.1-.25-.23-.18-.35.04-.07.15-.18.17-.17.19.1.24.23.18.35Z"/><path class="cls-6" d="m438.2,776.53c.06-.06.15-.18.17-.17.19.1.25.23.18.35-.04.07-.15.18-.17.17-.19-.1-.24-.23-.18-.35Z"/><path class="cls-6" d="m469.98,776c.06-.06.15-.18.17-.17.19.1.25.23.18.35-.04.07-.15.18-.17.17-.19-.1-.24-.23-.18-.35Z"/><path class="cls-6" d="m443.59,775.1c-.06-.12,0-.25.18-.35.02-.01.13.1.17.17.07.11,0,.24-.18.35-.02.01-.11-.11-.17-.17Z"/><path class="cls-6" d="m459.39,818.9c.18.12.25.24.18.36-.04.07-.15.18-.17.17-.19-.1-.25-.23-.18-.35.04-.07.12-.12.18-.18Z"/><path class="cls-6" d="m431.47,822.04c-.12.06-.25,0-.35-.18-.01-.02.1-.13.17-.17.11-.07.24,0,.35.18.01.02-.11.11-.17.17Z"/><path class="cls-6" d="m349.69,822.85c.06.12,0,.25-.18.35-.02.01-.13-.1-.17-.17-.07-.11,0-.24.18-.35.02-.01.11.11.17.17Z"/><path class="cls-6" d="m499.34,718.64c-.12.06-.25,0-.35-.18-.01-.02.1-.13.17-.17.11-.07.24,0,.35.18.01.02-.11.11-.17.17Z"/><path class="cls-6" d="m373.03,687.32c-.06-.12,0-.25.18-.35.02-.01.13.1.17.17.07.11,0,.24-.18.35-.02.01-.11-.11-.17-.17Z"/><path class="cls-6" d="m457.23,717.65c.18.12.25.24.18.36-.04.07-.15.18-.17.17-.19-.1-.25-.23-.18-.35.04-.07.12-.12.18-.18Z"/><path class="cls-6" d="m458.49,712.99c.06.12,0,.25-.18.35-.02.01-.13-.1-.17-.17-.07-.11,0-.24.18-.35.02-.01.11.11.17.17Z"/><path class="cls-6" d="m407.68,774.74c.18.12.25.24.18.36-.04.07-.15.18-.17.17-.19-.1-.25-.23-.18-.35.04-.07.12-.12.18-.18Z"/><path class="cls-6" d="m318.53,710.38c-.12.18-.24.25-.36.18-.07-.04-.18-.15-.17-.17.1-.19.23-.25.35-.18.07.04.12.12.18.18Z"/><path class="cls-6" d="m349.42,691.36c.12-.06.25,0,.35.18.01.02-.1.13-.17.17-.11.07-.24,0-.35-.18-.01-.02.11-.11.17-.17Z"/><path class="cls-6" d="m453.28,704.55c-.06-.12,0-.25.18-.35.02-.01.13.1.17.17.07.11,0,.24-.18.35-.02.01-.11-.11-.17-.17Z"/><path class="cls-6" d="m356.42,678.43c.12-.06.25,0,.35.18.01.02-.1.13-.17.17-.11.07-.24,0-.35-.18-.01-.02.11-.11.17-.17Z"/><path class="cls-6" d="m471.33,765.49c-.12.06-.25,0-.35-.18-.01-.02.1-.13.17-.17.11-.07.24,0,.35.18.01.02-.11.11-.17.17Z"/><path class="cls-6" d="m361,509.06c-.06.06-.15.18-.17.17-.19-.1-.25-.23-.18-.35.04-.07.15-.18.17-.17.19.1.24.23.18.35Z"/></g></g></g><g class="cls-7"><circle class="cls-3" cx="324.08" cy="606.8" r="141.82"/><path class="cls-6" d="m324.08,474.28c35.4,0,68.68,13.79,93.71,38.82,25.03,25.03,38.82,58.31,38.82,93.71s-13.79,68.68-38.82,93.71c-25.03,25.03-58.31,38.82-93.71,38.82s-68.68-13.79-93.71-38.82c-25.03-25.03-38.82-58.31-38.82-93.71s13.79-68.68,38.82-93.71c25.03-25.03,58.31-38.82,93.71-38.82m0-18.58c-83.45,0-151.11,67.65-151.11,151.11s67.65,151.11,151.11,151.11,151.11-67.65,151.11-151.11-67.65-151.11-151.11-151.11h0Z"/></g><path class="cls-6" d="m1432.22,348.86c54.39,0,98.64,44.25,98.64,98.64s-44.25,98.64-98.64,98.64-98.64-44.25-98.64-98.64,44.25-98.64,98.64-98.64m0-22.56c-66.94,0-121.2,54.26-121.2,121.2s54.26,121.2,121.2,121.2,121.2-54.26,121.2-121.2-54.26-121.2-121.2-121.2h0Z"/><g class="cls-8"><rect class="cls-5" x="1179.53" y="466.22" width="534.03" height="304.32"/><circle class="cls-6" cx="1432.22" cy="703.51" r="143.74"/><path class="cls-6" d="m1432.22,488.78c32.37,0,62.8,12.6,85.69,35.49s35.49,53.32,35.49,85.69-12.61,62.8-35.49,85.69-53.32,35.49-85.69,35.49-62.8-12.6-85.69-35.49c-22.89-22.89-35.49-53.32-35.49-85.69s12.61-62.8,35.49-85.69c22.89-22.89,53.32-35.49,85.69-35.49m0-22.56c-79.39,0-143.74,64.36-143.74,143.74s64.36,143.74,143.74,143.74,143.74-64.36,143.74-143.74-64.36-143.74-143.74-143.74h0Z"/></g><path class="cls-6" d="m1693.17,597.05c-1.95-4.46-2.79-8.64-3.35-14.22h-.84c-6.97,9.76-18.4,17.84-34.85,17.84-22.31,0-35.69-17.01-35.69-36.25v-3.07c0-21.47,12.27-35.69,31.51-44.89,7.25-3.62,25.37-11.71,36.53-17.01v-9.48c0-12.55-5.02-21.19-19.8-21.19-12.55,0-17.29,8.92-17.29,20.63,0,3.07.28,6.97,1.12,10.87l-25.09,1.95c-.84-5.3-1.39-12.55-1.39-17.29,0-22.58,16.45-39.87,44.61-39.87,34.3,0,47.96,17.01,47.96,49.07v84.2c0,6.13.84,13.94,2.51,18.68h-25.93Zm-6.69-74.72l-21.19,10.87c-8.36,4.18-16.73,12.83-16.73,23.7v1.67c0,11.43,5.02,18.12,17.29,18.12s20.63-10.04,20.63-22.86v-31.51Z"/><path class="cls-6" d="m1840.95,559.4c0,23.42-17.01,41.27-40.15,41.27-20.35,0-29.28-7.53-37.92-18.68h-.56l-6.41,15.06h-14.22v-209.4h30.11v74.17h.28c7.53-10.6,18.12-16.73,35.13-16.73,18.96,0,33.74,15.33,33.74,38.76v75.56Zm-29.83-65.8c0-11.99-4.46-24.26-18.4-24.26s-20.91,13.94-20.91,25.65v60.23c0,11.99,7.25,22.58,20.91,22.58,12.27,0,18.4-10.59,18.4-21.47v-62.74Z"/><path class="cls-6" d="m1961.68,552.16c0,30.67-20.35,48.24-49.63,48.24s-49.91-16.45-49.91-48.24v-58.83c0-31.51,21.47-48.24,49.91-48.24s49.63,15.89,49.63,48.24v58.83Zm-30.11-58.27c0-14.5-7.81-23.14-19.52-23.14s-20.08,8.64-20.08,23.42v56.88c0,14.22,8.36,23.42,20.35,23.42s19.24-10.32,19.24-23.42v-57.16Z"/><path class="cls-6" d="m2082.13,448.99l-36.25,148.06h-33.74l-36.53-148.06h32.07l22.31,102.89h1.39l22.31-102.89h28.44Z"/><path class="cls-6" d="m2190.03,527.06h-64.13v26.49c0,13.38,5.3,22.86,20.35,22.86,13.38,0,17.57-7.25,17.57-20.08,0-4.46-.56-8.09-1.12-11.15l24.54-1.67c.84,3.9,1.67,10.32,1.67,17.29,0,23.98-13.94,39.59-43.22,39.59-32.62,0-49.63-15.06-49.63-46.56v-59.11c0-33.74,16.45-49.63,49.07-49.63,28.72,0,45.45,15.89,45.45,52.7,0,8.92,0,20.91-.56,29.28Zm-44.61-58.83c-12.55,0-19.52,9.48-19.52,22.31v14.22h36.8c0-5.86.28-8.92.28-13.38,0-13.66-4.46-23.14-17.57-23.14Z"/></g></g></svg>